<svg width="189" height="61" viewBox="0 0 189 61" fill="none" xmlns="http://www.w3.org/2000/svg">
<rect x="1.81641" y="1.54688" width="185.879" height="58.3784" rx="5.30713" fill="white" stroke="#F2F4F7" stroke-width="2"/>
<path d="M65.1373 42.5918H67.5191L68.295 40.3002H73.4377L74.2496 42.5918H76.6134L71.94 29.9608H69.8108L65.1373 42.5918ZM68.9807 38.3334L70.6408 33.5697L70.8573 32.1983H70.9115L71.1099 33.5697L72.752 38.3334H68.9807ZM78.0908 46.2006H80.1479V41.7437C80.7975 42.3753 81.8079 42.7722 82.9086 42.7722C85.2002 42.7722 87.2212 41.1122 87.2212 38.0807C87.2212 35.0493 85.1461 33.3892 83.0349 33.3892C81.6636 33.3892 80.7433 33.9486 80.1479 34.5621V33.5697H78.0908V46.2006ZM82.5658 41.0039C81.2486 41.0039 80.1479 40.0295 80.1479 38.7303V37.4131C80.1479 36.1139 81.2486 35.1576 82.5658 35.1576C83.9913 35.1576 85.1461 36.0959 85.1461 38.0807C85.1461 40.0656 83.9913 41.0039 82.5658 41.0039ZM89.0689 46.2006H91.126V41.7437C91.7755 42.3753 92.786 42.7722 93.8867 42.7722C96.1783 42.7722 98.1993 41.1122 98.1993 38.0807C98.1993 35.0493 96.1242 33.3892 94.013 33.3892C92.6417 33.3892 91.7214 33.9486 91.126 34.5621V33.5697H89.0689V46.2006ZM93.5439 41.0039C92.2266 41.0039 91.126 40.0295 91.126 38.7303V37.4131C91.126 36.1139 92.2266 35.1576 93.5439 35.1576C94.9694 35.1576 96.1242 36.0959 96.1242 38.0807C96.1242 40.0656 94.9694 41.0039 93.5439 41.0039ZM108.293 42.7722C110.927 42.7722 112.984 41.2024 112.984 38.6582C112.984 36.3304 111.324 35.3019 109.086 34.7786C107.12 34.3095 106.055 33.9306 106.055 32.884C106.055 32.1081 106.849 31.5848 108.004 31.5848C109.375 31.5848 110.187 32.2705 110.35 33.5336L112.334 33.4253L112.425 33.3171C112.19 31.1878 110.638 29.7804 108.022 29.7804C105.676 29.7804 103.89 31.0074 103.89 33.0103C103.89 35.0132 105.496 35.8974 107.661 36.4026C109.664 36.8537 110.747 37.3409 110.747 38.7845C110.747 40.1378 109.7 40.8235 108.365 40.8235C106.921 40.8235 105.748 39.9934 105.604 38.4236L103.493 38.6221L103.421 38.7123C103.619 41.1843 105.712 42.7722 108.293 42.7722ZM118.101 42.7722C118.715 42.7722 119.094 42.7181 119.617 42.5918V40.9498L119.563 40.9137C119.274 40.9859 119.057 41.0219 118.715 41.0219C118.029 41.0219 117.686 40.6791 117.686 40.0836V35.338H119.707V33.5697H117.686V31.5848L115.773 30.9172H115.611V33.5697H113.933V35.338H115.611V40.2641C115.611 41.9602 116.621 42.7722 118.101 42.7722ZM125.629 42.7722C128.443 42.7722 130.392 40.7693 130.392 38.0807C130.392 35.3921 128.443 33.3892 125.629 33.3892C122.796 33.3892 120.847 35.3921 120.847 38.0807C120.847 40.7693 122.796 42.7722 125.629 42.7722ZM125.629 40.9498C124.095 40.9498 122.904 39.9212 122.904 38.0807C122.904 36.2402 124.095 35.2117 125.629 35.2117C127.162 35.2117 128.335 36.2402 128.335 38.0807C128.335 39.9212 127.162 40.9498 125.629 40.9498ZM132.241 42.5918H134.298V36.8718C134.858 35.7711 135.742 35.1937 136.734 35.1937C137.023 35.1937 137.185 35.2117 137.33 35.2478L137.402 35.1937L137.673 33.5336C137.492 33.4434 137.221 33.3892 136.897 33.3892C135.778 33.3892 134.912 33.9847 134.298 34.6884V33.5697H132.241V42.5918ZM142.926 42.7722C145.128 42.7722 146.607 41.6535 147.185 39.6325L147.131 39.5423L145.326 39.4341C145.001 40.3904 144.244 41.0219 142.962 41.0219C141.519 41.0219 140.508 40.1197 140.418 38.6401H147.329V38.0086C147.329 35.1034 145.489 33.3892 142.926 33.3892C140.526 33.3892 138.415 35.2658 138.415 38.0807C138.415 40.8956 140.22 42.7722 142.926 42.7722ZM140.454 37.1424C140.707 35.8252 141.699 35.0673 142.926 35.0673C144.226 35.0673 145.254 35.8072 145.38 37.1424H140.454Z" fill="#002931"/>
<path d="M63.4305 23.793H65.5746C68.0052 23.793 69.4594 22.3176 69.4594 20.078C69.4594 17.8384 68.0052 16.363 65.5746 16.363H63.4305V23.793ZM64.4495 22.8589V17.297H65.5321C67.2622 17.297 68.4404 18.125 68.4404 20.078C68.4404 22.031 67.2622 22.8589 65.5321 22.8589H64.4495ZM73.1476 23.8991C74.7716 23.8991 75.8755 22.7209 75.8755 21.1394C75.8755 19.5579 74.7716 18.3797 73.1476 18.3797C71.5236 18.3797 70.4197 19.5579 70.4197 21.1394C70.4197 22.7209 71.5236 23.8991 73.1476 23.8991ZM73.1476 23.05C72.1393 23.05 71.3538 22.3919 71.3538 21.1394C71.3538 19.8869 72.1393 19.2288 73.1476 19.2288C74.156 19.2288 74.9414 19.8869 74.9414 21.1394C74.9414 22.3919 74.156 23.05 73.1476 23.05ZM77.9779 23.793H79.0181L80.1751 19.5685L81.3427 23.793H82.3828L83.975 18.4858H82.9879L81.9901 21.9142L81.8415 22.8589L81.6611 21.9142L80.6527 18.4858H79.7081L78.6891 21.9142L78.5193 22.8589L78.3707 21.9142L77.3729 18.4858H76.3858L77.9779 23.793ZM84.9068 23.793H85.8409V20.2266C86.2336 19.6534 86.7855 19.2076 87.433 19.2076C88.1335 19.2076 88.5157 19.6003 88.5157 20.3009V23.793H89.4497V20.131C89.4497 19.059 88.8341 18.3797 87.6984 18.3797C86.9129 18.3797 86.2124 18.783 85.8409 19.1758V18.4858H84.9068V23.793ZM90.8048 23.793H91.7388V16.0446H90.8048V23.793ZM95.5889 23.8991C97.2129 23.8991 98.3168 22.7209 98.3168 21.1394C98.3168 19.5579 97.2129 18.3797 95.5889 18.3797C93.9649 18.3797 92.861 19.5579 92.861 21.1394C92.861 22.7209 93.9649 23.8991 95.5889 23.8991ZM95.5889 23.05C94.5805 23.05 93.7951 22.3919 93.7951 21.1394C93.7951 19.8869 94.5805 19.2288 95.5889 19.2288C96.5973 19.2288 97.3827 19.8869 97.3827 21.1394C97.3827 22.3919 96.5973 23.05 95.5889 23.05ZM100.872 23.8991C101.615 23.8991 102.305 23.4321 102.666 23.0287C102.815 23.6656 103.25 23.8567 103.717 23.8567C103.887 23.8567 104.056 23.8354 104.311 23.7505V23.05C104.205 23.0818 104.12 23.0924 104.035 23.0924C103.717 23.0924 103.568 22.8801 103.568 22.5405V20.0567C103.568 19.0484 102.761 18.3797 101.52 18.3797C100.564 18.3797 99.5878 18.8998 99.418 20.0886H100.299C100.448 19.4836 100.893 19.2288 101.456 19.2288C102.135 19.2288 102.634 19.526 102.634 20.1629V20.5238L100.978 20.6936C100.023 20.7891 99.1845 21.3198 99.1845 22.36C99.1845 23.3047 99.8744 23.8991 100.872 23.8991ZM100.978 23.05C100.49 23.05 100.119 22.8165 100.119 22.3176C100.119 21.893 100.416 21.5215 101.042 21.4472L102.634 21.2668V22.2221C102.167 22.6891 101.626 23.05 100.978 23.05ZM107.181 23.8991C107.998 23.8991 108.561 23.5382 108.869 23.2092V23.793H109.803V16.0446H108.869V19.0484C108.465 18.6238 107.839 18.3797 107.16 18.3797C105.769 18.3797 104.75 19.4411 104.75 21.1394C104.75 22.8377 105.875 23.8991 107.181 23.8991ZM107.33 23.05C106.438 23.05 105.684 22.4768 105.684 21.1394C105.684 19.802 106.438 19.2288 107.33 19.2288C108.168 19.2288 108.869 19.8869 108.869 20.6405V21.6595C108.869 22.4131 108.168 23.05 107.33 23.05ZM115.885 23.8991C117.509 23.8991 118.612 22.7209 118.612 21.1394C118.612 19.5579 117.509 18.3797 115.885 18.3797C114.261 18.3797 113.157 19.5579 113.157 21.1394C113.157 22.7209 114.261 23.8991 115.885 23.8991ZM115.885 23.05C114.876 23.05 114.091 22.3919 114.091 21.1394C114.091 19.8869 114.876 19.2288 115.885 19.2288C116.893 19.2288 117.678 19.8869 117.678 21.1394C117.678 22.3919 116.893 23.05 115.885 23.05ZM119.735 23.793H120.669V20.2266C121.062 19.6534 121.614 19.2076 122.261 19.2076C122.962 19.2076 123.344 19.6003 123.344 20.3009V23.793H124.278V20.131C124.278 19.059 123.662 18.3797 122.526 18.3797C121.741 18.3797 121.04 18.783 120.669 19.1758V18.4858H119.735V23.793ZM129.772 23.8991C130.133 23.8991 130.335 23.8673 130.621 23.793V23.0075C130.43 23.0394 130.303 23.0712 130.059 23.0712C129.602 23.0712 129.4 22.8483 129.4 22.498V19.335H130.674V18.4858H129.4V17.2334L128.466 16.8937V18.4858H127.416V19.335H128.466V22.5617C128.466 23.4427 128.965 23.8991 129.772 23.8991ZM131.759 23.793H132.693V20.1629C133.086 19.6109 133.722 19.2076 134.349 19.2076C135.039 19.2076 135.495 19.6003 135.495 20.3009V23.793H136.429V20.131C136.429 19.059 135.75 18.3797 134.614 18.3797C133.797 18.3797 133.064 18.783 132.693 19.1758V16.0446H131.759V23.793ZM140.105 23.8991C141.411 23.8991 142.26 23.1561 142.547 21.9779H141.676C141.485 22.6148 140.944 23.05 140.116 23.05C139.161 23.05 138.492 22.4556 138.46 21.4366H142.6V21.0757C142.6 19.3668 141.528 18.3797 140.105 18.3797C138.715 18.3797 137.516 19.4836 137.516 21.1394C137.516 22.7952 138.492 23.8991 140.105 23.8991ZM138.471 20.6299C138.619 19.7383 139.278 19.2288 140.105 19.2288C140.933 19.2288 141.645 19.6959 141.719 20.6299H138.471Z" fill="#002931"/>
<path fill-rule="evenodd" clip-rule="evenodd" d="M44.593 36.8137C43.9975 38.1362 43.7132 38.7265 42.9464 39.895C41.878 41.5268 40.3707 43.5591 38.5028 43.5764C36.8436 43.5919 36.4171 42.4935 34.1647 42.5067C31.9123 42.52 31.4428 43.5959 29.7836 43.5804C27.9157 43.5637 26.4886 41.7285 25.4191 40.0956C22.4296 35.5319 22.1173 30.1768 23.9611 27.33C25.2713 25.3057 27.3392 24.1228 29.2827 24.1228C31.2617 24.1228 32.506 25.2109 34.1429 25.2109C35.7305 25.2109 36.6974 24.1211 38.986 24.1211C40.7157 24.1211 42.5486 25.0654 43.8548 26.6972C39.5751 29.0486 40.2709 35.175 44.593 36.8137Z" fill="#005F71"/>
<path fill-rule="evenodd" clip-rule="evenodd" d="M37.8188 21.3161C38.6817 20.2261 39.3359 18.6882 39.098 17.1152C37.6885 17.2101 36.0412 18.0929 35.079 19.2432C34.2053 20.287 33.484 21.8354 33.7647 23.3405C35.302 23.3879 36.894 22.4834 37.8188 21.3161Z" fill="#005F71"/>
</svg>
