<svg width="401" height="300" viewBox="0 0 401 300" fill="none" xmlns="http://www.w3.org/2000/svg">
<g style="mix-blend-mode:multiply" opacity="0.25">
<path d="M414.921 150.029C418.089 150.159 418.834 146.106 419.115 142.923C420.459 127.461 416.391 114.433 406.578 104.133C403.99 101.548 401.17 99.3141 398.171 97.4723C399.651 96.7226 400.64 97.4723 401.639 97.7874C403.863 98.5697 406.069 99.4824 408.33 100.08C411.135 100.83 414.358 102.373 416.5 99.0804C418.643 95.7882 418.026 91.8766 416.918 88.2149C415.293 82.9234 412.161 79.0879 408.157 76.1759C407.195 75.4805 405.942 75.2849 405.225 73.6551C414.875 70.2325 418.843 61.8009 418.843 50.4681C418.843 39.8199 415.111 35.3977 399.778 26.564C401.23 26.0533 402.501 25.4775 403.754 25.195C411.925 23.3478 417.19 17.9694 418.725 7.95141C420.168 -1.45811 416.319 -11.4761 409.383 -16.8654C407.141 -18.6147 404.544 -19.2993 402.202 -20.7227H394.476C389.628 -19.0059 385.579 -15.7354 381.676 -11.9433C376.537 -6.90173 370.055 -5.09806 364.036 -2.24043C355.493 1.83413 347.858 7.35381 341.858 15.9484C339.388 19.4906 335.221 20.2946 332.244 23.337C327.477 28.1287 323.81 33.5723 322.257 40.9717C321.467 44.8507 321.54 48.4906 323.51 51.7285C324.727 53.7061 324.264 54.9882 323.002 56.379C322.657 56.7484 322.33 57.1504 321.976 57.5198C318.099 61.3988 312.97 62.4311 310.092 59.9103C307.214 57.3895 306.651 51.8481 309.03 46.0676C312.217 38.3205 315.984 30.9754 321.44 25.0863C322.961 23.3638 324.844 22.1661 326.887 21.6202C328.473 21.1734 329.966 20.3413 331.272 19.1755C336.81 14.3512 342.275 9.39652 347.74 4.43099C348.421 3.80079 349.611 3.18145 349.12 1.92106C348.63 0.660658 347.477 1.07355 346.569 1.20393C339.779 2.23616 334.105 6.24553 328.658 10.8525C326.924 12.3302 326.924 12.3302 324.808 12.4497C327.532 8.48382 330.319 4.76782 332.734 0.725849C334.867 -2.83804 337.582 -6.65183 335.303 -11.4218C333.024 -16.1917 328.948 -15.9418 325.063 -15.768C320.962 -15.4581 317.059 -13.5499 313.951 -10.3352C312.062 -8.49896 310.192 -6.61923 308.422 -4.61998C306.692 -2.52866 304.582 -0.944263 302.256 0.00946426C299.93 0.963194 297.451 1.26044 295.013 0.87797C290.519 0.182577 286.625 3.40963 282.149 2.98588C279.934 2.76857 279.897 5.68052 280.188 7.83189C280.892 13.7579 280.837 19.7778 280.025 25.6839C280.005 27.1124 279.629 28.5011 278.944 29.6716C277.129 28.6937 277.219 26.488 276.829 24.7495C275.385 18.4801 274.015 12.1672 272.762 5.83264C271.999 1.93192 273.225 0.291231 276.557 0.660658C279.543 0.986622 282.103 -0.371567 284.727 -1.74062C279.344 -5.50008 273.978 -5.84778 268.74 -1.74062C267.923 -2.20784 268.114 -2.99015 268.068 -3.62035C267.514 -11.2262 266.144 -12.8669 259.734 -13.4971C251.064 -14.3663 242.231 -8.23819 239.035 0.801907C237.793 4.13857 237.533 7.88144 238.3 11.4175C240.161 19.7622 244.41 22.0222 250.856 18.2845C253.243 16.8937 255.476 14.9379 258.282 14.9162C260.224 14.9162 261.795 15.2422 260.842 18.5561C259.825 22.0548 260.497 25.7056 260.697 29.313C260.896 32.9203 261.187 36.2561 261.15 39.7113C261.014 49.3816 256.711 55.2598 248.695 56.8353C238.845 58.7585 229.857 55.1946 221.097 50.4573C213.507 46.3392 206.916 40.3958 200.706 33.8548C199.98 33.1051 198.791 32.2901 199.39 30.8124C199.889 29.6064 201.015 30.0518 201.923 30.041C204.991 30.041 207.842 31.3557 210.729 32.3227C219.698 35.2782 228.695 38.0923 238.046 38.6356C245.953 39.0702 250.62 35.7997 253.125 28.2916C253.661 26.6835 254.569 24.7495 253.207 23.2392C251.845 21.7289 250.42 22.9567 249.367 23.8911C243.92 28.7371 238.119 26.5532 232.644 24.6734C225.309 22.1526 217.974 20.4467 210.348 20.914C207.17 21.0987 205.6 21.2508 205.463 15.7528C205.237 5.97389 201.033 -1.79495 192.899 -5.35883C184.765 -8.92272 177.211 -7.1951 170.984 0.0739193C167.186 4.76822 163.59 9.68934 160.208 14.8184C155.587 21.4246 151.456 28.748 146.427 34.6697C140.199 41.993 139.028 50.8593 137.266 59.9211C135.187 70.678 131.474 80.6634 127.362 90.4423C125.737 94.2887 124.021 98.1894 123.867 102.557C123.749 105.697 123.431 107.805 120.181 107.012C116.931 106.219 115.269 103.861 115.959 100.363C116.549 97.3311 118.029 94.7885 119.346 92.1917C121.906 87.2153 124.393 82.2063 126.608 76.98C131.202 66.0493 133.308 54.3145 134.87 42.3733C135.139 40.312 135.617 38.2977 136.295 36.3756C137.139 33.996 138.247 31.4861 140.88 34.0721C141.906 35.1586 142.405 34.0721 142.904 33.5397C145.916 30.6777 148.538 27.2723 150.675 23.4456C152.545 19.8491 151.583 17.7304 148.106 17.1436C146.175 16.864 144.216 17.0556 142.349 17.7069C140.481 18.3582 138.743 19.4558 137.239 20.9333C135.736 22.4108 134.498 24.2376 133.601 26.3034C132.704 28.3693 132.166 30.6313 132.019 32.9529C131.311 43.449 131.511 54.1081 128.497 64.213C127.589 67.201 127.144 70.4824 124.865 72.699C126.218 66.7121 126.409 60.5296 128.224 54.6079C130.848 46.0567 130.104 36.7341 131.184 27.8136C131.611 24.3909 132.482 21.0443 133 17.6326C134.479 7.29948 131.656 -1.19734 124.593 -7.18424C117.53 -13.1711 109.822 -13.4319 102.242 -8.33598C96.586 -4.53305 95.4512 0.443346 98.9283 6.98438C101.642 12.3394 104.753 17.3906 108.225 22.0766C115.66 31.6708 117.14 43.2534 116.531 55.4337C115.86 68.8634 110.049 78.9358 100.726 86.1396C99.3459 87.2261 97.8116 88.4865 95.5329 87.3131C97.4394 84.3468 99.2732 81.5761 101.044 78.7293C110.521 63.5176 110.776 48.4689 101.888 32.8443C100.708 30.7798 99.591 28.6719 98.5016 26.5314C98.2686 26.2117 98.1235 25.8139 98.0862 25.392C98.0488 24.9701 98.1209 24.5447 98.2928 24.1736C98.892 23.2283 99.7544 23.6629 100.535 23.9672C103.413 25.0537 105.546 27.7266 108.987 30.0192C107.018 23.0905 102.949 17.2978 97.5847 13.7862C91.5021 9.73335 84.4754 9.20095 77.9571 6.75621C75.7571 5.96033 73.6472 4.84367 71.6749 3.43136C60.581 -4.54392 48.77 -10.3896 35.688 -10.6177C27.463 -10.7699 20.9537 -6.07595 17.1499 3.05107C16.6072 4.42647 16.24 5.8915 16.0605 7.39727C15.7881 9.57037 15.5975 11.9173 17.4132 13.4711C19.2288 15.0249 20.9356 13.9274 22.5697 12.7757L24.3218 11.4718C24.3218 14.3838 25.0209 15.2422 27.1815 13.7645C28.2437 13.0473 29.9051 12.1672 31.0489 13.8188C32.1928 15.4703 31.63 17.2523 31.0489 18.9256C28.2256 26.7379 23.4049 32.5292 17.9669 37.6468C10.8719 44.4066 4.19679 51.7747 -2.00557 59.6929C-2.45506 60.3247 -2.97426 60.8803 -3.5489 61.3445C-4.37504 61.9747 -5.12855 63.2677 -6.31782 62.3659C-7.32552 61.6161 -7.44354 60.3014 -7.4617 59.041C-7.4617 53.1845 -5.80943 47.8169 -3.83033 42.6558C-2.49327 39.0003 -0.518333 35.7295 1.96191 33.0627C4.44215 30.3959 7.37032 28.395 10.5499 27.1942C12.9557 26.2381 15.4522 25.2276 17.2407 22.848C18.666 21.0009 19.0564 19.458 16.3328 18.3388C2.09787 12.5041 -9.81301 20.5119 -13.2537 38.1684C-16.2842 53.2225 -16.7596 68.8514 -14.6518 84.1295C-14.3841 87.1785 -13.2979 90.0415 -11.5561 92.2895C-11.4108 91.7896 -11.1021 91.2029 -10.6482 91.4528C-10.1943 91.7027 -10.3759 92.648 -10.4939 93.2891C-11.7921 99.2868 -12.6182 105.458 -16.3041 110.402C-18.1198 112.858 -17.5478 116.248 -17.0848 119.258C-15.565 129.457 -11.5417 138.883 -5.528 146.334C2.38838 156.298 15.2979 158.287 26.3736 151.485C27.6536 150.692 28.7975 149.312 30.7675 149.583C30.0957 151.496 28.8157 152.321 27.6082 153.212C19.7554 159.058 11.1218 161.198 1.99801 161.231C-0.0718689 161.231 -2.93157 160.145 -3.70323 163.567C-4.37504 166.566 -1.98741 168.131 -0.244358 169.684C3.29622 172.825 6.5463 173.683 15.3887 174.031C13.8635 175.53 12.3202 175.921 9.03378 176.465C3.93171 177.323 -1.17036 177.051 -6.28151 177.203C-12.6364 177.41 -15.0785 180.789 -14.3522 188.395C-14.0018 193.156 -12.3745 197.653 -9.71315 201.216C-6.62649 205.258 -4.99237 205.638 -0.934319 203.291C-0.0264759 204.15 -0.689201 205.008 -0.934319 205.877C-3.22208 213.614 -5.83666 221.089 -10.1217 227.695C-14.6609 234.725 -14.0345 243.005 -11.7921 250.85C-8.70544 261.661 -3.3401 270.897 3.48687 278.915C4.13144 279.676 5.07559 280.132 5.37518 281.556C3.67752 281.969 2.65166 280.469 1.43515 279.665C-1.37008 277.698 -3.9302 275.232 -7.08041 274.037C-10.7118 272.657 -12.8997 274.113 -13.8892 278.513C-16.5492 289.976 -9.91287 303.08 0.654406 307.611C9.65112 311.49 18.8112 311.577 28.1348 309.784C28.9427 309.621 29.7235 309.393 30.5315 309.274C30.875 309.261 31.218 309.312 31.5483 309.426C31.5483 309.697 31.7389 310.034 31.6481 310.175C27.8897 316.434 28.9791 321.092 34.9163 324.148C39.8913 326.713 45.0751 326.028 49.814 324.214C60.7081 320.063 66.255 310.241 66.4457 296.691C66.4457 296.039 66.5274 295.398 66.5728 294.714C66.9813 294.833 67.2718 294.812 67.3626 294.964C72.737 303.656 77.249 304.449 84.6116 297.724C86.3002 296.17 86.972 297.017 87.9071 298.495C90.794 303.026 93.572 307.655 96.6405 311.99C102.088 319.694 109.069 322.508 117.276 320.519C122.568 319.237 124.366 316.173 123.749 309.784C122.977 301.874 120.426 294.486 118.547 286.912C118.411 286.402 118.066 285.967 118.474 285.348C119.518 284.674 119.8 285.848 120.244 286.543C121.082 288.053 121.992 289.504 122.968 290.889C124.212 292.432 125.474 294.866 127.571 293.573C129.495 292.367 128.351 289.857 128.224 287.901C128.004 286.446 127.949 284.962 128.061 283.49C129.731 287.054 131.257 290.726 133.09 294.16C140.907 308.73 152.636 316.977 165.6 323.616C171.837 326.8 178.119 325.789 184.438 325.876C185.599 325.752 186.724 325.326 187.733 324.627C189.549 323.54 189.667 321.932 188.333 320.28C186.981 318.733 185.359 317.564 183.585 316.858C177.489 314.152 171.514 311.073 165.682 307.633C169.958 308.882 174.197 310.382 178.528 311.327C189.34 313.707 200.198 314.391 211.029 311.251C213.639 310.55 216.123 309.295 218.364 307.546C219.544 305.547 218.364 304.189 217.456 302.787L214.424 301.918C203.811 300.31 193.144 301.244 182.45 300.94C185.092 303.537 188.387 304.004 191.446 305.156C192.254 305.46 193.553 305.286 193.48 306.818C193.435 307.905 192.363 308.111 191.583 308.252C179.554 310.577 154.742 304.591 146.445 285.848C146.29 285.467 146.063 285.13 145.927 284.761C145.128 282.349 143.531 279.567 145.237 277.372C146.944 275.178 149.096 277.22 150.966 278.187C155.314 280.437 159.481 282.534 162.041 288.108C164.311 292.975 168.651 294.844 173.317 295.148C175.205 295.268 177.248 295.55 177.166 292.117C177.166 290.639 177.983 290.965 178.555 291.161C183.793 293.084 189.24 293.138 195.096 293.692L192.372 296.735C194.488 298.734 196.912 298.669 199.145 298.908C204.22 299.44 209.331 299.831 214.406 298.723C226.365 296.72 238.083 293.022 249.312 287.706C255.595 284.642 261.114 286.554 266.834 288.977C267.176 289.075 267.481 289.309 267.698 289.64C267.916 289.971 268.033 290.381 268.032 290.802C268.032 296.572 271.028 300.657 273.76 304.721C279.498 313.229 285.771 321.019 295.167 323.692C301.704 325.55 307.114 323.41 311.091 316.869C311.999 315.413 312.734 314.695 314.178 315.434C314.519 315.522 314.865 315.587 315.212 315.63C332.062 321.769 344.481 312.196 355.648 298.93C363.564 289.52 369.12 278.111 373.759 265.247C374.776 268.017 374.222 270.288 374.231 272.461C374.231 276.492 373.65 281.447 376.955 283.381C380.259 285.315 383.101 281.567 385.643 278.959C385.895 278.807 386.16 278.687 386.433 278.6C387.077 280.241 386.133 281.501 385.725 282.773C384.132 287.248 382.992 291.936 382.329 296.735C381.775 301.852 383.364 305.612 386.996 308.372C391.279 311.656 396.423 312.941 401.447 311.983C406.47 311.024 411.025 307.887 414.242 303.171C417.46 298.455 419.116 292.487 418.897 286.404C418.677 280.32 416.596 274.546 413.051 270.18C411.28 268.006 409.465 265.833 407.74 263.573C407.022 262.639 406.369 261.748 408.03 260.792C417.354 255.359 421.094 244.037 417.762 231.759C416.019 225.327 413.804 221.98 404.644 212.201C411.189 212.983 414.857 209.224 417.163 202.976C419.378 196.979 419.169 190.731 418.452 184.505C417.254 174.042 415.021 163.861 412.914 153.56C412.533 151.593 411.58 149.877 414.921 150.029ZM410 118.019C410.463 119.421 410.717 120.942 410.972 121.974C410.972 123.289 410.972 124.147 410.209 124.614C409.446 125.082 408.865 124.517 408.348 123.952C406.623 122.083 404.925 120.203 403.21 118.312C392.443 106.415 380.132 103.155 366.215 109.001C364.917 109.544 363.065 111.043 362.166 109.142C361.449 107.61 363.265 106.328 364.263 105.274C377.953 90.4315 403.219 97.4832 410 118.019ZM384.454 204.769C380.318 204.186 376.138 204.211 372.007 204.845C374.358 201.738 377.881 202.259 379.851 198.663C376.004 198.577 372.167 199.174 368.466 200.434C356.664 203.922 346.115 210.995 335.339 217.427C333.269 218.666 331.2 219.948 329.121 221.176C328.485 221.535 327.659 221.839 327.187 221.089C326.715 220.339 327.405 219.611 327.85 219.014C330.431 215.249 333.558 212.072 337.082 209.637L338.308 208.55L341.767 205.975C342.121 205.888 356.628 199.065 357.445 198.945C366.624 195.273 376.337 194.251 385.452 190.785C386.106 192.176 384.762 192.404 385.107 193.741C389.41 192.654 393.133 190.557 395.093 185.57C397.641 179.617 398.665 172.897 398.035 166.251C397.717 163.252 399.905 162.122 400.559 158.83C402.374 163.947 400.786 167.913 400.559 171.868C400.359 173.23 400.101 174.58 399.787 175.91C398.271 186.548 393.804 194.382 385.143 198.359C382.62 199.51 381.022 201.325 384.481 204.769H384.454ZM382.62 162.915C382.093 160.492 380.949 158.569 378.326 159.851C377.49 160.264 376.583 160.492 375.666 160.829C374.867 159.091 376.11 158.134 376.628 157.091C379.796 150.572 382.983 144.172 384.889 136.958C385.688 134.024 387.613 133.698 389.365 136.088C390.632 137.739 391.421 139.835 391.616 142.064C392.397 154.516 391.68 166.729 387.449 178.377C386.642 180.608 385.47 182.623 384.001 184.303C382.532 185.983 380.797 187.293 378.898 188.156C372.352 191.415 365.425 193.013 358.598 195.012C349.294 197.9 340.348 202.24 331.989 207.92C331.499 208.105 330.991 208.311 330.528 207.812L331.517 207.138C338.608 200.619 346.86 197.066 355.276 193.936C360.995 191.763 366.832 190.046 372.379 187.276C379.833 183.56 384.653 172.292 382.62 162.915ZM319.57 204.204L319.452 204.052C319.134 202.737 318.381 201.683 320.024 200.347C322.103 198.695 324.808 197.305 324.808 193.36C324.808 191.959 325.97 192.274 326.715 192.274C327.623 192.274 328.739 192.274 329.102 193.48C329.303 193.986 329.363 194.555 329.273 195.105C329.183 195.654 328.948 196.155 328.603 196.533C325.698 199.217 323.083 202.433 319.525 203.943C319.532 204.032 319.548 204.119 319.57 204.204ZM325.989 188.004C314.187 186.396 302.957 181.973 293.306 173.129C291.872 171.927 290.691 170.342 289.856 168.5C289.285 167.153 288.585 165.653 289.62 164.23C290.054 163.662 290.607 163.241 291.221 163.012C291.835 162.783 292.489 162.753 293.116 162.926C293.579 163.024 294.023 163.274 294.459 163.372C296.184 163.752 298.154 165.664 299.589 163.306C301.023 160.949 300.061 158.265 298.808 155.961C298.563 155.505 298.299 155.07 297.9 154.375C298.454 154.06 298.663 153.886 298.871 153.81C303.238 152.484 303.247 152.484 303.701 157.939C303.976 160.704 304.734 163.37 305.925 165.762C306.679 167.327 309.039 168.598 306.17 170.793C305.263 171.51 306.788 173.172 307.659 174.052C312.144 178.301 317.428 180.148 322.929 181.474C332.67 183.82 341.994 180.452 351.417 178.616C356.102 177.692 360.75 176.595 365.443 175.791C366.696 175.563 368.494 174.813 369.165 176.78C369.837 178.746 368.448 180.039 367.168 181.126C364.445 183.408 361.385 185.32 358.217 185.472C347.423 185.733 336.774 189.514 325.989 188.047V188.004ZM270.347 181.56C264.101 175.356 258.79 168.228 256.312 158.667C256.015 157.322 255.782 155.958 255.613 154.581C255.685 149.833 256.194 146.161 259.889 144.737C263.229 143.455 265.481 145.639 267.378 148.442C268.737 150.341 269.93 152.402 270.937 154.592C277.637 170.021 288.613 179.246 301.713 185.559C305.453 187.352 309.52 188.33 312.816 191.372C315.403 193.762 315.312 195.599 312.671 197.794C311.886 198.518 310.982 199.037 310.018 199.314C309.054 199.591 308.052 199.621 307.078 199.402C293.969 196.077 280.996 192.176 270.347 181.604V181.56ZM304.064 222.35C302.548 227.924 298.771 230.738 294.704 233.215C293.505 234.057 292.076 234.299 290.728 233.889C295.903 231.248 298.953 225.196 304.001 222.447C304.006 222.368 304.006 222.288 304.001 222.208C304.03 222.265 304.051 222.328 304.064 222.393V222.35ZM268.377 201.51C265.653 200.988 262.93 200.369 260.206 199.673C257.646 199.032 257.283 200.39 258.082 202.846C259.298 206.66 260.152 210.539 259.716 214.646C259.535 216.276 259.262 218.166 257.701 218.71C256.139 219.253 255.395 217.547 254.741 216.33C248.314 204.378 240.325 193.871 232.844 182.886C227.687 175.28 225.772 166.729 228.568 157.167C229.058 155.483 228.895 152.582 230.965 152.745C232.535 152.854 232.735 155.429 233.035 157.091C233.997 162.524 235.186 167.957 238.073 172.466C240.132 175.843 242.612 178.823 245.427 181.3C245.962 181.756 246.625 182.441 247.242 181.734C247.86 181.028 247.242 180.137 246.934 179.561C245.118 176.475 243.239 173.509 241.487 170.402C239.553 167.039 238.42 163.11 238.209 159.036C240.27 164.067 241.968 168.174 246.698 168.25C247.369 168.25 248.087 169.956 248.677 170.977C252.635 177.834 256.92 184.385 261.187 190.959C266.688 199.467 274.723 201.683 282.793 203.867C285.462 204.606 288.195 205.063 290.91 205.638C283.338 207.464 274.868 203.4 268.459 211.886C269.112 209.995 269.739 208.094 270.438 206.236C271.409 203.617 270.937 202.031 268.377 201.51ZM241.323 230.596C241.323 233.704 245.517 235.203 243.439 238.941C241.523 242.386 239.281 245.167 234.868 245.515C239.262 241.451 241.541 236.801 241.323 230.596ZM240.188 202.346C239.626 201.26 238.709 200.173 239.035 198.076C244.555 205.617 249.103 213.288 251.6 222.654C246.752 222.513 246.098 218.557 245.172 214.646C243.994 210.286 242.333 206.135 240.234 202.303L240.188 202.346ZM88.942 226.478C86.2908 227.104 83.5424 226.725 81.0801 225.392C80.1723 224.859 78.9104 224.197 79.2644 222.752C79.5005 221.665 80.7351 221.589 81.6793 221.491C94.4798 220.068 106.554 215.167 118.61 210.311C123.222 208.463 127.689 206.03 132.173 203.791C132.936 203.422 133.653 202.965 134.634 203.846C133.372 206.649 131.002 208.029 128.978 209.626C116.767 219.09 103.15 223.762 88.942 226.435V226.478ZM121.879 222.621C117.938 225.468 114.008 228.347 110.077 231.129C108.467 232.24 107.099 233.791 106.085 235.654C105.07 237.518 104.438 239.642 104.239 241.853C103.44 248.133 100.835 249.35 96.6133 245.569C94.0624 243.377 91.7427 240.823 89.7046 237.963C87.8163 235.193 88.1159 233.193 90.8122 231.748C97.1671 228.347 104.085 227.12 110.785 224.99C114.371 223.762 117.884 221.904 121.879 222.578V222.621ZM75.1428 232.302C76.5382 234.168 77.7114 236.256 78.6289 238.507C79.6366 241.256 78.6834 242.755 76.4864 243.45C71.4297 245.069 59.4462 237.931 57.4217 232.139C57.2971 231.903 57.2133 231.639 57.1755 231.363C57.1377 231.088 57.1466 230.805 57.2017 230.534C57.2567 230.262 57.3568 230.007 57.4959 229.782C57.6351 229.558 57.8106 229.369 58.0118 229.227C59.8729 227.826 60.8262 225.598 61.8883 223.458C63.7948 219.633 64.6119 219.383 67.5351 222.002C68.2614 222.665 68.8242 223.882 69.8592 223.012C70.8941 222.143 70.2042 221.067 70.1315 219.992C69.9863 217.819 68.1252 216.243 68.7335 213.907H68.5973L68.3885 214.016C68.3885 214.016 68.4429 213.864 68.4702 213.864C68.5125 213.859 68.555 213.859 68.5973 213.864C68.6684 213.836 68.7381 213.803 68.8061 213.766C68.7979 213.82 68.7979 213.875 68.8061 213.929C71.1483 215.504 73.3453 216.786 73.1546 221.067C73.0275 223.849 75.1791 226.207 77.3579 227.782C77.821 228.054 78.2658 228.358 78.7469 228.641L83.5585 229.999C81.0892 235.149 79.8182 230.922 78.2476 229.336L76.9585 228.369C75.8963 228.597 74.4801 227.065 73.8264 228.793C73.1909 230.162 74.4438 231.216 75.1428 232.259V232.302ZM52.356 201.26C52.5739 202.987 52.8462 205.269 51.1395 206.073C49.4327 206.877 48.3343 204.986 47.5081 203.628C45.2748 200.14 44.5122 196.359 46.0465 191.991C47.8622 186.83 50.7037 182.43 52.8462 177.508C53.7541 175.335 54.6619 173.042 55.4608 170.728C56.4594 167.718 56.9043 164.828 52.9552 164.73C51.43 164.73 51.4209 163.839 52.0473 162.654C52.8825 161.155 53.7813 159.677 54.7709 158.308C61.9337 147.725 65.4925 135.089 69.1238 122.452C69.9046 119.736 70.2859 115.824 72.7552 115.455C75.5513 115.053 76.6044 118.953 77.7756 121.583C79.8454 126.233 81.0347 131.362 82.578 136.24C84.3937 142.053 86.627 147.704 88.6152 153.473C88.9692 154.505 90.0587 155.646 88.8966 156.82C88.4607 157.17 87.9606 157.388 87.4389 157.456C86.9171 157.524 86.3894 157.44 85.9007 157.211C83.3316 156.494 81.3615 154.397 79.328 152.68C76.6044 150.431 73.8809 150.366 71.8292 153.31C64.2306 164.328 56.6592 175.411 51.7205 188.634C51.169 190.384 50.9368 192.255 51.0396 194.121C51.3483 195.816 52.011 198.489 52.356 201.216V201.26ZM37.5854 185.429C33.9686 188.188 30.4859 191.192 27.1543 194.425C22.8874 198.847 21.1989 204.432 21.0082 210.984C20.6632 223.632 22.8239 235.768 25.847 247.797C26.5511 250.738 27.7525 253.474 29.3766 255.837C31.0007 258.199 33.0129 260.137 35.2886 261.531C40.0638 264.66 45.1205 267.268 49.2058 271.69C50.7854 273.407 53.5362 275.569 52.0564 277.927C50.7763 279.969 48.6248 276.84 47.1177 275.688C42.4333 272.027 37.3766 269.267 32.3926 266.311C29.4359 264.667 26.8101 262.28 24.6936 259.311C22.5771 256.343 21.0198 252.864 20.1276 249.111C16.8412 236.073 14.3447 222.817 14.7623 209.028C14.9438 203.042 16.5779 197.837 20.4181 193.936C26.3736 187.852 33.2278 183.473 40.2545 179.474C40.587 179.199 40.9834 179.056 41.3875 179.066C41.7916 179.076 42.1829 179.238 42.5059 179.529C41.5254 182.473 39.4646 183.864 37.5854 185.429ZM37.9758 195.023C36.5686 197.88 36.5686 201.075 36.3507 204.508C33.2096 201.846 37.1406 195.284 32.0203 194.175C32.8011 192.274 34.526 192.437 35.8423 191.698C36.274 191.478 36.7537 191.432 37.209 191.568C37.6643 191.703 38.0705 192.012 38.3661 192.448C39.1287 193.404 38.3571 194.273 37.9758 195.023ZM44.2671 186.493C45.5563 184.201 46.918 181.984 48.2344 179.724C48.3706 179.333 48.0982 178.638 48.77 178.779C48.8136 179.248 48.8136 179.722 48.77 180.191C47.2448 183.777 45.7197 187.341 44.2308 190.937C41.9067 196.37 42.6784 201.596 45.1386 206.692C45.8014 208.04 47.145 209.083 46.8272 211.039C40.4542 203.748 39.6008 194.903 44.2671 186.493ZM59.1013 87.6173C57.3945 88.4322 56.2234 87.3456 55.3428 85.8027C51.784 79.5225 46.7728 75.4262 41.1805 72.1774C40.5904 72.0036 39.8459 72.3078 39.4192 71.4277C39.7652 71.2236 40.1457 71.1174 40.5314 71.1174C40.917 71.1174 41.2975 71.2236 41.6435 71.4277C49.0424 74.3723 54.5257 80.3374 59.1013 87.6064V87.6173ZM29.1425 65.2235C26.9364 65.1366 23.9769 66.0601 23.1326 62.6375C22.3791 59.5734 24.7122 57.6502 26.4643 55.9444C32.9736 49.6967 40.5904 47.2519 48.7882 47.1107C49.814 47.1107 51.0487 46.9368 51.5117 48.382C51.9747 49.8271 50.7491 50.2508 50.159 51.0005C46.9453 55.0316 46.8 56.9766 49.7414 61.4097C52.2743 65.2235 55.0614 68.7548 57.5307 72.6012C60.8827 77.9545 63.2552 84.0927 64.4938 90.6162C62.1153 89.5296 61.4707 87.639 60.6083 86.0853C53.1095 72.5142 42.5876 65.7233 29.1062 65.2235H29.1425ZM68.9786 24.7821C68.7062 24.5213 68.0707 24.4561 68.334 23.9128C68.5973 23.3696 69.0875 23.739 69.2419 24.3475C74.8705 27.6614 81.4432 37.071 82.1514 43.286C77.8573 38.5378 74.4438 32.5509 66.9541 33.6701C70.2314 30.7146 70.4674 27.9005 68.9786 24.7821ZM69.1511 89.6274C65.7194 82.5105 64.0671 74.6004 62.1879 66.8099C62.0044 66.2395 61.9357 65.6255 61.9874 65.0174C62.0392 64.4094 62.2099 63.8246 62.4858 63.3102C62.7617 62.7959 63.1349 62.3667 63.5753 62.0572C64.0156 61.7478 64.5107 61.5669 65.0204 61.5292C70.4039 60.7686 75.7238 61.0185 80.0815 65.7233C83.2862 69.2003 83.1954 72.699 79.9907 76.3172C77.485 79.1639 74.6798 81.7499 74.8069 86.6068C74.934 91.9635 76.7406 93.8758 81.2253 94.0605H81.2798C81.647 94.0994 81.9921 94.2874 82.2578 94.5934C82.5234 94.8993 82.6937 95.3047 82.7403 95.7424C82.787 96.1801 82.7072 96.6237 82.5142 96.9996C82.3212 97.3755 82.0266 97.6612 81.6793 97.8091C80.9621 98.1134 80.254 98.4719 79.5458 98.8196C79.328 99.1239 79.1192 99.4064 78.8922 99.678C78.8196 100.558 79.5186 102.601 77.7392 101.188C76.2834 99.8279 74.9175 98.3349 73.654 96.7226L73.0185 95.9729L72.5101 95.3644L71.457 93.2891L69.1511 89.6274ZM188.205 121.268C187.379 125.549 184.992 127.146 181.469 125.723C178.886 124.593 176.703 122.441 175.281 119.623C173.859 116.805 173.285 113.491 173.653 110.228C174.379 103.046 178.283 97.5701 180.462 91.1594C180.934 89.7469 181.533 88.3996 182.105 87.0306C182.677 85.6615 182.831 83.6405 184.338 83.7057C185.845 83.7709 185.936 85.9549 186.154 87.3348C187.116 95.0167 188.469 102.644 188.659 110.457C188.659 111.141 188.659 111.837 188.659 112.532C188.853 115.459 188.694 118.405 188.187 121.279L188.205 121.268ZM207.742 61.3988C207.951 61.1598 208.169 60.9207 208.387 60.66C213.997 64.8975 219.626 69.1242 225.817 73.7855C221.986 75.1002 222.613 77.3494 223.811 80.1853C225.009 83.0212 227.243 85.379 227.851 89.2797C225.009 86.2374 222.604 83.4341 219.98 80.9459C218.936 79.9571 217.574 77.6102 216.267 79.1748C215.232 80.4135 217.084 81.9998 217.819 83.3146C221.895 90.5944 225.89 97.9287 228.259 106.295C228.804 108.251 230.456 111 228.477 112.26C227.016 113.195 225.817 110.196 224.655 108.772C220.052 103.09 215.904 96.8964 210.947 91.6158C206.798 87.1935 202.223 84.3359 196.512 84.6727C193.407 84.8575 192.064 82.8473 192.118 79.3052C192.182 74.2962 192.118 69.3524 190.638 64.5281C189.667 61.2684 191.347 60.3883 193.734 60.4535C198.509 60.5839 202.676 63.159 206.952 65.2452C208.261 66.0979 209.7 66.6264 211.183 66.799C210.765 64.1587 208.65 63.2894 207.724 61.4097L207.742 61.3988ZM204.719 111.652C203.385 109.196 201.868 106.904 200.552 104.47C199.236 102.036 198.482 99.4172 200.316 97.2007C202.295 94.8211 204.329 96.7443 205.827 98.385C212.182 105.285 216.013 114.162 219.163 123.506C221.16 129.449 222.431 135.675 222.34 141.152C222.422 146.66 221.886 151.028 220.252 155.146C219.644 156.657 219.108 158.678 217.529 158.406C215.713 158.145 216.067 155.842 216.049 154.331C215.913 138.74 211.764 124.636 204.701 111.663L204.719 111.652ZM224.047 126.983C221.103 118.674 217.621 110.653 213.634 102.992L212.635 101.601C212.39 101.308 211.619 101.243 212.109 100.623C212.408 100.221 212.926 100.526 213.089 101.156L214.179 102.449C217.928 107.566 220.978 113.314 224.165 118.932C225.835 121.865 223.321 124.234 224.029 126.994L224.047 126.983ZM223.557 162.698C223.215 168.303 223.773 173.935 225.2 179.29C218.319 174.726 220.407 169.206 223.539 162.709L223.557 162.698ZM196.721 90.8009C194.597 93.05 194.134 96.2336 193.262 99.276C190.484 92.8327 190.793 92.0504 196.703 90.8118L196.721 90.8009ZM171.129 130.471C168.487 131.503 169.313 133.872 170.221 135.458C174.034 142.369 179.027 147.291 186.381 147.41C193.171 147.562 197.647 143.129 200.906 136.458C201.094 135.95 201.319 135.462 201.578 135.002C202.486 133.676 202.658 131.036 204.392 131.275C206.271 131.557 206.898 133.948 207.461 135.947C212.073 152.169 204.465 169.022 189.54 175.421C185.001 177.366 180.389 178.681 175.532 177.714C174.624 177.518 173.108 177.595 173.081 175.976C173.081 174.53 174.306 174.248 175.35 173.868C181.524 171.695 187.434 168.87 192.273 163.556C195.686 159.808 198.21 155.451 198.736 149.714C198.927 147.649 198.31 146.617 196.648 147.16C193.416 148.247 190.293 149.757 186.862 149.833H186.798L185.763 149.877C182.852 149.896 179.967 149.208 177.284 147.856C177.22 147.813 177.153 147.777 177.084 147.747C174.343 146.401 171.994 144.119 170.33 141.184C167.832 137.977 165.74 134.349 164.12 130.417C163.68 129.3 163.295 128.154 162.967 126.983C162.45 127.762 162.212 128.754 162.305 129.743L161.814 131.851C158.773 123.31 159.527 111.206 164.892 106.98C163.984 116.237 166.662 123.756 171.12 130.525L171.129 130.471ZM171.91 131.438C174.424 133.046 176.739 135.078 179.508 136.11C179.85 136.2 180.166 136.395 180.424 136.678C180.682 136.96 180.874 137.319 180.979 137.718C181.887 141.358 184.447 142.64 187.161 142.705C190.23 142.792 192.608 140.728 194.115 137.403C196.049 133.122 196.185 128.309 197.084 123.745C197.538 121.409 197.665 118.649 200.715 118.008C199.599 124.343 199.136 130.569 197.157 136.327C194.633 143.618 188.986 146.65 182.895 143.705C178.019 141.325 174.07 137.414 171.882 131.438H171.91ZM90.903 217.025C88.016 217.297 85.4559 218.351 82.6325 217.525C82.7596 217.112 82.7868 216.786 82.9049 216.699C84.0397 215.917 85.9915 215.841 85.8826 213.896C85.8009 212.245 83.9307 212.256 82.8141 211.625C81.9062 211.104 80.7533 210.3 79.8636 210.539C74.9794 211.745 73.3907 207.909 71.7656 203.65C69.95 198.88 67.1175 194.751 66.1098 189.438C64.0944 178.746 70.1043 169.38 79.219 169.337C82.3614 169.271 85.4962 169.728 88.5335 170.695C93.0727 172.205 94.7522 175.574 93.6809 181.082C92.6642 186.298 90.0496 190.633 88.0069 195.294C86.8358 198.022 85.5467 200.662 84.3756 203.346C83.8944 204.432 83.2771 205.671 84.0397 206.844C84.419 207.38 84.9224 207.769 85.4863 207.962C86.0502 208.156 86.6493 208.145 87.208 207.931C89.7529 207.424 92.1 205.972 93.917 203.78C96.4771 200.401 99.8452 200.695 103.077 200.064C100.608 203.324 97.2942 204.954 94.3981 207.388C93.3632 208.268 92.2375 209.018 91.2116 209.909C87.7164 212.82 87.7164 213.462 90.903 217.025ZM63.7312 172.357C62.4512 175.128 61.1348 177.888 59.8911 180.702C58.7769 183.486 58.1175 186.499 57.9483 189.579C56.1326 185.472 57.4944 181.028 63.1956 171.781L64.1852 170.423C64.5392 169.728 64.9114 169.043 65.2655 168.348L66.2641 167.066C66.8905 164.893 68.3794 163.426 69.5505 161.742C73.2999 156.309 75.7965 155.69 81.0529 158.906C84.6826 160.995 88.4782 162.644 92.3827 163.828C91.3254 164.588 90.1217 165.007 88.8888 165.045C87.6558 165.083 86.4356 164.739 85.347 164.045C84.2939 163.48 83.1954 163.056 82.1241 162.535C75.8963 159.536 70.8487 161.448 66.8905 167.826L65.8647 169.054L64.739 171.032L63.7312 172.357ZM63.8584 209.3C61.7885 210.028 60.4449 211.995 58.2479 214.342C59.3351 208.701 59.8141 202.917 59.6732 197.131C61.4253 200.966 62.8234 204.085 64.2941 207.17C64.7571 208.127 65.1021 208.855 63.8584 209.278V209.3ZM101.152 190.698C100.553 191.307 99.827 192.437 99.1371 191.611C98.5651 190.959 98.4834 189.601 98.3745 188.525C98.2655 187.45 98.3745 186.656 99.5456 186.428C103.059 185.7 105.474 182.886 107.816 179.909C108.097 179.572 108.343 178.822 108.815 179.387C109.151 179.811 108.933 180.42 108.452 180.735C106.781 184.885 103.967 187.786 101.152 190.677V190.698ZM105.365 205.095C107.181 203.194 109.069 201.314 110.966 199.478C115.564 195.013 119.818 190.064 123.676 184.69C126.109 181.332 128.869 179.257 132.754 180.724C135.832 181.908 136.504 183.538 134.77 186.863C130.567 194.882 124.439 200.217 117.385 204.172C113.881 206.246 110.091 207.539 106.2 207.985C105.746 207.985 104.965 208.061 104.611 207.181C104.257 206.301 104.856 205.595 105.365 205.073V205.095ZM122.214 151.441C121.706 151.083 121.434 150.659 121.888 149.985L122.677 151.007C124.049 154.037 125.23 157.186 126.209 160.427C127.453 163.937 127.498 166.946 124.302 169.913C124.78 163.646 124.066 157.331 122.214 151.441ZM135.66 171.836C139.845 169.282 143.912 166.914 148.324 165.653C150.721 164.958 152.4 163.969 149.277 160.221C160.68 165.045 171.238 169.174 182.767 164.686C182.649 166.229 181.86 166.338 181.17 166.631C176.283 168.928 171.028 169.886 165.791 169.435C162.087 169.087 158.365 168.87 154.661 168.63C152.037 168.457 149.413 168.804 147.443 170.988C143.621 175.215 139.618 172.988 135.632 171.836H135.66ZM169.803 83.5319C170.285 83.4124 170.539 83.2602 170.711 83.3363C177.021 87.1718 177.021 87.1827 170.521 94.4517V94.506L170.466 94.5712C170.481 94.5327 170.499 94.4963 170.521 94.4626C170.248 90.8335 171.338 87.0958 169.776 83.5319H169.803ZM170.757 67.1576C168.877 67.4944 166.753 67.8312 166.217 70.7975C166.172 71.0474 166.018 71.4386 165.863 71.482C160.507 72.9489 156.177 77.4037 150.83 78.8488C150.584 78.914 150.249 78.4903 149.441 77.9579C154.397 74.6982 158.573 70.6236 163.648 68.4397C168.487 66.3535 173.253 64.2782 175.641 57.7698C176.794 61.225 178.964 62.2463 181.006 63.5828C183.848 65.4517 187.143 66.9185 188.051 72.5468C182.713 66.2122 176.803 66.1036 170.729 67.1576H170.757ZM149.795 129.569C150.43 131.123 150.966 132.568 151.61 133.97C152.091 135.056 152.518 136.621 153.789 136.056C154.86 135.599 154.316 134.078 154.198 133.079C153.726 129.515 152.881 126.005 152.591 122.43C151.91 113.955 151.329 105.448 155.55 97.7874C155.604 97.6667 155.665 97.5506 155.732 97.4397C156.83 95.5165 158.174 92.7349 160.117 93.8867C162.259 95.158 160.598 97.983 159.872 99.7758C154.933 112.021 154.788 124.212 160.244 136.175C164.039 144.531 170.639 149.464 177.121 154.408C178.043 154.946 178.891 155.649 179.635 156.494C180.734 158.069 181.015 159.645 178.945 160.742C177.012 161.774 175.014 162.828 172.954 162.731C162.296 162.274 152.282 159.395 144.13 150.431C143.519 149.784 142.958 149.075 142.45 148.312C140.934 145.9 138.229 143.01 139.636 140.424C141.043 137.838 143.694 141.304 145.855 141.608C146.962 141.771 148.26 143.586 148.987 142.336C149.895 140.695 148.36 139.326 147.452 138.185C144.802 134.926 142.314 131.297 139.282 128.515C135.887 125.364 136.313 120.746 135.296 116.563C137.521 119.518 138.864 123.18 140.989 126.222C142.147 127.966 143.508 129.502 145.028 130.786C147.071 132.492 147.834 132.209 149.767 129.569H149.795ZM135.269 160.123C132.319 162.198 130.73 158.526 129.377 156.07C126.263 150.529 122.923 145.107 120.362 139.218C116.295 129.873 109.595 126.82 101.479 126.288C97.5937 126.027 94.3528 124.267 92.4826 119.562C99.3277 123.147 106.609 120.192 113.526 122.039C117.83 123.191 121.343 125.299 123.649 129.906C127.38 137.436 131.275 144.835 134.906 152.419C135.995 154.788 138.12 158.08 135.224 160.123H135.269ZM102.051 128.83C104.579 129.215 107.049 130.027 109.387 131.242C110.158 131.688 111.302 131.872 110.748 133.481H110.794C110.881 133.421 110.972 133.37 111.066 133.328C111.193 133.274 111.348 133.252 111.475 133.209L110.739 133.535C109.232 134.219 110.667 134.915 110.848 135.306C113.272 140.195 115.941 144.944 118.22 149.92C122.487 159.178 122.759 168.652 118.71 178.17C118.318 179.181 117.814 180.124 117.212 180.974C115.85 182.767 114.489 186.07 112.464 184.853C110.83 183.886 112.891 181.158 113.372 179.311C117.802 161.275 111.075 143.27 96.8039 135.339C96.2699 135.072 95.7513 134.764 95.2515 134.415C87.4532 128.309 84.4845 117.954 79.4823 109.424C82.5326 110.913 84.0215 114.194 85.3833 117.161C89.0237 125.038 95.1607 127.505 102.006 128.83H102.051ZM56.3959 63.6371C54.0446 60.4644 53.981 57.6611 56.3414 55.2381C59.5824 51.8807 64.2487 51.772 66.9359 55.325C62.6055 57.1504 55.8875 54.2602 56.3505 63.5828L56.3959 63.6371ZM64.5665 98.8631C65.7921 96.8421 68.1978 99.7975 69.723 101.145C76.0779 106.654 79.9816 114.629 83.6765 122.626C87.3714 130.623 91.4749 138.164 98.202 143.433C101.933 146.367 104.557 151.126 106.808 155.853C108.16 158.629 108.842 161.8 108.778 165.012C108.747 167.682 108.15 170.299 107.044 172.618C106.859 173.131 106.554 173.57 106.166 173.882C105.778 174.194 105.324 174.366 104.856 174.378C103.558 174.313 103.449 172.944 103.422 171.944C103.241 162.481 98.8829 155.646 93.7354 149.127C88.7968 142.89 85.5648 135.404 82.9321 127.505C79.8 118.041 75.5604 109.718 68.0072 104.252C66.3368 103.014 63.35 100.797 64.5483 98.8088L64.5665 98.8631ZM129.096 200.608C134.488 194.903 139.164 188.33 144.529 182.636C149.332 177.529 154.461 174.585 160.87 178.659C162.541 179.746 164.502 180.05 166.317 181.028C163.439 182.039 160.652 180.898 157.938 180.409C150.512 179.061 144.783 182.756 141.597 189.927C138.646 196.403 133.317 197.12 129.078 200.553L129.096 200.608ZM153.68 192.437C157.838 192.209 160.943 195.142 164.765 197.761C153.916 197.761 145.246 203.509 136.359 208.387C136.312 208.534 136.235 208.663 136.136 208.765C136.037 208.867 135.918 208.938 135.79 208.972C135.662 209.005 135.529 209 135.404 208.957C135.278 208.913 135.163 208.834 135.069 208.724L135.977 207.79C140.732 203.582 145.833 199.967 151.202 197C152.899 196.12 154.316 195.066 153.707 192.437H153.68ZM164.202 193.523C161.833 191.35 159.018 189.829 156.431 187.993C155.668 187.46 154.497 187.091 154.86 185.657C155.178 184.429 156.286 184.277 157.184 184.179C161.379 183.744 165.5 184.798 169.658 185.266C179.554 186.493 189.168 185.266 197.075 177.66C202.277 172.662 205.872 165.599 209.295 158.656C209.739 157.743 209.739 156.483 210.938 155.983C210.638 161.198 208.459 165.556 207.025 170.195C205.945 173.716 205.073 176.975 209.64 178.409C206.28 181.102 202.614 183.203 198.755 184.646C200.688 181.495 203.094 180.43 203.72 177.584C202.232 176.964 201.251 178.181 200.162 178.844C193.017 183.19 185.881 187.536 179.354 193.132C174.179 197.511 169.422 198.293 164.157 193.469L164.202 193.523ZM185.355 198.228C191.891 192.219 199.426 188.59 207.143 185.668C217.883 181.637 230.493 189.427 234.378 202.238C234.623 203.042 234.914 203.878 234.469 204.628C233.852 205.66 232.98 205.193 232.263 204.802C230.565 203.867 228.931 202.835 227.279 201.814C221.994 198.538 216.118 196.863 210.166 196.935C203.811 197.076 197.801 199 191.8 201.162C190.239 201.727 188.705 202.39 187.116 202.792C185.954 203.107 184.392 203.987 183.757 202.075C183.149 200.325 184.32 199.097 185.309 198.174L185.355 198.228ZM271.346 137.631L271.536 137.414C271.482 137.49 271.418 137.555 271.364 137.642H271.309C271.313 137.61 271.313 137.577 271.309 137.544C269.566 134.513 266.716 133.198 263.765 131.155C266.434 129.632 269.281 128.602 272.208 128.102C271.028 131.405 272.244 134.567 271.3 137.577L271.346 137.631ZM259.716 121.539C258.14 121.679 256.559 121.364 255.106 120.621C253.652 119.878 252.369 118.729 251.364 117.269C247.028 111.668 243.563 105.184 241.133 98.1242C240.406 95.9511 240.906 94.4082 242.821 95.3535C252.299 100.004 263.066 100.786 271.309 109.055C272.036 109.727 272.728 110.453 273.379 111.228C275.195 113.586 275.004 115.574 272.644 117.28C268.604 120.094 264.174 120.964 259.671 121.485L259.716 121.539ZM238.936 78.3273C240.089 81.1523 241.196 83.8687 242.476 87.0197C237.156 84.5858 236.366 82.5757 238.936 78.3273ZM249.312 126.983C247.497 127.841 245.635 126.418 244.147 128.07C243.239 129.037 242.921 127.711 242.758 127.07C240.869 119.605 238.654 112.282 236.403 104.872C241.568 111.511 244.709 119.736 249.312 126.983ZM280.596 150.029C281.913 151.028 283.32 151.843 285.136 153.017C282.603 154.647 280.197 155.907 279.689 159.536C278.091 155.049 276.429 150.844 276.856 146.052H276.647L276.82 145.965C276.823 145.99 276.823 146.016 276.82 146.041C277.776 147.732 279.075 149.104 280.596 150.029ZM310.673 156.005C311.99 155.146 313.261 156.005 314.159 157.091C318.476 162.133 323.591 166.093 329.202 168.739C330.047 169.141 331.018 169.728 331.063 170.977C331.063 172.52 329.829 172.814 328.912 173.303C327.594 173.88 326.19 174.121 324.79 174.009C319.252 173.585 314.404 171.466 311.036 165.784C310.081 164.204 309.483 162.355 309.302 160.416C309.23 158.689 309.23 156.939 310.673 156.005ZM309.384 145.302C310.374 142.879 311.245 140.739 312.326 138.109C313.424 145.53 313.233 146.074 309.384 145.302ZM335.557 81.9781C337.845 74.3723 336.973 72.3404 330.8 68.5809C331.763 67.2148 332.945 66.0943 334.277 65.2861C335.609 64.4778 337.063 63.9984 338.553 63.8762C341.531 63.485 343.855 66.0493 344.209 69.7761C344.563 73.6551 343.555 77.1755 342.293 80.6416C335.321 99.5694 327.768 118.149 319.734 136.458C319.289 137.544 319.016 138.87 317.482 139.141C316.683 137.034 317.019 134.958 317.482 132.807C319.97 121.887 324.926 112.239 328.549 101.905C330.909 95.2449 333.533 88.7256 335.557 81.9781ZM346.824 109.761C347.949 110.913 349.257 109.902 350.355 109.196C352.879 107.566 355.339 105.817 357.827 104.122L358.607 103.97C358.507 104.22 358.408 104.481 358.317 104.73C355.611 108.164 352.906 111.587 350.201 114.998C347.922 111.206 347.477 111.261 344.372 114.401C336.501 122.343 335.984 133.328 335.748 144.368C335.693 146.617 336.928 148.497 338.135 150.235C339.76 152.571 339.325 154.581 337.282 156.168C335.178 157.931 332.723 158.999 330.165 159.264C325.135 159.688 321.313 154.81 322.248 148.399C323.683 138.5 326.588 129.645 334.205 123.669C337.981 120.703 341.422 115.335 341.304 110.326C341.122 102.297 346.751 101.123 349.629 96.8204C349.865 96.5487 350.101 96.2662 350.346 96.0055L351.018 95.636C350.963 95.962 350.891 96.2662 350.836 96.5922L350.264 97.5266C349.138 100.08 347.94 102.568 346.914 105.187C346.361 106.654 345.543 108.436 346.824 109.761ZM348.639 156.994C345.226 163.991 339.298 166.457 332.616 163.611C338.426 162.339 343.419 159.808 348.676 156.994H348.639ZM341.086 92.4524C339.924 96.6465 338.544 100.743 337.963 105.176C337.582 108.197 334.786 109.381 333.478 111.782C333.17 112.184 333.079 113.249 332.443 112.651C332.044 112.271 332.307 111.478 332.87 111.109C335.067 104.511 337.649 98.1063 340.596 91.9418L341.086 92.4524ZM320.623 158.221C319.007 156.255 315.557 154.788 318.962 151.083C319.561 153.712 320.124 155.994 320.614 158.265L320.623 158.221ZM331.018 179.214C326.214 180.419 321.207 179.451 316.965 176.497L315.857 175.954C316.356 175.269 316.81 175.682 317.282 176.019C321.74 177.877 326.479 177.91 331.018 179.214ZM361.676 166.001C358.625 167.24 355.539 168.337 352.452 169.456C351.372 169.847 349.801 170.412 349.384 169.033C348.748 166.925 350.745 167.218 351.653 166.859C354.177 165.99 356.764 165.349 359.361 164.741C363.115 163.962 366.64 162.047 369.601 159.178L370.328 158.319L371.045 157.58C371.281 157.298 371.526 157.037 371.771 156.755C372.016 156.472 372.189 156.168 372.388 155.864L373.469 154.647L374.168 153.832L374.676 153.278C374.631 153.582 374.576 153.886 374.522 154.179C374.467 154.473 374.168 154.864 374.004 155.201C373.623 155.624 373.251 156.037 372.879 156.472L372.198 157.32C371.98 157.613 371.753 157.906 371.526 158.189L370.845 159.036L370.11 159.808C367.904 163.013 364.88 164.665 361.703 165.947L361.676 166.001ZM371.063 153.136C369.309 155.775 366.899 157.678 364.181 158.569C363.274 158.862 362.23 159.406 361.703 158.145C361.176 156.885 362.166 156.092 362.91 155.483C367.393 151.959 371.091 147.182 373.687 141.565C376.274 135.882 374.93 132.394 369.638 131.036C367.452 130.628 365.226 130.65 363.047 131.101C360.505 131.438 357.954 131.916 355.947 129.156C354.994 127.852 353.868 128.243 352.833 129.156C350.6 131.221 348.648 133.578 347.822 136.914C347.595 137.827 347.749 139.087 346.587 138.968C345.571 138.892 345.344 137.74 345.244 136.795C344.908 133.817 344.826 130.275 346.96 128.7C353.242 123.973 358.671 117.736 365.434 113.879C365.757 113.732 366.088 113.608 366.424 113.51C366.805 112.977 367.241 112.651 367.731 113.249C367.546 113.632 367.333 113.996 367.096 114.336C365.561 117.671 367.786 115.889 368.412 115.596C372.669 113.676 377.251 113.02 381.766 113.684C387.894 114.531 394.086 120.431 395.048 126.722C392.724 126.298 391.063 124.549 389.165 123.463C385.815 121.561 382.393 120.409 378.752 122.028C376.837 122.887 374.84 124.277 376.328 127.189C381.857 138.098 376.21 145.53 371.063 153.136ZM392.533 133.904C395.048 136.686 395.484 139.511 395.92 142.227C397.309 150.92 398.089 159.493 393.078 167.924C393.822 156.537 396.228 145.628 392.533 133.937V133.904ZM396.528 119.779C393.473 115.619 389.597 112.44 385.252 110.533C391.199 111.467 395.838 115.129 400.059 120.018C398.688 121.496 397.663 121.398 396.528 119.866V119.779ZM404.88 88.3344C404.163 91.3985 401.657 91.1377 399.596 90.9747C392.07 90.4206 384.572 89.4753 377.046 91.0943C372.234 92.1808 367.586 93.8324 362.91 95.4405C361.721 95.8642 360.132 96.8638 359.388 95.3209C358.644 93.778 359.915 92.2025 360.904 91.0834C368.055 82.9667 377.47 78.3197 387.322 78.0448C392.561 78.3056 397.445 78.7076 401.666 82.1628C403.509 83.6623 405.615 85.3464 404.88 88.4213V88.3344ZM371.244 76.9582C373.659 74.2962 376.31 72.1231 378.453 69.2546C379.161 68.331 379.715 68.168 380.386 69.2546C381.403 70.8301 382.937 71.5038 384.835 72.5142C379.805 73.7203 375.584 75.5131 371.244 76.9582ZM401.83 39.6135C404.871 41.428 407.594 43.9597 408.829 47.9691C410.318 52.7825 409.801 57.3025 406.805 61.1272C403.092 65.832 398.48 66.2774 393.605 64.6259C389.419 63.2134 386.451 59.5517 383.491 56.0095C379.061 50.718 374.712 45.2962 370.418 39.8634C369.329 38.4943 367.695 37.0275 368.43 34.887C369.165 32.7465 371.154 32.4857 372.879 32.1706C374.264 32.0273 375.657 32.0091 377.046 32.1163C385.643 32.6064 394.07 35.1558 401.83 39.6135ZM368.303 3.89858C371.934 1.38865 375.92 -0.121658 379.805 -1.94706C384.236 -4.00064 388.457 -6.65183 392.842 -8.84666C398.498 -11.6826 404.181 -10.0201 407.603 -4.75036C408.58 -3.36872 409.274 -1.73324 409.629 0.0258732C409.985 1.78499 409.992 3.61914 409.651 5.38231C409.31 7.14549 408.63 8.78898 407.664 10.1819C406.699 11.5749 405.475 12.6788 404.09 13.4059C401.43 14.9271 397.735 15.6876 392.461 15.4377C384.374 14.7255 376.389 12.8354 368.684 9.80941C367.531 9.35306 365.897 9.24441 365.961 7.23429C365.943 5.561 367.241 4.62657 368.303 3.89858ZM363.101 44.4812C368.721 48.6645 373.087 54.3797 376.955 60.7795C378.262 62.9526 378.208 63.8653 375.638 64.3868C372.552 65.0171 370.427 67.9073 368.476 70.6888C363.101 78.2947 356.292 83.9556 349.747 89.9425C348.839 90.7792 347.577 91.8548 346.606 90.9421C345.634 90.0294 346.134 88.3018 346.56 87.0088C347.949 82.7495 349.502 78.5555 350.845 74.2636C352.606 68.6135 353.133 62.9417 350.546 57.346C349.111 54.2711 350.981 53.9342 352.743 54.0863C356.646 54.4884 360.005 56.7158 363.41 58.9324C365.171 60.1058 367.177 62.5723 368.939 60.0189C370.89 57.1504 368.557 54.9665 366.914 53.0215C366.177 52.1325 365.347 51.3619 364.445 50.7289C361.376 48.6101 357.309 47.8713 357.182 42.1234C359.352 41.6453 361.258 43.0905 363.101 44.4812ZM336.774 26.8683C338.072 23.7173 339.924 24.63 342.021 24.8255C345.734 25.1515 349.284 23.3587 353.088 23.3587C350.001 25.7926 346.733 27.7049 343.837 30.5408C342.23 32.1163 340.568 33.6375 339.606 35.9735C339.089 37.2231 338.408 38.9181 337.128 38.2227C335.848 37.5273 334.177 36.3864 334.232 34.0612C334.259 31.2362 335.766 29.1935 336.737 26.8465L336.774 26.8683ZM331.018 63.5719C333.86 58.8346 341.467 57.4003 344.826 61.4966C339.661 57.8893 335.612 62.757 331.018 63.5719ZM331.336 86.5742C330.555 91.6375 328.521 96.125 326.742 100.699C322.965 110.381 319.016 119.953 315.149 129.58C314.704 130.666 314.604 131.612 312.997 131.145C311.045 130.59 309.983 132.926 309.021 134.589C304.945 141.586 298.98 143.596 292.335 143.846C291.058 143.868 289.787 143.614 288.585 143.097C285.381 141.782 282.403 139.75 282.231 135.219C282.094 130.971 284.909 129.037 287.796 127.613C293.196 125.066 298.765 123.067 304.445 121.637C306.815 120.996 309.311 120.757 311.336 123.158C312.534 124.56 313.814 123.962 314.686 122.702C317.473 118.66 320.387 114.672 320.233 108.925C320.173 108.396 320.259 107.857 320.478 107.393C325.044 101.167 328.004 93.7672 331.354 86.5742H331.336ZM299.389 111.489C299.843 112.847 300.959 113.119 302.003 113.151C304.781 113.249 307.559 113.151 310.401 113.434C303.677 117.06 296.559 119.532 289.257 120.779C291.69 118.53 293.442 117.15 294.94 115.455C297.373 112.749 296.956 110.641 293.787 109.544C290.891 108.555 287.932 107.838 284.945 106.665C292.498 106.404 299.697 104.654 306.216 99.9496L307.015 99.7867C306.906 100.026 306.779 100.265 306.67 100.515C305.017 103.448 302.494 105.295 300.496 107.795C299.616 108.838 298.908 109.957 299.407 111.489H299.389ZM309.439 63.7458C312.289 64.0283 315.14 65.3647 318.708 62.9091C316.266 67.0272 312.807 66.8968 309.439 63.7458ZM302.53 7.92968C307.75 6.48457 311.926 2.69251 316.347 -0.578011C318.051 -2.02878 320.006 -3.00177 322.067 -3.42477C324.155 -3.67468 325.371 -2.51207 325.471 0.193439C325.222 3.08541 324.254 5.82164 322.693 8.0492C318.571 14.5685 314.386 21.0878 310.056 27.3681C307.732 30.7472 305.952 30.2583 304.609 26.0859C303.211 21.6745 302.022 17.1762 300.66 12.754C299.915 10.2875 300.46 8.51642 302.548 7.92968H302.53ZM303.964 54.6514C303.565 49.1208 303.247 44.5138 302.884 39.3419C305.48 43.612 305.48 43.612 303.982 54.684L303.964 54.6514ZM292.671 17.9477C295.521 20.1208 296.983 23.576 298.209 27.2485C300.442 33.8982 301.15 40.9608 301.45 47.9582C301.94 59.1823 305.263 67.201 315.276 69.3633C315.458 69.3633 315.603 69.7001 316.011 70.1347C309.747 73.3292 302.702 69.9391 299.579 62.3876C298.409 59.3844 297.64 56.1799 297.301 52.8911C296.204 44.6792 293.912 36.7613 290.528 29.4977C289.33 26.9456 288.55 24.1426 288.231 21.2399C288.113 19.8709 287.968 18.4258 289.139 17.4479C290.401 16.3396 291.627 17.1545 292.671 17.9477ZM284.373 25.4123C286.093 32.35 288.725 38.9154 292.171 44.8615C293.433 46.926 292.171 48.8818 292.498 50.881C294.995 65.6364 299.579 75.5675 316.42 76.1325C318.971 76.2194 321.54 75.9586 324.082 76.2411C327.241 76.5888 328.558 78.8597 327.931 82.5866C327.403 85.8934 326.04 88.9271 324.028 91.279C323.492 91.92 322.947 92.9414 321.985 92.3655C321.25 91.92 321.286 90.953 321.386 90.1924C321.931 85.8462 319.87 83.8361 316.683 82.9125C314.867 82.391 313.106 81.6521 311.281 81.337C299.825 79.2509 292.734 71.645 289.866 58.0631C288.522 51.7177 287.224 45.3831 284.664 39.3201C283.084 35.5824 284.373 30.117 284.373 25.4123ZM272.798 16.4808C274.361 25.5774 274.75 34.9069 273.951 44.1444C274.577 34.9087 270.392 26.0859 272.798 16.4808ZM253.851 10.6787C252.547 11.2612 251.217 11.7546 249.866 12.1564C246.988 12.8952 245.1 10.9503 245.172 7.47333C245.345 0.334694 252.989 -6.97779 258.681 -5.43489C262.313 -4.457 268.667 5.02859 268.804 9.50518C268.876 12.6344 267.85 13.5797 265.826 11.8956C261.968 8.72286 257.991 9.00537 253.851 10.6787ZM264.909 25.2276C268.477 30.7581 268.468 37.2448 264.854 47.2628C265.363 40.0481 265.735 32.8334 264.918 25.2276H264.909ZM268.831 76.5345C273.07 74.959 276.82 72.1231 280.733 69.7109C284.101 67.6356 286.697 67.9725 289.312 71.5364C292.335 75.6652 295.54 79.6529 299.852 82.4996C297.882 83.358 296.556 82.2606 295.313 81.4131C293.547 80.35 291.899 79.0249 290.41 77.4689C285.935 72.2969 281.132 72.1883 275.812 75.3827C272.403 77.4491 268.714 78.7735 264.918 79.2943C261.877 79.6964 260.642 78.6967 259.834 74.9481C262.667 78.8814 265.78 77.6536 268.84 76.5345H268.831ZM261.16 63.0178C260.896 66.8316 258.817 68.4505 257.628 70.7432C256.13 73.6117 253.452 76.2737 255.231 80.0332C257.011 83.7926 260.597 83.4449 263.665 83.2928C268.086 83.0212 272.281 81.2936 276.466 79.6746C280.324 78.1752 284.01 78.3382 287.414 81.2392C291.812 85.1473 296.904 87.7873 302.294 88.9538C303.365 89.1819 304.7 89.334 304.945 91.1269C305.19 92.9197 304.037 93.6042 303.129 94.3865C296.992 99.5585 290.002 100.808 282.857 99.4064C273.969 97.657 265.163 95.2014 256.357 92.8871C251.818 91.7027 247.778 89.3775 245.227 84.4011C242.812 79.6637 243.239 75.5892 246.961 72.3187C251.38 68.5713 256.148 65.4502 261.169 63.0178H261.16ZM205.917 46.2632C213.353 53.0976 221.351 59.1388 230.266 62.9635C231.549 63.5975 232.89 64.0533 234.26 64.3217C235.449 64.4846 237.274 65.8646 237.474 62.5506C237.538 61.6053 239.09 62.0073 239.989 62.2355C243.349 63.1401 246.802 63.4512 250.238 63.159C246.271 66.4839 241.823 66.9076 239.344 71.2538C238.609 72.5686 237.973 70.9931 237.429 70.515C234.896 68.2767 232.245 67.038 228.986 68.0159C226.335 68.8091 223.965 67.1901 221.668 65.9189C216.499 63.0744 211.564 59.6587 206.925 55.7162C196.539 46.7521 185.609 46.926 174.143 51.8263C169.604 53.7712 165.582 56.7919 161.433 59.5517C160.416 60.2362 159.154 61.7248 158.029 60.2036C156.903 58.6825 158.083 57.2699 158.746 56.053C163.067 47.9799 169.849 44.1009 177.057 41.1347C187.416 36.8754 196.93 37.9619 205.917 46.2632ZM177.593 32.2141C178.237 34.6154 180.525 33.833 182.132 34.0286C184.202 34.3003 186.29 34.3655 188.414 34.8327C181.95 35.7454 175.804 38.0923 169.25 40.7326C170.158 38.0923 173.099 37.5273 172.173 35.126C171.065 32.2358 168.224 34.2133 165.609 33.2028C170.464 30.2962 175.607 28.1385 180.915 26.7813C180.732 27.3189 180.498 27.8294 180.216 28.3025C179.245 29.5738 177.012 30.1822 177.593 32.2141ZM158.664 26.1837C163.66 18.5097 169.715 11.9137 176.567 6.68015C179.097 4.6673 182.046 3.5385 185.082 3.42049C186.653 3.32609 188.221 3.64715 189.675 4.36081C191.13 5.07446 192.435 6.16316 193.498 7.54939C195.922 10.7004 195.504 14.4272 192.472 16.709C191.097 17.7267 189.633 18.5611 188.106 19.1972C179.142 22.9349 170.173 26.6111 161.197 30.2257C159.962 30.7255 158.392 31.975 157.411 30.1496C156.567 28.6828 157.874 27.3246 158.628 26.1837H158.664ZM142.868 45.2853C144.802 52.5652 140.008 56.6506 139.409 62.0399C139.981 56.3059 141.143 50.6784 142.868 45.2853ZM133.835 88.0193C136.876 78.5989 140.044 69.2437 143.24 59.8885C144.12 57.1557 145.497 54.6914 147.271 52.6738C148.106 51.7503 149.087 50.2726 150.23 51.0875C151.501 52.0436 150.494 53.7061 150.058 54.8469C147.416 61.6417 145.465 68.7917 144.248 76.1433C143.603 80.2288 143.022 84.3576 143.921 88.5191C144.202 89.8447 144.366 91.7136 145.137 92.2895C147.988 94.3974 147.362 97.2224 146.953 100.286C146.299 105.35 145.846 110.467 145.31 115.563C145.137 117.117 144.865 118.704 143.449 119.258C142.033 119.812 141.234 118.312 140.725 117.28C137.167 110.663 133.653 103.981 132.119 96.2228C132.543 93.4469 133.116 90.7067 133.835 88.0193ZM107.598 11.6457C106.109 8.10353 104.757 4.17022 107.716 0.899698C110.676 -2.37082 114.116 -1.88187 117.503 -0.0781956C122.832 2.73597 124.611 8.2991 125.165 14.6554C125.474 18.3714 125.546 22.1309 125.719 25.8578C125.843 29.601 125.658 33.3498 125.165 37.0492C124.974 38.2336 124.711 39.6352 123.603 40.0916C122.26 40.6348 121.733 39.1571 121.252 38.1792C116.831 29.2695 111.52 20.9466 107.598 11.6457ZM115.17 73.5791C117.394 67.364 119.554 61.1272 119.609 53.6626C121.833 61.866 120.462 68.494 115.696 74.1441L114.298 76.1542C114.177 75.6672 114.197 75.1453 114.355 74.6738C114.514 74.2022 114.801 73.8087 115.17 73.5573V73.5791ZM111.139 109.609C116.123 111.337 121.343 112.293 125.937 115.39C127.244 116.259 129.504 117.019 126.844 119.605C125.773 120.692 126.418 122.865 126.844 124.386C127.843 128.08 128.996 131.71 130.085 135.371C130.548 135.773 130.83 136.24 130.385 136.914C130.104 136.577 129.831 136.23 129.568 135.893C128.718 134.576 127.941 133.193 127.244 131.753C123.876 123.745 118.692 119.192 110.903 119.334C113.018 118.53 115.079 118.921 117.13 118.975C117.993 118.975 119.246 119.714 119.6 118.399C120.017 116.889 118.61 116.433 117.784 115.824C115.242 113.977 112.119 113.282 110.14 110.391C110.167 109.381 110.857 109.49 111.139 109.587V109.609ZM107.435 91.4094C108.243 90.8009 109.25 90.1164 109.995 90.9095C110.975 91.8983 109.922 92.9957 109.486 93.7998C107.825 96.8095 106.009 99.6997 104.285 102.655C102.75 105.263 101.307 107.958 100.889 111.206C100.571 113.727 99.3459 114.803 97.4757 114.618C93.454 114.618 86.6906 108.544 85.4377 104.176C84.8658 102.199 85.4377 101.08 87.0446 101.058C94.8611 100.862 101.125 96.1141 107.435 91.3876V91.4094ZM99.2097 74.557C99.0372 74.8829 98.8647 75.2089 98.6832 75.5349C98.5016 75.8608 98.3109 76.2302 98.1203 76.6214C94.4889 81.9672 90.1404 86.0961 84.3392 87.7042C83.6493 86.0092 84.5208 84.8466 84.9021 83.6297C85.3833 82.1085 85.347 79.8159 87.8435 81.8477C89.3959 83.1081 91.3932 81.3262 92.9637 80.1744C94.5343 79.0227 96.1684 77.5015 97.7571 76.1651C98.0023 75.8934 98.2474 75.6435 98.4834 75.3719C98.5561 74.8829 98.7104 74.4918 99.2097 74.6113V74.557ZM87.8344 26.2272V26.4662C89.2746 26.4437 90.7017 26.7942 92.018 27.4937C93.3343 28.1933 94.5086 29.2253 95.4603 30.5191C98.429 34.5828 101.561 38.5052 103.377 43.5577C103.722 44.5138 104.493 45.4265 103.74 46.8717C100.226 37.9511 94.1984 32.0294 87.8344 26.4662H87.7891L87.8344 26.2272ZM75.2699 16.7199C83.2443 23.9555 90.6333 32.0714 97.3395 40.9608C104.039 50.0226 103.449 63.9088 96.4317 71.0474C95.2969 72.1991 94.1803 73.2205 92.6914 72.4817C91.366 71.8514 91.5929 70.2108 91.484 68.8526C91.0664 64.0935 90.0587 59.5517 91.9651 54.5862C93.3541 50.9462 91.1662 46.9803 89.3324 43.7859C81.5522 30.1714 72.6644 18.0237 58.6655 13.2972C58.4445 13.2208 58.2336 13.1074 58.0391 12.9604C56.9134 12.1455 54.7799 12.0368 55.1431 10.0811C55.4608 8.41863 57.3854 9.47258 58.4748 9.17921C64.5877 9.56686 70.4522 12.1999 75.2699 16.7199ZM26.4099 5.63706C25.0935 6.1912 23.4412 6.8214 22.5334 5.26763C21.5166 3.51829 22.724 1.83413 23.65 0.497675C26.6096 -3.7942 30.7675 -5.22845 35.1252 -5.39143C42.686 -5.56629 50.1864 -3.74866 57.0949 -0.0673313C57.685 0.226038 58.4113 0.519405 58.4839 1.62769C57.2947 2.94241 55.8512 2.19269 54.553 2.11663C45.0479 1.48643 35.5609 1.80154 26.4099 5.63706ZM40.7084 5.30023C38.6294 9.50518 36.0875 7.11477 32.9736 6.77794C35.3841 5.42316 38.0653 4.91092 40.7084 5.30023ZM16.9048 148.573C8.07147 152.821 -2.48673 145.976 -5.90929 133.828C-6.61979 131.029 -7.06143 128.142 -7.22566 125.223C-9.09582 101.949 -6.12717 80.0658 5.56583 60.6056C11.1037 51.3917 18.2756 44.4486 26.3826 38.7768C31.0036 35.5172 35.6971 32.4314 38.7656 26.8248C39.1282 26.2806 39.4588 25.7069 39.7551 25.108C40.3816 23.5325 41.7615 21.9353 40.7629 20.1534C39.7642 18.3714 38.1846 20.3164 36.5414 19.8817C39.4737 12.3737 39.4556 12.4171 45.6198 15.2748C47.1495 15.91 48.7149 16.4147 50.3043 16.7851C51.7568 17.2197 53.2457 17.5239 55.134 17.9911C53.5634 18.73 52.2924 19.1863 51.1304 19.8817C48.2616 21.6637 47.8349 23.7064 49.5871 26.8357C51.3392 29.9649 50.4949 33.6701 47.3356 35.3651C43.3397 37.5924 39.2419 39.5477 35.0616 41.2216C16.0423 48.5341 6.82773 65.7016 2.3793 87.6064C-0.144495 99.9062 0.173248 112.021 4.13144 124.006C6.74602 131.905 10.795 137.925 17.2044 141.608C18.6932 142.466 20.4998 143.379 20.3546 145.574C20.1821 147.562 18.2302 147.932 16.9048 148.573ZM22.5969 163.198C24.0495 162.111 25.611 161.112 27.1361 159.992C33.6635 155.049 39.9549 149.801 43.1959 140.913C45.4019 134.85 44.2853 133.133 38.7474 133.796C35.8785 134.31 32.9864 134.619 30.0866 134.719C19.8825 134.448 15.3524 127.831 17.05 115.737C17.8035 110.413 19.7735 105.741 21.5892 100.938C22.0072 100.113 22.354 99.2397 22.6242 98.3307C22.8148 97.3093 23.4866 96.0381 22.6242 95.2123C21.8797 94.5278 21.099 95.5165 20.4 95.9185C15.9879 98.4719 12.7015 102.992 8.44369 105.86C7.40875 106.556 7.39967 107.925 7.25441 109.174C6.7551 113.445 7.63571 117.454 8.77959 121.42C9.17904 122.832 10.0778 124.093 9.68743 126.157C1.3716 110.946 2.85138 89.9099 9.73282 74.9481C9.83701 75.3404 9.90698 75.7446 9.94162 76.1542C9.94162 78.3925 8.48908 81.424 10.568 82.6083C12.647 83.7926 13.7364 80.4352 15.3705 79.3486C16.4418 78.6207 17.05 76.9691 18.8385 77.1755C18.8385 79.3486 17.0954 80.7068 16.8775 82.7061C16.7868 83.5101 16.5144 84.5315 17.2407 84.9661C17.5186 85.0373 17.8058 85.0384 18.0841 84.9691C18.3623 84.8999 18.6255 84.762 18.8566 84.5641C20.7722 82.9886 22.6333 81.3044 24.5125 79.6746C30.1229 74.7525 38.8473 75.6001 43.6498 81.6087C46.3733 84.9444 46.8363 88.9429 45.7923 93.2456C43.5136 102.59 39.2195 110.63 34.6894 118.627C33.9268 119.953 31.9659 121.355 33.2732 123.158C34.4352 124.745 36.3598 124.006 37.8124 123.039C40.6448 121.148 43.323 118.921 46.1917 117.139C49.0605 115.357 52.0836 112.369 55.1703 115.281C58.257 118.193 56.9315 122.463 56.178 126.146C52.583 143.586 44.6666 156.896 30.5224 164.197C28.305 165.424 25.9502 166.259 23.532 166.675C22.6242 166.794 21.4712 167.359 21.0354 166.055C20.5997 164.752 21.7526 163.861 22.5788 163.198H22.5969ZM28.3617 177.714C27.926 178.029 27.4539 178.323 27.0454 178.616L25.7108 179.496L24.2855 180.322C17.8469 184.112 11.1192 187.154 4.19499 189.405C2.74405 189.886 1.26215 190.22 -0.235279 190.405C-1.69691 190.611 -3.11314 190.133 -3.64877 188.232C-4.18439 186.33 -3.11314 185.07 -1.96018 184.103C0.699797 181.93 3.90448 181.56 6.90943 180.724C13.3422 179.052 19.6061 176.557 25.5928 173.281L32.0566 169.5C33.5909 168.261 35.1342 167.044 36.6685 165.827C51.6933 154.853 58.8561 137.925 62.0245 117.899C62.4902 115.156 62.3748 112.318 61.6886 109.642C61.3345 108.294 60.3632 106.969 59.4553 107.697C56.1962 110.283 53.6905 106.034 50.6311 106.61C49.4327 106.849 49.2239 105.143 49.7233 103.763C50.8503 100.983 52.719 98.7315 55.0341 97.3637C55.1961 97.2195 55.3815 97.1174 55.5783 97.0637C55.7751 97.0101 55.9791 97.0062 56.1773 97.0522C56.3755 97.0982 56.5635 97.1931 56.7293 97.3309C56.8951 97.4687 57.0351 97.6464 57.1403 97.8526C59.6187 101.656 63.0413 104.024 66.5728 106.654C64.7571 108.175 64.63 110.304 64.3486 112.532C62.2605 129.449 58.4204 145.606 48.9153 159.004C46.412 162.657 43.4063 165.773 40.0275 168.218L28.3617 177.714ZM23.6046 186.678C17.9125 187.308 11.3488 196.001 10.5317 202.824C8.90669 216.439 11.5667 229.575 13.8817 242.755C15.5702 252.447 18.0486 261.607 24.7758 268.137C27.4993 270.755 30.3408 273.124 33.137 275.612C34.3898 276.699 35.5791 278.177 35.1705 280.121C34.6712 282.381 32.8102 283.001 31.0853 283.435C19.483 286.304 6.76418 278.589 1.5804 265.594C-0.825661 259.987 -1.61103 253.582 -0.652887 247.384C1.05385 237.138 1.53501 226.739 2.67889 216.374C4.03158 204.085 8.77958 195.142 17.5493 188.243C22.6423 184.222 27.6264 180.039 32.9826 176.617L23.6046 186.678ZM42.0611 297.778C41.4247 298.949 40.5289 299.886 39.4737 300.483C27.1725 307.285 14.8894 308.165 2.75152 300.027C0.0785713 298.264 -2.07661 295.559 -3.42181 292.28C-3.81589 291.499 -4.01659 290.601 -4.00051 289.689C-3.98444 288.777 -3.75226 287.89 -3.33102 287.13C-2.32332 285.402 -0.779985 286.13 0.50915 286.554C6.30118 288.542 11.8299 291.519 17.8126 292.845C24.0024 294.107 30.2968 294.472 36.5595 293.932C38.2853 293.7 39.9701 293.146 41.5527 292.291C42.5785 291.802 43.8768 291.204 43.8768 289.542C43.8768 287.879 42.2699 288.238 41.5345 287.26C42.9417 285.261 45.2657 283.609 43.6316 280.328L43.795 280.23L43.6952 280.415C45.5109 279.393 45.7197 281.501 46.5095 282.458C48.7791 285.196 50.2589 289.27 54.3442 288.836C55.5334 288.716 55.3973 289.922 54.9797 290.433C53.9175 291.693 53.6724 293.997 51.7568 294.127C51.7618 294.152 51.7618 294.178 51.7568 294.203C51.7289 294.171 51.6945 294.149 51.657 294.138H51.7477C51.5662 291.302 50.4041 290.509 48.3343 291.965C46.0828 293.616 43.6135 294.877 42.0883 297.778H42.0611ZM54.8707 273.646C57.7486 273.982 58.5021 277.003 60.4085 279.459C56.296 279.904 56.9134 275.08 54.8979 273.646H54.8707ZM62.9233 297.202C62.9868 306.362 54.8253 315.739 47.1994 315.282C45.6652 315.184 44.0946 314.913 43.323 313.022C42.5513 311.132 43.5681 309.545 44.4668 308.111C46.6094 304.732 49.696 302.613 52.2107 299.745C54.1444 297.571 55.9783 295.214 57.803 292.878C58.7109 291.693 59.5098 289.803 61.1076 290.487C62.5238 291.085 62.7871 292.997 62.9233 294.703C62.9959 295.474 62.9505 296.365 62.9505 297.202H62.9233ZM89.0873 275.091C87.6166 276.297 86.4908 275.71 86.4273 273.689C86.282 267.278 83.0683 264.584 78.3657 263.041C74.008 261.607 69.7865 259.597 65.5015 257.88C64.5211 257.499 63.2955 256.924 62.6872 258.304C62.1607 259.488 63.3046 260.205 63.9128 260.998C67.1258 265.023 69.7553 269.661 71.693 274.721C72.3014 276.369 72.7551 278.093 73.0457 279.861C73.4361 282.197 73.8083 285.054 71.8837 286.38C69.7775 287.814 68.107 285.576 66.9995 283.696C59.9819 271.896 50.2952 264.203 39.7098 257.815C37.7634 256.71 36.038 255.117 34.6503 253.145C33.2626 251.173 32.245 248.868 31.6663 246.384C29.2786 236.605 27.0454 226.826 27.3177 216.569C27.2809 215.738 27.3083 214.906 27.3994 214.081C27.8261 211.984 27.5991 209.148 29.8506 208.583C32.102 208.018 32.3018 210.886 32.9282 212.375C36.3053 220.383 40.781 227.456 45.3656 234.454C50.5894 242.569 57.9028 248.396 66.1733 251.034C67.4716 251.458 69.5142 252.816 69.7048 249.318C69.7956 247.894 70.6672 248.525 71.23 248.698C75.8872 250.176 80.5263 250.991 85.2471 248.927C86.7269 248.286 86.8177 249.872 86.4727 250.871C85.0655 254.957 84.1849 258.792 87.9161 261.987C89.2658 263.199 90.8223 264.04 92.4748 264.45C94.1272 264.859 95.8348 264.827 97.4757 264.356C98.0436 264.297 98.6146 264.297 99.1825 264.356C96.3176 268.544 92.9201 272.166 89.1145 275.091H89.0873ZM117.13 304.275C116.704 309.198 114.135 311.295 110.095 310.284C103.867 308.709 98.5016 300.016 98.2928 289.346C98.7649 281.056 102.832 272.722 107.943 265.051C109.659 262.454 110.521 265.323 110.866 266.876C112.183 272.776 113.345 278.709 114.498 284.663C115.406 289.248 116.232 293.845 116.94 298.484C117.23 300.394 117.304 302.342 117.158 304.275H117.13ZM115.315 239.669C114.843 244.015 112.51 239.8 111.003 240.756C109.959 241.429 110.567 238.974 110.812 238.018C111.72 234.323 114.216 232.052 116.813 230.238C127.407 222.752 138.129 215.548 148.687 208.029C151.792 205.856 153.226 208.398 155.877 210.55C148.678 210.397 143.385 214.135 138.065 217.699C132.745 221.263 127.398 225.012 122.087 228.695C118.583 231.183 115.959 234.486 115.387 239.669H115.315ZM160.153 308.991C162.25 310.48 164.311 312.066 166.326 313.696C166.926 314.196 167.824 314.848 167.289 316.032C166.898 316.89 166.063 316.608 165.609 316.716C159.901 315.614 154.454 313.07 149.631 309.252C135.65 298.473 128.306 282.957 127.326 263.204C127.117 258.955 127.453 254.511 129.432 250.709C129.904 249.818 130.412 248.535 131.511 248.905C132.337 249.22 132.282 250.556 132.301 251.48C132.455 257.163 132.573 262.845 133.726 268.419C137.575 286.652 146.989 299.592 160.226 308.991H160.153ZM137.63 268.919C137.552 267.378 137.552 265.832 137.63 264.29C137.829 262.269 137.784 259.488 139.59 258.955C141.143 258.488 141.642 261.205 142.378 262.628C143.63 264.997 146.009 266.42 146.735 270.103C140.081 264.758 139.754 264.725 137.702 268.919H137.63ZM163.639 249.611C163.203 249.372 163.349 248.981 163.594 248.633L182.286 229.749C180.58 239.669 179.191 249.307 177.466 258.879C176.158 266.138 171.174 269.745 165.5 270.332C160.816 270.875 156.032 269.43 152.945 264.225C147.307 260.824 144.702 254.805 143.176 247.927C142.695 245.754 143.285 243.45 140.934 241.56C139.627 240.473 140.535 236.127 140.743 233.519C140.88 231.9 143.721 232.704 145.373 233.617C147.189 234.704 147.816 232.661 148.533 231.444C149.441 229.879 150.757 228.097 149.849 226.196C149.159 224.707 147.507 225.283 146.299 225.761C133.154 230.912 124.448 239.3 122.178 257.608C121.897 259.781 121.597 261.954 121.361 264.193C121.252 265.279 120.989 266.246 120.063 266.366C118.964 266.518 118.901 265.279 118.692 264.366C117.239 258.369 117.73 252.306 118.202 246.199C118.91 236.855 123.022 230.651 129.759 226.37C135.378 222.806 140.653 218.46 146.826 216.221C152.8 214.048 154.089 215.287 154.652 222.523C154.96 226.392 153.181 229.564 152.772 233.15H152.927H152.763H152.7C151.647 234.921 150.121 236.138 149.068 238.018C146.717 242.168 145.319 246.46 147.443 251.121C149.876 256.445 153.608 260.14 158.837 260.77C159.898 260.85 160.961 260.653 161.952 260.191C162.943 259.729 163.838 259.015 164.574 258.097C165.061 257.521 165.43 256.818 165.653 256.043C165.876 255.267 165.946 254.441 165.858 253.629C165.77 252.816 165.527 252.038 165.146 251.356C164.766 250.675 164.26 250.107 163.666 249.698L163.639 249.611ZM181.024 209.756C181.88 209.567 182.721 209.294 183.539 208.942C187.361 207.257 191.183 206.062 195.032 204.443C198.609 202.933 202.222 201.336 206.208 201.857C199.599 203.791 194.488 210.115 187.143 210.3C183.512 210.387 180.044 212.766 177.093 215.624C175.723 216.96 174.37 218.536 175.568 220.915C176.903 223.512 175.822 225.435 174.461 227.239C169.561 233.768 163.718 239.186 157.212 243.233C156.304 243.809 155.469 244.135 154.661 243.233C153.853 242.331 153.943 240.94 154.288 239.734C155.351 236.018 157.312 232.867 158.982 229.564C162.441 222.643 164.057 215.7 160.662 207.942C159.191 204.606 160.716 202.509 163.857 203.074C166.998 203.639 168.623 206.16 169.958 209.257C170.539 210.637 170.82 213.288 172.454 212.516L181.024 209.756ZM189.921 261.139C188.805 259.836 189.395 258.054 189.476 256.413C190.121 242.483 197.03 232.922 204.982 224.023C208.024 220.622 210.983 217.112 213.807 213.462C215.314 211.506 217.166 211.223 218.482 210.865C226.389 210.691 236.049 221.317 236.457 230.108C236.612 233.367 235.313 236.551 232.481 236.279C220.452 235.193 213.135 244.895 204.955 252.686C201.569 255.891 198.155 259.01 194.17 261.031C192.881 261.715 191.301 262.671 189.994 261.139H189.921ZM212.073 259.52C206.672 265.196 200.73 270.087 194.37 274.091C193.789 272.613 194.46 270.136 192.091 270.093C199.054 266.768 205.345 262.552 212.145 259.52H212.073ZM201.369 287.032C199.181 287.439 196.942 287.162 194.869 286.228C193.362 285.424 192.745 284.381 194.197 282.479C196.328 279.914 198.778 277.758 201.46 276.09C213.262 268.039 224.583 259.01 237.61 253.849C239.207 253.023 240.759 252.079 242.258 251.024C245.254 249.307 245.99 249.937 245.844 253.838C245.844 254.924 245.045 255.859 245.726 257.293C250.556 253.74 253.897 249.09 254.287 242.081C254.432 239.745 253.879 237.159 257.065 237.518C257.973 237.626 258.118 235.649 259.344 235.986C260.252 237.746 259.18 239.245 258.645 240.593C256.729 245.493 254.541 250.241 252.662 255.163C251.691 257.706 249.176 259.966 251.291 263.454C251.854 264.366 250.501 264.931 249.884 265.388C247.242 267.387 244.546 269.299 241.868 271.233C241.459 271.57 240.815 271.82 240.642 271.342C240.388 270.582 241.142 270.842 241.459 270.679C243.094 267.887 245.872 266.192 247.052 262.813C245.608 261.9 244.646 262.878 243.738 263.617C240.76 266.051 237.813 268.521 234.896 271.027C224.9 279.719 213.952 285.695 201.442 287.032H201.369ZM260.842 278.024C251.527 281.023 243.239 287.369 233.779 289.813C230.275 290.726 226.752 291.585 223.221 292.28C222.177 292.476 220.588 292.975 220.18 291.291C219.853 289.868 221.351 289.357 222.186 288.792C230.783 283.044 239.435 277.372 248.059 271.646C251.509 269.375 254.777 266.637 258.563 265.214C262.503 263.725 264.41 265.453 264.464 270.266C264.401 273.58 264.001 277.003 260.914 278.024H260.842ZM264.618 246.786C263.938 247.481 263.13 248.568 262.204 247.873C261.278 247.177 261.623 245.765 261.895 244.776C263.62 238.887 265.426 233.03 267.233 227.185C267.632 225.892 268.141 224.653 268.64 223.393C273.624 209.735 286.053 205.91 296.148 214.939C299.934 218.318 299.997 220.057 296.366 223.556C295.15 224.864 293.653 225.74 292.044 226.087C289.938 226.152 288.649 224.903 287.278 223.914C282.385 220.296 279.289 220.839 276.012 226.5C273.434 230.922 271.246 235.682 268.894 240.289C267.801 242.716 266.381 244.911 264.691 246.786H264.618ZM268.023 249.416C270.32 244.504 272.335 240.169 274.378 235.823L275.05 236.225C273.878 240.31 272.725 244.396 271.5 248.47C270.964 250.437 269.621 249.22 268.095 249.416H268.023ZM275.485 286.358C275.485 286.358 275.485 286.358 275.44 286.293C275.444 286.272 275.444 286.249 275.44 286.228C275.401 286.165 275.364 286.1 275.331 286.032C274.305 284.033 271.327 286.217 271.046 283.761C270.637 280.024 270.274 276.156 271.218 272.266C271.836 277.307 275.222 281.067 275.44 286.228H275.485C275.552 286.238 275.619 286.238 275.685 286.228L275.485 286.358ZM333.796 202.509L331.309 204.563C321.322 212.266 311.971 221.057 304.727 232.465C299.806 240.202 297.392 249.698 293.215 258.01C292.688 259.233 292.065 260.394 291.354 261.476C291.745 255.935 294.613 251.469 295.948 246.504C295.303 245.667 294.895 246.08 294.641 246.504C288.504 256.652 284.092 267.474 285.517 280.523C285.653 281.773 285.726 283.023 285.789 284.283C285.853 285.543 286.18 287.01 284.954 287.543C283.729 288.075 282.993 286.934 282.231 286.076C279.069 282.332 276.924 277.534 276.075 272.309C274.459 262.704 274.423 253.208 277.891 244.059C279.707 239.213 281.032 238.909 284.881 241.418C289.648 244.548 293.415 243.798 296.929 239.18C306.325 226.902 315.358 214.124 327.65 205.649C328.649 204.965 329.674 204.367 330.7 203.715L333.26 201.727L340.296 197.554L333.796 202.509ZM317.918 250.176C319.271 249.883 320.641 249.47 321.976 249.09C322.067 249.318 322.148 249.557 322.239 249.785C318.78 251.274 315.34 252.903 311.835 254.229C308.576 255.457 307.559 253.99 307.859 249.883C308.385 242.809 312.307 239.561 317.537 237.007C316.511 239.854 314.759 241.907 314.032 244.613C312.861 249.329 314.032 251.089 318 250.23L317.918 250.176ZM320.124 223.762C319.743 224.208 319.334 225.033 318.771 224.381C318.648 224.236 318.555 224.059 318.499 223.863C318.444 223.667 318.427 223.459 318.451 223.254C318.475 223.049 318.538 222.854 318.636 222.683C318.735 222.513 318.865 222.373 319.016 222.273C320.995 220.405 322.993 218.59 324.972 216.754C325.235 216.536 325.48 216.308 325.734 216.08L326.524 215.895C326.397 216.124 326.261 216.352 326.143 216.58C326.025 216.808 325.689 217.156 325.471 217.449C323.683 219.568 321.94 221.665 320.124 223.762ZM304.164 312.055C302.848 313.261 302.775 313.989 304.4 314.924C306.924 316.336 306.96 317.662 304.536 319.487C303.136 320.494 301.563 321.109 299.936 321.286C298.309 321.462 296.669 321.197 295.14 320.509C288.631 318.031 284.073 312.653 280.941 305.492C280.524 304.558 279.97 303.428 280.705 302.385C281.613 301.168 282.675 301.679 283.565 302.298C286.661 304.471 289.702 306.753 292.752 308.991C293.526 309.605 294.326 310.171 295.149 310.686C295.766 311.034 296.593 311.327 297.101 310.632C297.609 309.936 296.992 309.045 296.565 308.459C295.394 306.916 294.132 305.482 292.734 303.808C294.55 301.798 295.712 301.852 297.165 304.297C300.324 309.578 302.14 310.186 307.396 308.524C306.869 310.61 305.253 311.045 304.155 312.066L304.164 312.055ZM307.314 308.47C309.169 305.329 310.374 301.705 310.828 297.897C311.246 294.016 311.464 290.108 311.481 286.195C313.687 297.647 312.189 306.047 307.305 308.513L307.314 308.47ZM308.658 286.739C308.658 290.9 308.74 295.083 307.823 299.158C307.332 301.331 306.343 303.167 304.582 303.721C303.877 303.892 303.146 303.791 302.493 303.431C301.84 303.072 301.3 302.473 300.95 301.722C295.503 291.02 291.817 279.817 294.759 267.007C295.107 264.819 296.144 262.874 297.655 261.574C299.779 273.407 300.578 273.743 308.295 266.192C314.65 260.009 321.458 255.239 329.783 254.24C331.88 254.001 334.795 253.523 335.43 255.848C336.256 258.858 333.088 259.347 331.372 260.346C326.17 263.356 320.56 265.203 315.821 269.517C313.523 271.457 311.664 274.051 310.412 277.065C309.16 280.079 308.554 283.418 308.649 286.782L308.658 286.739ZM355.53 281.686C350.527 295.811 341.549 304.406 329.039 307.111C323.474 308.317 317.382 304.417 317.655 292.41C317.736 284.305 320.033 280.632 326.379 279.252C334.483 277.47 342.614 275.855 350.773 274.406C356.011 273.472 357.591 275.808 355.53 281.686ZM362.974 250.654C361.413 255.891 354.522 261.574 349.356 261.455C356.065 253.675 356.165 253.284 353.06 247.753C355.847 247.753 358.662 247.753 361.467 247.753C363.364 247.666 363.501 248.753 362.947 250.654H362.974ZM386.832 256.848C385.652 256.956 385.016 255.859 384.417 254.783C380.432 247.297 374.83 242.19 368.076 238.583C359.234 233.856 350.264 234.356 341.159 236.996C337.451 238.181 333.651 238.91 329.82 239.169C328.667 239.224 327.396 239.256 326.724 237.844C325.961 236.247 327.132 235.149 327.813 234.226C332.743 227.511 339.297 224.077 346.27 221.622C348.503 220.839 350.809 220.263 353.006 219.546C353.641 219.329 354.54 219.166 354.531 218.166C354.531 216.862 353.505 216.786 352.715 216.765C351.099 216.673 349.478 216.768 347.877 217.047C346.896 217.275 346.342 217.156 345.916 216.134C345.995 216.057 346.08 215.988 346.17 215.928C353.215 211.332 360.105 211.962 367.332 215.819C374.213 219.503 381.267 222.665 386.923 228.923C391.38 232.998 395.429 237.453 397.2 244.135H397.29C397.314 244.169 397.335 244.206 397.354 244.244C397.442 244.233 397.53 244.233 397.617 244.244L397.445 244.407C397.41 244.364 397.38 244.316 397.354 244.265H397.236C397.233 244.233 397.233 244.2 397.236 244.167C394.975 244.732 393.55 243.972 392.742 241.006C391.562 236.583 388.956 233.15 386.387 229.814C382.983 227 379.624 224.088 374.976 224.153C375.457 226.989 377.409 227.706 378.807 228.956C383.764 233.4 387.685 238.735 389.174 246.156C389.823 248.848 389.724 251.719 388.893 254.338C388.439 255.392 388.04 256.728 386.805 256.848H386.832ZM407.495 278.394C408.978 280.466 409.91 283.02 410.174 285.729C410.438 288.439 410.02 291.181 408.974 293.606C408.161 295.887 406.835 297.854 405.145 299.288C403.454 300.723 401.464 301.569 399.397 301.733C391.408 301.733 387.967 296.865 389.202 289.064C390.336 281.975 392.512 275.184 395.629 269.006C397.363 265.518 398.353 265.518 400.55 268.55C402.865 271.82 405.252 275.026 407.467 278.394H407.495ZM407.495 225.75C410.218 230.444 411.743 235.714 410.073 241.516C408.884 245.623 406.687 246.265 404.018 243.298C402.669 241.765 401.435 240.092 400.332 238.3C394.984 229.901 388.221 223.36 381.203 217.134C379.787 215.895 377.236 214.907 378.053 212.364C378.87 209.822 381.485 210.821 383.636 210.517C393.187 211.56 401.684 215.743 407.467 225.75H407.495ZM410.436 196.414C408.439 203.346 400.341 205.975 395.674 201.303C395.4 201.101 395.167 200.828 394.992 200.504C394.817 200.179 394.706 199.812 394.666 199.429C394.626 199.046 394.658 198.658 394.76 198.292C394.863 197.926 395.032 197.592 395.257 197.315C402.647 185.972 403.282 172.194 405.071 158.83C405.279 157.178 405.479 155.57 405.806 153.908C406.015 152.919 405.86 151.311 407.032 151.3C408.203 151.289 408.257 152.767 408.502 153.799C410.581 162.361 412.052 171.043 412.179 178.79C412.388 185.602 411.952 191.079 410.409 196.414H410.436Z" fill="#BF0B02"/>
</g>
</svg>
