<svg width="9" height="8" viewBox="0 0 9 8" fill="none" xmlns="http://www.w3.org/2000/svg">
<path d="M5.00341 3.92578C5.00341 4.14731 4.82382 4.3269 4.60229 4.3269C4.38076 4.3269 4.20117 4.14731 4.20117 3.92578C4.20117 3.70425 4.38076 3.52466 4.60229 3.52466C4.82382 3.52466 5.00341 3.70424 5.00341 3.92578Z" stroke="#475467"/>
<path d="M6.9667 4.83753C7.19587 4.27207 7.22187 3.64464 7.04029 3.06215C6.85871 2.47966 6.48077 1.97815 5.97088 1.64308C5.46099 1.308 4.85069 1.16009 4.24397 1.22455C3.63725 1.289 3.07165 1.56183 2.64354 1.99656C2.21543 2.43128 1.95129 3.001 1.89615 3.60864C1.841 4.21627 1.99824 4.82423 2.34109 5.32893C2.68394 5.83363 3.19118 6.20383 3.77639 6.37646C4.36159 6.5491 4.98855 6.51348 5.55043 6.27568" stroke="#475467" stroke-linecap="round"/>
</svg>
