<svg width="37" height="37" viewBox="0 0 37 37" fill="none" xmlns="http://www.w3.org/2000/svg">
<g clip-path="url(#clip0_1780_106060)">
<path fill-rule="evenodd" clip-rule="evenodd" d="M35.6085 34.9468C35.7626 35.3561 35.5558 35.813 35.1465 35.9671C34.7371 36.1212 34.2803 35.9143 34.1262 35.505C34.0586 35.3256 33.8711 34.1219 33.6815 32.9049C33.5015 31.7488 33.3193 30.5793 33.3078 30.5512C32.6279 28.8817 31.4515 27.7695 29.8342 27.0432C29.1472 26.7347 28.3795 26.4925 27.5357 26.3045V27.6093H28.093C28.5791 27.6093 29.0227 27.8092 29.3458 28.131L29.3504 28.1356C29.6716 28.459 29.8708 28.9023 29.8708 29.387V32.2255C29.8708 32.7149 29.6709 33.1598 29.349 33.4816C29.0272 33.8034 28.5826 34.0033 28.093 34.0033C27.6547 34.0033 27.2991 33.6478 27.2991 33.2094C27.2991 32.771 27.6547 32.4155 28.093 32.4155C28.1443 32.4155 28.1917 32.3939 28.2265 32.3591C28.2613 32.3243 28.283 32.2768 28.283 32.2255V29.387C28.283 29.3339 28.2624 29.2865 28.2295 29.2536L28.2264 29.2505C28.1935 29.2176 28.1463 29.197 28.093 29.197H25.3907C25.3392 29.197 25.2918 29.2187 25.2571 29.2534L25.2556 29.2519C25.2217 29.2865 25.2007 29.3343 25.2007 29.387V32.2255C25.2007 32.277 25.2224 32.3245 25.2571 32.3592C25.2918 32.3939 25.3392 32.4155 25.3907 32.4155C25.8291 32.4155 26.1846 32.771 26.1846 33.2094C26.1846 33.6478 25.8291 34.0033 25.3907 34.0033C24.9009 34.0033 24.4562 33.8035 24.1345 33.4817C23.8127 33.16 23.613 32.7153 23.613 32.2255V29.387C23.613 28.8995 23.8127 28.4559 24.1345 28.134L24.1361 28.1324L24.1345 28.1309C24.4562 27.8091 24.9011 27.6093 25.3907 27.6093H25.948V26.0241C25.2445 25.9281 24.4992 25.8589 23.7139 25.8116L19.3929 33.273L18.7565 35.446C18.6349 35.8656 18.1961 36.1072 17.7765 35.9857C17.357 35.8641 17.1154 35.4253 17.2369 35.0058L17.807 33.0594L13.6098 25.8117C12.8243 25.859 12.0787 25.9282 11.3748 26.0242V29.643C11.6774 29.7571 11.9489 29.9345 12.1733 30.1588C12.5808 30.5663 12.8331 31.1294 12.8331 31.7511C12.8331 32.3729 12.5808 32.936 12.1733 33.3435C11.7658 33.751 11.2027 34.0032 10.5809 34.0032C9.95917 34.0032 9.39606 33.751 8.98858 33.3435C8.58102 32.936 8.3288 32.3729 8.3288 31.7511C8.3288 31.1294 8.58102 30.5663 8.98858 30.1588C9.21294 29.9343 9.48456 29.7571 9.7871 29.643V26.3047C8.94364 26.4926 8.17628 26.7348 7.48942 27.0432C5.87205 27.7695 4.69568 28.8816 4.01573 30.5512C4.00428 30.5793 3.82207 31.7488 3.64205 32.9049C3.45248 34.1219 3.26495 35.3257 3.19737 35.505C3.04334 35.9143 2.58644 36.1212 2.17712 35.9671C1.76781 35.813 1.56095 35.3561 1.71509 34.9468C1.7291 34.9093 1.90318 33.7923 2.07905 32.6631C2.27478 31.4062 2.4729 30.1349 2.54573 29.9558C3.393 27.8754 4.8482 26.4945 6.84437 25.598C8.49995 24.8544 10.5215 24.4583 12.8738 24.2754C12.8902 24.0203 13.0296 23.7777 13.2673 23.64C13.6458 23.4207 14.1305 23.5499 14.3496 23.9284L16.9442 28.4086L17.9128 26.7258C17.9469 26.6571 17.9913 26.5927 18.0451 26.5354C18.0324 26.5219 18.0201 26.5078 18.0082 26.4932L17.1846 25.4839C17.0481 25.3413 16.9643 25.1481 16.9643 24.9353C16.9643 24.4969 17.3199 24.1414 17.7583 24.1414H19.486V24.1439C19.6617 24.1437 19.8385 24.2018 19.9854 24.3213C20.3244 24.597 20.3757 25.0955 20.1001 25.4345L19.2432 26.4846C19.2294 26.5021 19.2148 26.5189 19.1993 26.5354C19.236 26.5746 19.2691 26.6179 19.2982 26.6655L20.3713 28.4228L22.974 23.9284C23.1931 23.5499 23.6778 23.4207 24.0562 23.64C24.294 23.7777 24.4334 24.0203 24.4498 24.2754C26.8021 24.4584 28.8236 24.8544 30.4792 25.598C32.4753 26.4945 33.9305 27.8754 34.7778 29.9558C34.8507 30.1348 35.0488 31.4062 35.2445 32.6631C35.4204 33.7923 35.5945 34.9093 35.6085 34.9468Z" fill="#005F71"/>
<path d="M10.1164 31.2813C9.99629 31.4013 9.92188 31.5675 9.92188 31.751C9.92188 31.9346 9.99629 32.1007 10.1164 32.2209C10.2365 32.3409 10.4027 32.4154 10.5862 32.4154C10.7698 32.4154 10.936 32.3409 11.056 32.2209C11.1762 32.1007 11.2505 31.9346 11.2505 31.751C11.2505 31.5675 11.1762 31.4013 11.056 31.2813C10.936 31.1611 10.7699 31.0867 10.5863 31.0867H10.5862C10.4027 31.0867 10.2365 31.1611 10.1164 31.2813ZM18.6671 31.3745L19.4964 29.9426C19.4329 29.8892 19.3769 29.8246 19.3312 29.7498L18.6468 28.6289L18.0123 29.7312C17.9652 29.8133 17.9055 29.8837 17.8372 29.9414L18.6671 31.3745Z" fill="#D9EDF1"/>
<path d="M22.4844 2.878C22.5266 2.89213 22.7603 3.05669 22.6232 2.95009L22.5777 2.91195L22.5262 2.87293L22.4844 2.878ZM23.9537 2.65597L23.9927 2.694L24.0364 2.68858C23.9892 2.66857 23.8653 2.56951 23.9537 2.65597Z" fill="#005F71"/>
<path fill-rule="evenodd" clip-rule="evenodd" d="M11.0992 9.89928C11.0323 9.65548 10.9763 9.40594 10.9321 9.15185C10.8796 8.85075 10.8438 8.53733 10.8258 8.21323C10.7918 7.59963 10.8258 6.98605 10.9231 6.39224C11.0193 5.80578 11.1779 5.23693 11.3942 4.70506C11.4024 4.682 11.4116 4.659 11.4221 4.63632C11.684 4.06906 12.001 3.55198 12.3627 3.08734C13.4967 1.63065 15.0829 0.659458 16.8049 0.245597C18.5226 -0.167384 20.3756 -0.0231381 22.0482 0.74933C22.567 0.9888 23.0711 1.29124 23.5513 1.65904C23.5692 1.67083 23.587 1.68337 23.6043 1.69682C23.9743 1.98472 24.0175 2.33575 24.0607 2.68608C24.0615 2.69323 24.0547 2.69291 24.0437 2.68816L23.9999 2.69358L24.0567 2.74912C25.1723 3.83779 26.3734 5.01018 26.7704 6.64865C26.7845 6.69432 26.7947 6.74172 26.8005 6.79082C26.8123 6.88847 26.8221 6.97824 26.829 7.0579C26.8311 7.08114 26.832 7.10421 26.832 7.1272C26.839 7.20901 26.8438 7.27462 26.8465 7.32445C26.8854 8.02571 26.8322 8.71362 26.6973 9.37548C26.588 9.91242 26.4252 10.4302 26.2147 10.9222C26.2041 11.046 26.1906 11.1739 26.1741 11.3056C26.2189 11.3324 26.2618 11.3613 26.3032 11.3919C26.6826 11.6728 26.8844 12.0768 26.9454 12.536C26.9944 12.9064 26.9461 13.3111 26.8253 13.6989C26.6645 14.2149 26.3644 14.7295 25.9901 15.1046C25.4883 17.0206 24.9281 18.8818 23.9456 20.3238C22.8507 21.9306 21.2876 22.984 18.8361 22.9841H18.836H18.8359H18.8358C16.4027 22.984 14.7578 21.9403 13.5786 20.3486C12.5101 18.9065 11.8609 17.0319 11.3499 15.1052C10.9754 14.7301 10.6749 14.2152 10.514 13.6989C10.3932 13.311 10.3449 12.9063 10.394 12.536C10.4548 12.0769 10.6568 11.6728 11.0362 11.3919C11.0771 11.3615 11.1197 11.333 11.164 11.3064C11.1471 11.1752 11.1334 11.0468 11.1228 10.9211C11.0949 10.5852 11.0871 10.2437 11.0992 9.89928Z" fill="#005F71"/>
<path d="M24.5519 11.4336C23.1679 11.1094 22.3559 10.3655 21.9003 9.57998C21.8161 9.43475 21.7445 9.28751 21.6842 9.14062C21.5993 9.21553 21.5123 9.28818 21.4224 9.35886C20.8828 9.78318 20.2576 10.1241 19.4194 10.387C18.0031 10.8311 16.9443 10.6185 15.8555 10.4001C14.9171 10.2118 13.951 10.0179 12.6773 10.4113C12.6815 10.5349 12.6891 10.6617 12.6999 10.7914C12.7246 11.0883 12.764 11.3766 12.8178 11.654C12.8308 11.7046 12.8389 11.7571 12.8418 11.8112C12.8639 12.248 12.5279 12.6201 12.0913 12.6424C12.0257 12.6458 11.9884 12.6534 11.9745 12.6637C11.9703 12.6668 11.9647 12.696 11.9587 12.741C11.941 12.8748 11.9662 13.046 12.0227 13.2279C12.1261 13.5593 12.3194 13.8772 12.5471 14.0599C12.675 14.1633 12.7724 14.307 12.8169 14.4785C13.2948 16.3218 13.8864 18.1116 14.8456 19.4062C15.7362 20.6084 16.9827 21.3967 18.8314 21.3967H18.8315C20.6618 21.3967 21.8236 20.6183 22.6325 19.431C23.5144 18.1365 24.0328 16.3322 24.5135 14.4785C24.558 14.307 24.6554 14.1633 24.7837 14.0603C25.011 13.8772 25.2043 13.5593 25.3076 13.2279C25.3642 13.0459 25.3894 12.8748 25.3717 12.741C25.3657 12.696 25.3601 12.6668 25.3559 12.6637C25.342 12.6534 25.3047 12.6458 25.2392 12.6424C24.8024 12.6201 24.4664 12.248 24.4886 11.8112C24.4915 11.7572 24.4996 11.7048 24.5124 11.6544C24.5264 11.5828 24.5396 11.5091 24.5519 11.4336Z" fill="#F9FAFB"/>
<path fill-rule="evenodd" clip-rule="evenodd" d="M12.4773 8.81608C13.9701 8.40835 15.0819 8.63148 16.1638 8.84866C17.0478 9.02594 17.9075 9.19849 18.9462 8.87274C19.5801 8.67391 20.0456 8.42191 20.4407 8.11123C20.8565 7.78432 21.2118 7.38331 21.6016 6.91039C21.8789 6.57299 22.3775 6.52442 22.7148 6.80186C22.9418 6.98843 23.0381 7.27527 22.9923 7.54573L22.994 7.54608L22.9837 7.60278C22.9525 7.86278 23.0019 8.32408 23.2693 8.7852C23.5358 9.24466 24.0326 9.68444 24.9108 9.89148C25.0056 9.62095 25.0826 9.34281 25.1405 9.05865C25.248 8.53101 25.2902 7.97846 25.2587 7.41078L25.2492 7.25692C25.2458 7.23614 25.243 7.21505 25.2412 7.19371C25.2352 7.12454 25.2288 7.06277 25.2225 7.00762C24.9293 5.81872 23.9013 4.81527 22.9465 3.88352L22.8508 3.78995C22.5561 3.50189 22.5175 3.19005 22.4791 2.87792C22.4788 2.87574 22.4812 2.87567 22.4854 2.87708L22.5273 2.87201C22.1643 2.60046 21.7789 2.37278 21.3783 2.18776C20.0343 1.56718 18.5452 1.45142 17.1646 1.78326C15.7882 2.11408 14.5188 2.89243 13.6094 4.06066C13.3167 4.43677 13.0621 4.85056 12.8548 5.29946L12.8527 5.30404C12.6824 5.72399 12.5568 6.17645 12.4799 6.64606C12.401 7.12746 12.3734 7.62627 12.4011 8.12584C12.4138 8.35507 12.4395 8.58549 12.4773 8.81608Z" fill="#005F71"/>
<path fill-rule="evenodd" clip-rule="evenodd" d="M18.2799 35.966H34.5953C34.3894 35.8883 34.2167 35.726 34.1332 35.5039C34.0655 35.3246 33.8781 34.1209 33.6885 32.9038C33.5085 31.7477 33.3262 30.5783 33.3148 30.5501C32.6348 28.8807 31.4585 27.7685 29.8411 27.0421C29.1541 26.7336 28.3865 26.4914 27.5427 26.3035V27.6082H28.1C28.586 27.6082 29.0296 27.8081 29.3527 28.13L29.3573 28.1345C29.6785 28.4579 29.8777 28.9012 29.8777 29.3859V32.2245C29.8777 32.7138 29.6778 33.1587 29.356 33.4805C29.0342 33.8023 28.5896 34.0022 28.1 34.0022C27.6616 34.0022 27.3061 33.6467 27.3061 33.2083C27.3061 32.77 27.6616 32.4145 28.1 32.4145C28.1513 32.4145 28.1986 32.3928 28.2334 32.358C28.2682 32.3232 28.29 32.2757 28.29 32.2245V29.3859C28.29 29.3328 28.2694 29.2855 28.2364 29.2525L28.2333 29.2494C28.2005 29.2166 28.1533 29.196 28.1 29.196H25.3977C25.3462 29.196 25.2987 29.2176 25.2641 29.2523L25.2625 29.2509C25.2287 29.2854 25.2076 29.3332 25.2076 29.3859V32.2245C25.2076 32.276 25.2293 32.3235 25.2641 32.3581C25.2987 32.3928 25.3462 32.4145 25.3977 32.4145C25.836 32.4145 26.1915 32.77 26.1915 33.2083C26.1915 33.6467 25.836 34.0022 25.3977 34.0022C24.9079 34.0022 24.4632 33.8024 24.1415 33.4806C23.8197 33.1589 23.6199 32.7142 23.6199 32.2245V29.3859C23.6199 28.8984 23.8197 28.4548 24.1415 28.1329L24.1431 28.1314L24.1415 28.1298C24.4632 27.808 24.9081 27.6082 25.3977 27.6082H25.9549V26.023C25.2514 25.927 24.5061 25.8579 23.7208 25.8105L19.3998 33.272L18.7634 35.445C18.691 35.6948 18.5062 35.8814 18.2799 35.966ZM2.74219 35.966H17.7272C17.3427 35.823 17.1279 35.4051 17.2438 35.0047L17.814 33.0584L13.6168 25.8106C12.8313 25.8579 12.0857 25.9271 11.3818 26.0231V29.642C11.6844 29.7561 11.9559 29.9334 12.1802 30.1577C12.5877 30.5652 12.84 31.1283 12.84 31.75C12.84 32.3719 12.5877 32.935 12.1802 33.3425C11.7728 33.7499 11.2096 34.0021 10.5878 34.0021C9.96613 34.0021 9.40302 33.7499 8.99553 33.3425C8.58798 32.935 8.33576 32.3719 8.33576 31.75C8.33576 31.1283 8.58798 30.5652 8.99553 30.1577C9.2199 29.9333 9.49152 29.7561 9.79406 29.642V26.3036C8.9506 26.4915 8.18324 26.7337 7.49638 27.0421C5.879 27.7685 4.70264 28.8806 4.02268 30.5501C4.01124 30.5783 3.82903 31.7477 3.64901 32.9038C3.45944 34.1209 3.27191 35.3246 3.20433 35.5039C3.12076 35.726 2.94806 35.8883 2.74219 35.966Z" fill="#F2F8F9"/>
</g>
<defs>
<clipPath id="clip0_1780_106060">
<rect width="36" height="36" fill="white" transform="translate(0.664062 0.0195312)"/>
</clipPath>
</defs>
</svg>
