<svg width="32" height="32" viewBox="0 0 32 32" fill="none" xmlns="http://www.w3.org/2000/svg">
<g clip-path="url(#clip0_9889_10363)">
<path fill-rule="evenodd" clip-rule="evenodd" d="M30.6557 31.9525C31.0195 31.8155 31.2034 31.4094 31.0664 31.0456C31.0539 31.0123 30.8992 30.0193 30.7429 29.0156C30.5689 27.8983 30.3928 26.7682 30.328 26.6091C29.5748 24.7599 28.2813 23.5324 26.507 22.7355C25.0353 22.0745 23.2384 21.7225 21.1475 21.5599C21.133 21.3331 21.009 21.1174 20.7977 20.9951C20.4613 20.8002 20.0305 20.915 19.8357 21.2514L17.5222 25.2464L16.5684 23.6844C16.5425 23.6421 16.5131 23.6036 16.4804 23.5687C16.4942 23.5541 16.5072 23.5392 16.5194 23.5236L17.2811 22.5902C17.5262 22.2888 17.4805 21.8457 17.1792 21.6006C17.0486 21.4945 16.8915 21.4428 16.7353 21.443V21.4407H15.1995C14.8099 21.4407 14.4938 21.7568 14.4938 22.1464C14.4938 22.3356 14.5683 22.5074 14.6895 22.6341L15.4216 23.5312C15.4323 23.5442 15.4432 23.5568 15.4545 23.5687C15.4067 23.6197 15.3672 23.6769 15.3369 23.738L14.4759 25.2339L12.1696 21.2514C11.9748 20.915 11.544 20.8002 11.2076 20.9951C10.9963 21.1174 10.8723 21.3331 10.8578 21.5599C8.76683 21.7224 6.9699 22.0745 5.49827 22.7355C3.7239 23.5324 2.43039 24.7599 1.67726 26.6091C1.61253 26.7683 1.43641 27.8983 1.26243 29.0156C1.1061 30.0193 0.951368 31.0123 0.93891 31.0456C0.801895 31.4094 0.985771 31.8155 1.34961 31.9525C1.71345 32.0895 2.11958 31.9056 2.2565 31.5417C2.31657 31.3824 2.48326 30.3124 2.65176 29.2306C2.81179 28.2029 2.97375 27.1634 2.98392 27.1384C3.58833 25.6543 4.63398 24.6658 6.07165 24.0201C6.68219 23.746 7.36429 23.5307 8.11404 23.3637V26.3311C7.84511 26.4325 7.60367 26.5901 7.40423 26.7896C7.04196 27.1518 6.81777 27.6523 6.81777 28.205C6.81777 28.7577 7.04196 29.2582 7.40423 29.6204C7.76644 29.9826 8.26698 30.2068 8.81961 30.2068C9.37233 30.2068 9.87287 29.9826 10.2351 29.6204C10.5973 29.2582 10.8216 28.7577 10.8216 28.205C10.8216 27.6523 10.5973 27.1518 10.2351 26.7896C10.0357 26.5901 9.79433 26.4325 9.52534 26.3311V23.1143C10.151 23.029 10.8138 22.9675 11.512 22.9255L15.2429 29.3679L14.7361 31.098C14.6281 31.4709 14.8428 31.8609 15.2157 31.969C15.5887 32.0771 15.9787 31.8623 16.0868 31.4893L16.6525 29.5578L20.4934 22.9254C21.1914 22.9675 21.8539 23.029 22.4792 23.1143V24.5233H21.9839C21.5487 24.5233 21.1533 24.7009 20.8673 24.9869L20.8687 24.9884L20.8673 24.9897C20.5813 25.2759 20.4037 25.6702 20.4037 26.1035V28.6267C20.4037 29.062 20.5813 29.4573 20.8673 29.7433C21.1533 30.0293 21.5485 30.2069 21.9839 30.2069C22.3736 30.2069 22.6896 29.8909 22.6896 29.5012C22.6896 29.1116 22.3736 28.7956 21.9839 28.7956C21.9381 28.7956 21.896 28.7763 21.8651 28.7454C21.8343 28.7147 21.815 28.6724 21.815 28.6267V26.1035C21.815 26.0567 21.8337 26.0142 21.8638 25.9835L21.8651 25.9848C21.896 25.9539 21.9381 25.9347 21.9839 25.9347H24.386C24.4334 25.9347 24.4753 25.953 24.5045 25.9822L24.5072 25.9849C24.5365 26.0142 24.5548 26.0563 24.5548 26.1035V28.6267C24.5548 28.6722 24.5355 28.7144 24.5046 28.7454C24.4736 28.7763 24.4316 28.7956 24.386 28.7956C23.9963 28.7956 23.6803 29.1116 23.6803 29.5012C23.6803 29.8909 23.9963 30.2069 24.386 30.2069C24.8212 30.2069 25.2164 30.0292 25.5024 29.7432C25.7885 29.4571 25.9662 29.0617 25.9662 28.6267V26.1035C25.9662 25.6727 25.7891 25.2786 25.5036 24.9912L25.4995 24.9871C25.2123 24.701 24.818 24.5233 24.386 24.5233H23.8906V23.3636C24.6406 23.5306 25.323 23.7459 25.9336 24.0201C27.3713 24.6658 28.417 25.6544 29.0214 27.1384C29.0315 27.1634 29.1935 28.2029 29.3535 29.2306L29.3549 29.2391C29.5229 30.318 29.6888 31.3827 29.7488 31.5417C29.8857 31.9056 30.2918 32.0895 30.6557 31.9525ZM8.23087 28.2051C8.23087 28.0419 8.29701 27.8943 8.40382 27.7875C8.51056 27.6807 8.65834 27.6146 8.82147 27.6146C8.98465 27.6146 9.13228 27.6807 9.23902 27.7875C9.34583 27.8943 9.41191 28.0419 9.41191 28.2051C9.41191 28.3683 9.34583 28.5159 9.23902 28.6227C9.13228 28.7295 8.98459 28.7956 8.82137 28.7956C8.65825 28.7956 8.51056 28.7295 8.40382 28.6227C8.29701 28.5159 8.23087 28.3683 8.23087 28.2051ZM16.7415 26.5976L16.0044 27.8704L15.2667 26.5965C15.3275 26.5452 15.3804 26.4827 15.4224 26.4097L15.9863 25.4299L16.5947 26.4262C16.6353 26.4927 16.6851 26.5501 16.7415 26.5976Z" fill="white"/>
<path d="M19.3975 2.54062C19.435 2.55317 19.6427 2.69945 19.5209 2.6047L19.4804 2.5708L19.4347 2.53611L19.3975 2.54062ZM20.7035 2.34325L20.7382 2.37706L20.7771 2.37224C20.7351 2.35446 20.6249 2.2664 20.7035 2.34325Z" fill="white"/>
<path fill-rule="evenodd" clip-rule="evenodd" d="M9.12212 8.11762C9.16146 8.34347 9.21121 8.56529 9.27071 8.782C9.25995 9.08812 9.26686 9.39173 9.29169 9.6903C9.30105 9.80199 9.31322 9.91618 9.32828 10.0328C9.28887 10.0564 9.25109 10.0817 9.21468 10.1088C8.87742 10.3585 8.69793 10.7176 8.6438 11.1258C8.6002 11.4549 8.64314 11.8147 8.75048 12.1594C8.89351 12.6184 9.16065 13.0761 9.49356 13.4094C9.94774 15.1221 10.5248 16.7885 11.4746 18.0703C12.5228 19.4852 13.9849 20.4129 16.1476 20.4129H16.1478H16.1479H16.1479C18.327 20.4129 19.7165 19.4765 20.6897 18.0482C21.5631 16.7664 22.061 15.112 22.507 13.4089C22.8397 13.0756 23.1065 12.6181 23.2495 12.1594C23.3569 11.8148 23.3997 11.455 23.3562 11.1258C23.302 10.7176 23.1226 10.3585 22.7853 10.1088C22.7485 10.0816 22.7104 10.0559 22.6706 10.0321C22.6853 9.915 22.6973 9.80133 22.7067 9.69127C22.8938 9.2539 23.0385 8.79368 23.1357 8.3164C23.2556 7.72808 23.3029 7.1166 23.2683 6.49326C23.2659 6.44897 23.2616 6.39065 23.2554 6.31793C23.2554 6.29749 23.2546 6.27699 23.2528 6.25632C23.2466 6.18552 23.2379 6.10572 23.2274 6.01892C23.2222 5.97528 23.2132 5.93315 23.2007 5.89255C22.8478 4.43613 21.7801 3.39401 20.7885 2.4263L20.738 2.37694L20.7769 2.37211C20.7867 2.37634 20.7928 2.37662 20.792 2.37027L20.792 2.37003C20.7536 2.0587 20.7152 1.74677 20.3864 1.49093C20.3709 1.47897 20.3551 1.46782 20.3392 1.45734C19.9124 1.13041 19.4643 0.861573 19.0031 0.64871C17.5164 -0.0379283 15.8693 -0.166147 14.3424 0.200947C12.8117 0.568824 11.4018 1.43211 10.3938 2.72694C10.0723 3.13995 9.79051 3.59958 9.5577 4.10381C9.54841 4.12397 9.5402 4.14441 9.53291 4.16492C9.34061 4.63769 9.19962 5.14333 9.11417 5.66463C9.02764 6.19247 8.99747 6.73786 9.02764 7.28329C9.04367 7.57138 9.07547 7.84998 9.12212 8.11762ZM18.8733 8.49783C19.2782 9.19605 20 9.85734 21.2302 10.1455C21.2193 10.2126 21.2076 10.2781 21.1951 10.3417C21.1837 10.3865 21.1765 10.4332 21.174 10.4811C21.1543 10.8694 21.4529 11.2002 21.8411 11.22C21.8993 11.223 21.9325 11.2298 21.9449 11.2389C21.9486 11.2417 21.9536 11.2676 21.9589 11.3077C21.9746 11.4266 21.9523 11.5786 21.9019 11.7404C21.8101 12.035 21.6383 12.3176 21.4362 12.4803C21.3222 12.5719 21.2356 12.6996 21.1961 12.8521C20.7688 14.4998 20.308 16.1037 19.5241 17.2543C18.805 18.3097 17.7724 19.0015 16.1455 19.0015H16.1454C14.502 19.0015 13.3941 18.3009 12.6024 17.2322C11.7498 16.0815 11.2239 14.4905 10.7991 12.8521C10.7596 12.6996 10.673 12.5719 10.5593 12.48C10.3569 12.3176 10.185 12.035 10.0932 11.7404C10.0429 11.5787 10.0206 11.4266 10.0363 11.3077C10.0416 11.2676 10.0465 11.2417 10.0503 11.2389C10.0627 11.2298 10.0958 11.223 10.1541 11.22C10.5423 11.2002 10.8409 10.8694 10.8212 10.4811C10.8187 10.433 10.8115 10.3864 10.7999 10.3414C10.7521 10.0948 10.7171 9.83858 10.6951 9.57464C10.6855 9.45934 10.6787 9.34668 10.675 9.23678C11.8071 8.88715 12.6658 9.05945 13.4998 9.22678L13.5001 9.22682L13.5008 9.22697C14.4684 9.42106 15.4094 9.60981 16.668 9.21515C17.413 8.98147 17.9688 8.67845 18.4484 8.30128C18.5283 8.23845 18.6057 8.17387 18.6811 8.10729C18.7348 8.23786 18.7984 8.36874 18.8733 8.49783Z" fill="white"/>
<path fill-rule="evenodd" clip-rule="evenodd" d="M10.5018 7.81977C11.8288 7.45734 12.8171 7.65567 13.7787 7.84872C14.5645 8.0063 15.3287 8.15969 16.252 7.87013C16.8155 7.69339 17.2292 7.46939 17.5804 7.19323C17.95 6.90264 18.2658 6.54619 18.6123 6.12582C18.8588 5.8259 19.302 5.78274 19.6019 6.02934C19.8036 6.19519 19.8892 6.45015 19.8485 6.69056L19.85 6.69088L19.8409 6.74127C19.8131 6.97239 19.857 7.38243 20.0947 7.79231C20.3316 8.20073 20.7732 8.59164 21.5538 8.77567C21.6381 8.5352 21.7065 8.28797 21.758 8.03538C21.8536 7.56637 21.8911 7.07522 21.8631 6.57061L21.8546 6.43384C21.8516 6.41537 21.8492 6.39662 21.8475 6.37765C21.8422 6.31617 21.8365 6.26127 21.8309 6.21225C21.5703 5.15545 20.6565 4.26349 19.8078 3.43527L19.7227 3.3521C19.4608 3.09604 19.4265 2.81885 19.3923 2.5414C19.3921 2.53946 19.3942 2.5394 19.3979 2.54065L19.4351 2.53615C19.1125 2.29477 18.7699 2.09239 18.4138 1.92792C17.2192 1.3763 15.8956 1.2734 14.6683 1.56837C13.4449 1.86244 12.3165 2.5543 11.5081 3.59273C11.2479 3.92704 11.0217 4.29486 10.8374 4.69388L10.8355 4.69795C10.6841 5.07124 10.5725 5.47343 10.5041 5.89086C10.434 6.31877 10.4095 6.76215 10.4341 7.20622C10.4454 7.40997 10.4682 7.61479 10.5018 7.81977Z" fill="white"/>
</g>
<defs>
<clipPath id="clip0_9889_10363">
<rect width="32" height="32" />
</clipPath>
</defs>
</svg>
