<svg width="104" height="40" viewBox="0 0 104 40" fill="none" xmlns="http://www.w3.org/2000/svg">
<path d="M4.1392 38.7041C3.48054 38.7041 2.87387 38.5481 2.3192 38.2361C1.77147 37.9172 1.33467 37.4734 1.0088 36.9049C0.682934 36.3364 0.52 35.6881 0.52 34.9601C0.52 34.2321 0.682934 33.5838 1.0088 33.0153C1.33467 32.4468 1.77147 32.0065 2.3192 31.6945C2.87387 31.3756 3.48054 31.2161 4.1392 31.2161C4.69387 31.2161 5.19654 31.3166 5.64721 31.5177C6.09787 31.7188 6.46534 31.9996 6.74961 32.3601C7.04081 32.7206 7.23147 33.1366 7.32161 33.6081H6.32321C6.17067 33.1228 5.91067 32.7553 5.54321 32.5057C5.17574 32.2561 4.70427 32.1313 4.1288 32.1313C3.6088 32.1313 3.1512 32.2526 2.756 32.4953C2.36774 32.738 2.06614 33.0742 1.8512 33.5041C1.6432 33.934 1.5392 34.4193 1.5392 34.9601C1.5392 35.5009 1.6432 35.9862 1.8512 36.4161C2.06614 36.846 2.36774 37.1822 2.756 37.4249C3.1512 37.6676 3.6088 37.7889 4.1288 37.7889C4.82214 37.7889 5.3664 37.5982 5.76161 37.2169C6.15681 36.8286 6.38214 36.2913 6.43761 35.6049H3.536V34.6897H7.44641V35.2825C7.44641 35.9412 7.31121 36.5305 7.04081 37.0505C6.77041 37.5636 6.38561 37.9692 5.88641 38.2673C5.38721 38.5585 4.8048 38.7041 4.1392 38.7041ZM10.9161 38.7041C10.3961 38.7041 9.94544 38.5932 9.56411 38.3713C9.18278 38.1425 8.88811 37.827 8.68011 37.4249C8.47904 37.0158 8.37851 36.5409 8.37851 36.0001C8.37851 35.4732 8.49291 35.0052 8.72171 34.5961C8.95051 34.187 9.25904 33.8681 9.64731 33.6393C10.0356 33.4105 10.4585 33.2961 10.9161 33.2961C11.3806 33.2961 11.7966 33.4036 12.1641 33.6185C12.5385 33.8265 12.8297 34.1281 13.0377 34.5233C13.2526 34.9185 13.3601 35.39 13.3601 35.9377V36.2913H9.30411C9.31798 36.7836 9.47051 37.1718 9.76171 37.4561C10.0598 37.7334 10.4481 37.8721 10.9265 37.8721C11.3217 37.8721 11.651 37.7785 11.9145 37.5913C12.178 37.3972 12.3582 37.1406 12.4553 36.8217H13.3081C13.1625 37.411 12.8852 37.8721 12.4761 38.2049C12.067 38.5377 11.547 38.7041 10.9161 38.7041ZM12.4969 35.5009C12.4622 35.0641 12.2958 34.7278 11.9977 34.4921C11.7065 34.2494 11.346 34.1281 10.9161 34.1281C10.5001 34.1281 10.1465 34.2494 9.85531 34.4921C9.56411 34.7348 9.38384 35.071 9.31451 35.5009H12.4969ZM16.1475 38.7041C15.7453 38.7041 15.4299 38.5932 15.2011 38.3713C14.9792 38.1425 14.8683 37.8166 14.8683 37.3937V34.2321H13.8387V33.4001H14.8683V31.8401L15.7835 32.1729V33.4001H17.0315V34.2321H15.7835V37.3313C15.7835 37.5116 15.8355 37.6502 15.9395 37.7473C16.0504 37.8444 16.2133 37.8929 16.4283 37.8929C16.56 37.8929 16.6744 37.886 16.7715 37.8721C16.8755 37.8513 16.9448 37.8374 16.9795 37.8305V38.6001C16.7091 38.6694 16.4317 38.7041 16.1475 38.7041ZM19.8202 33.4001H20.7874L21.765 36.7593L21.9106 37.6849L22.077 36.7593L23.0754 33.4001H24.001L24.989 36.7593L25.1658 37.6849L25.3114 36.7593L26.289 33.4001H27.2562L25.6962 38.6001H24.677L23.533 34.4609L22.3994 38.6001H21.3802L19.8202 33.4001ZM30.2943 38.7041C29.7743 38.7041 29.3236 38.5932 28.9423 38.3713C28.5609 38.1425 28.2662 37.827 28.0582 37.4249C27.8572 37.0158 27.7566 36.5409 27.7566 36.0001C27.7566 35.4732 27.871 35.0052 28.0998 34.5961C28.3286 34.187 28.6372 33.8681 29.0255 33.6393C29.4137 33.4105 29.8367 33.2961 30.2943 33.2961C30.7588 33.2961 31.1748 33.4036 31.5423 33.6185C31.9167 33.8265 32.2079 34.1281 32.4159 34.5233C32.6308 34.9185 32.7383 35.39 32.7383 35.9377V36.2913H28.6822C28.6961 36.7836 28.8487 37.1718 29.1399 37.4561C29.438 37.7334 29.8263 37.8721 30.3047 37.8721C30.6999 37.8721 31.0292 37.7785 31.2927 37.5913C31.5561 37.3972 31.7364 37.1406 31.8335 36.8217H32.6863C32.5407 37.411 32.2633 37.8721 31.8543 38.2049C31.4452 38.5377 30.9252 38.7041 30.2943 38.7041ZM31.8751 35.5009C31.8404 35.0641 31.674 34.7278 31.3759 34.4921C31.0847 34.2494 30.7241 34.1281 30.2943 34.1281C29.8783 34.1281 29.5247 34.2494 29.2335 34.4921C28.9423 34.7348 28.762 35.071 28.6926 35.5009H31.8751ZM33.7755 31.0081H34.6907V38.6001H33.7755V31.0081ZM36.0606 31.0081H36.9759V38.6001H36.0606V31.0081ZM38.1586 39.7857C38.3943 39.5708 38.5746 39.3732 38.6994 39.1929C38.8242 39.0196 38.8935 38.822 38.9074 38.6001C38.6855 38.6001 38.5087 38.5273 38.377 38.3817C38.2453 38.2292 38.1794 38.0593 38.1794 37.8721C38.1794 37.6572 38.2487 37.4769 38.3874 37.3313C38.533 37.1788 38.7133 37.1025 38.9282 37.1025C39.1501 37.1025 39.3303 37.1788 39.469 37.3313C39.6077 37.4769 39.677 37.6606 39.677 37.8825C39.677 38.3124 39.5695 38.6937 39.3546 39.0265C39.1397 39.3593 38.8138 39.6817 38.377 39.9937L38.1586 39.7857ZM43.0685 31.0081H43.9837V38.6001H43.0685V31.0081ZM45.8112 32.6097C45.6379 32.6097 45.4888 32.5508 45.364 32.4329C45.2462 32.3081 45.1872 32.159 45.1872 31.9857C45.1872 31.8124 45.2462 31.6668 45.364 31.5489C45.4888 31.4241 45.6379 31.3617 45.8112 31.3617C45.9846 31.3617 46.1302 31.4241 46.248 31.5489C46.3728 31.6668 46.4352 31.8124 46.4352 31.9857C46.4352 32.159 46.3728 32.3081 46.248 32.4329C46.1302 32.5508 45.9846 32.6097 45.8112 32.6097ZM45.3536 33.4001H46.2688V38.6001H45.3536V33.4001ZM47.1812 33.4001H48.1484L49.49 36.9257L49.6876 37.7889L49.8852 36.9257L51.2268 33.4001H52.194L50.1764 38.6001H49.1988L47.1812 33.4001ZM55.1263 38.7041C54.6063 38.7041 54.1556 38.5932 53.7743 38.3713C53.393 38.1425 53.0983 37.827 52.8903 37.4249C52.6892 37.0158 52.5887 36.5409 52.5887 36.0001C52.5887 35.4732 52.7031 35.0052 52.9319 34.5961C53.1607 34.187 53.4692 33.8681 53.8575 33.6393C54.2458 33.4105 54.6687 33.2961 55.1263 33.2961C55.5908 33.2961 56.0068 33.4036 56.3743 33.6185C56.7487 33.8265 57.0399 34.1281 57.2479 34.5233C57.4628 34.9185 57.5703 35.39 57.5703 35.9377V36.2913H53.5143C53.5282 36.7836 53.6807 37.1718 53.9719 37.4561C54.27 37.7334 54.6583 37.8721 55.1367 37.8721C55.5319 37.8721 55.8612 37.7785 56.1247 37.5913C56.3882 37.3972 56.5684 37.1406 56.6655 36.8217H57.5183C57.3727 37.411 57.0954 37.8721 56.6863 38.2049C56.2772 38.5377 55.7572 38.7041 55.1263 38.7041ZM56.7071 35.5009C56.6724 35.0641 56.506 34.7278 56.2079 34.4921C55.9167 34.2494 55.5562 34.1281 55.1263 34.1281C54.7103 34.1281 54.3567 34.2494 54.0655 34.4921C53.7743 34.7348 53.594 35.071 53.5247 35.5009H56.7071ZM63.3599 38.7041C62.9925 38.7041 62.6701 38.6382 62.3927 38.5065C62.1154 38.3748 61.8866 38.2153 61.7063 38.0281V38.6001H60.7911V31.0081H61.7063V33.9513C61.9005 33.7433 62.1431 33.5838 62.4343 33.4729C62.7325 33.355 63.0479 33.2961 63.3807 33.2961C63.8314 33.2961 64.237 33.407 64.5975 33.6289C64.9581 33.8508 65.2389 34.1662 65.4399 34.5753C65.641 34.9844 65.7415 35.4593 65.7415 36.0001C65.7415 36.5409 65.6341 37.0158 65.4191 37.4249C65.2042 37.834 64.913 38.1494 64.5455 38.3713C64.185 38.5932 63.7898 38.7041 63.3599 38.7041ZM63.2143 37.8721C63.6858 37.8721 64.0706 37.7161 64.3687 37.4041C64.6738 37.0921 64.8263 36.6241 64.8263 36.0001C64.8263 35.3761 64.6738 34.9081 64.3687 34.5961C64.0706 34.2841 63.6858 34.1281 63.2143 34.1281C62.9439 34.1281 62.6943 34.194 62.4655 34.3257C62.2367 34.4505 62.053 34.6204 61.9143 34.8353C61.7757 35.0433 61.7063 35.2686 61.7063 35.5113V36.5097C61.7063 36.7524 61.7722 36.9777 61.9039 37.1857C62.0426 37.3937 62.2263 37.5601 62.4551 37.6849C62.6909 37.8097 62.9439 37.8721 63.2143 37.8721ZM69.1115 38.7041C68.5915 38.7041 68.1408 38.5932 67.7595 38.3713C67.3781 38.1425 67.0835 37.827 66.8755 37.4249C66.6744 37.0158 66.5739 36.5409 66.5739 36.0001C66.5739 35.4732 66.6883 35.0052 66.9171 34.5961C67.1459 34.187 67.4544 33.8681 67.8427 33.6393C68.2309 33.4105 68.6539 33.2961 69.1115 33.2961C69.576 33.2961 69.992 33.4036 70.3595 33.6185C70.7339 33.8265 71.0251 34.1281 71.2331 34.5233C71.448 34.9185 71.5555 35.39 71.5555 35.9377V36.2913H67.4995C67.5133 36.7836 67.6659 37.1718 67.9571 37.4561C68.2552 37.7334 68.6435 37.8721 69.1219 37.8721C69.5171 37.8721 69.8464 37.7785 70.1099 37.5913C70.3733 37.3972 70.5536 37.1406 70.6507 36.8217H71.5035C71.3579 37.411 71.0805 37.8721 70.6715 38.2049C70.2624 38.5377 69.7424 38.7041 69.1115 38.7041ZM70.6923 35.5009C70.6576 35.0641 70.4912 34.7278 70.1931 34.4921C69.9019 34.2494 69.5413 34.1281 69.1115 34.1281C68.6955 34.1281 68.3419 34.2494 68.0507 34.4921C67.7595 34.7348 67.5792 35.071 67.5099 35.5009H70.6923ZM74.3428 38.7041C73.9407 38.7041 73.6252 38.5932 73.3964 38.3713C73.1746 38.1425 73.0636 37.8166 73.0636 37.3937V34.2321H72.034V33.4001H73.0636V31.8401L73.9788 32.1729V33.4001H75.2268V34.2321H73.9788V37.3313C73.9788 37.5116 74.0308 37.6502 74.1348 37.7473C74.2458 37.8444 74.4087 37.8929 74.6236 37.8929C74.7554 37.8929 74.8698 37.886 74.9668 37.8721C75.0708 37.8513 75.1402 37.8374 75.1748 37.8305V38.6001C74.9044 38.6694 74.6271 38.7041 74.3428 38.7041ZM78.1616 38.7041C77.7595 38.7041 77.444 38.5932 77.2152 38.3713C76.9933 38.1425 76.8824 37.8166 76.8824 37.3937V34.2321H75.8528V33.4001H76.8824V31.8401L77.7976 32.1729V33.4001H79.0456V34.2321H77.7976V37.3313C77.7976 37.5116 77.8496 37.6502 77.9536 37.7473C78.0645 37.8444 78.2275 37.8929 78.4424 37.8929C78.5741 37.8929 78.6885 37.886 78.7856 37.8721C78.8896 37.8513 78.9589 37.8374 78.9936 37.8305V38.6001C78.7232 38.6694 78.4459 38.7041 78.1616 38.7041ZM82.2537 38.7041C81.7337 38.7041 81.283 38.5932 80.9017 38.3713C80.5203 38.1425 80.2257 37.827 80.0177 37.4249C79.8166 37.0158 79.7161 36.5409 79.7161 36.0001C79.7161 35.4732 79.8305 35.0052 80.0593 34.5961C80.2881 34.187 80.5966 33.8681 80.9849 33.6393C81.3731 33.4105 81.7961 33.2961 82.2537 33.2961C82.7182 33.2961 83.1342 33.4036 83.5017 33.6185C83.8761 33.8265 84.1673 34.1281 84.3753 34.5233C84.5902 34.9185 84.6977 35.39 84.6977 35.9377V36.2913H80.6417C80.6555 36.7836 80.8081 37.1718 81.0993 37.4561C81.3974 37.7334 81.7857 37.8721 82.2641 37.8721C82.6593 37.8721 82.9886 37.7785 83.2521 37.5913C83.5155 37.3972 83.6958 37.1406 83.7929 36.8217H84.6457C84.5001 37.411 84.2227 37.8721 83.8137 38.2049C83.4046 38.5377 82.8846 38.7041 82.2537 38.7041ZM83.8345 35.5009C83.7998 35.0641 83.6334 34.7278 83.3353 34.4921C83.0441 34.2494 82.6835 34.1281 82.2537 34.1281C81.8377 34.1281 81.4841 34.2494 81.1929 34.4921C80.9017 34.7348 80.7214 35.071 80.6521 35.5009H83.8345ZM85.7349 33.4001H86.6501V34.0761C86.8512 33.8473 87.08 33.6601 87.3365 33.5145C87.593 33.3689 87.8738 33.2961 88.1789 33.2961C88.3592 33.2961 88.4978 33.3238 88.5949 33.3793L88.4493 34.1385C88.3661 34.1177 88.2552 34.1073 88.1165 34.1073C87.8253 34.1073 87.5514 34.194 87.2949 34.3673C87.0384 34.5406 86.8234 34.7868 86.6501 35.1057V38.6001H85.7349V33.4001Z" fill="#00839B"/>
<path d="M29.0237 5.66699C24.1363 5.66699 20.1328 9.6705 20.1328 14.5579C20.1328 19.4453 24.1363 23.4488 29.0237 23.4488C33.9111 23.4488 37.9146 19.4453 37.9146 14.5579C37.9146 9.6705 33.9631 5.66699 29.0237 5.66699ZM29.0237 19.7573C26.1641 19.7573 23.8764 17.4176 23.8764 14.6099C23.8764 11.7502 26.2161 9.46253 29.0237 9.46253C31.8834 9.46253 34.1711 11.8022 34.1711 14.6099C34.2231 17.4695 31.8834 19.7573 29.0237 19.7573Z" fill="#00839B"/>
<path d="M103.635 0H100.62C100.412 0 100.256 0.155981 100.256 0.363955V22.7212C100.256 22.9292 100.412 23.0852 100.62 23.0852H103.635C103.843 23.0852 103.999 22.9292 103.999 22.7212V0.363955C103.999 0.155981 103.843 0 103.635 0Z" fill="#00839B"/>
<path d="M95.6794 0H92.6638C92.4558 0 92.2998 0.155981 92.2998 0.363955V22.7212C92.2998 22.9292 92.4558 23.0852 92.6638 23.0852H95.6794C95.8874 23.0852 96.0433 22.9292 96.0433 22.7212V0.363955C96.0433 0.155981 95.8874 0 95.6794 0Z" fill="#00839B"/>
<path d="M87.7254 6.08319H84.7098C84.5018 6.08319 84.3458 6.23917 84.3458 6.44715V7.53902C82.838 6.39516 80.9143 5.71924 78.8865 5.71924C74.2591 5.77123 70.3076 9.51477 70.0996 14.1422C69.8396 19.2376 73.9471 23.5011 78.9905 23.5011C81.0182 23.5011 82.89 22.8251 84.3458 21.6813V22.7732C84.3458 22.9811 84.5018 23.1371 84.7098 23.1371H87.7254C87.9334 23.1371 88.0894 22.9811 88.0894 22.7732V6.44715C88.0894 6.23917 87.9334 6.08319 87.7254 6.08319ZM84.0339 15.494C83.6699 17.6258 81.9541 19.3416 79.8224 19.7055C76.2868 20.2775 73.2712 17.2618 73.8431 13.7263C74.2071 11.5945 75.9229 9.87873 78.0546 9.51477C81.5902 8.89085 84.6058 11.9585 84.0339 15.494Z" fill="#00839B"/>
<path d="M49.1468 9.41079C50.2386 9.41079 51.2265 9.72275 52.0064 10.2947C52.0584 10.3467 52.0584 10.3467 52.1104 10.3987C52.4224 10.6066 52.7343 10.7106 53.0983 10.7106C54.1382 10.7106 54.9701 9.87873 54.9701 8.83886C54.9701 8.26693 54.7101 7.74699 54.2941 7.38303C54.2421 7.33104 54.1902 7.27905 54.1382 7.27905C52.7343 6.29117 50.9665 5.71924 49.1468 5.71924C44.2594 5.71924 40.2559 9.72275 40.2559 14.6102C40.2559 19.4976 44.2594 23.5011 49.1468 23.5011C50.9665 23.5011 52.6823 22.9291 54.1382 21.9932C54.1902 21.9413 54.2941 21.8893 54.3461 21.8373C54.7621 21.4733 55.0221 20.9534 55.0221 20.3814C55.0221 19.3416 54.1902 18.5097 53.1503 18.5097C52.7863 18.5097 52.4224 18.6137 52.1104 18.8216L52.0584 18.8736C51.2265 19.4456 50.2386 19.7575 49.1468 19.7575C46.2871 19.7575 43.9474 17.4178 43.9474 14.5582C43.9994 11.7505 46.2871 9.41079 49.1468 9.41079Z" fill="#00839B"/>
<path d="M17.7935 0.363955C17.7935 0.155981 17.6375 0 17.4296 0H14.4139C14.206 0 14.05 0.155981 14.05 0.363955V7.27911C12.4902 6.23924 10.6704 5.61531 8.64264 5.7193C4.0672 5.82329 0.271666 9.56683 0.0116978 14.1423C-0.24827 19.2376 3.85923 23.5011 8.90261 23.5011C9.83849 23.5011 10.7744 23.3451 11.6063 23.0852C11.7103 23.0332 11.8662 23.0332 11.9702 22.9812C12.5942 22.6692 13.0621 22.0453 13.0621 21.2654C13.0621 20.2255 12.2302 19.3936 11.1903 19.3936C11.0343 19.3936 10.8784 19.3936 10.7224 19.4456C10.6704 19.4976 10.5664 19.4976 10.5144 19.4976C9.94248 19.6536 9.31856 19.7576 8.69464 19.7056C6.04296 19.5496 3.91122 17.3659 3.80723 14.7142C3.70325 11.8026 6.09495 9.41085 8.9546 9.41085C11.5543 9.41085 13.686 11.3346 14.05 13.8303C14.102 14.0903 14.102 14.2983 14.102 14.5582C14.102 14.9742 14.05 15.3901 13.946 15.7541C13.946 15.8061 13.894 15.9101 13.894 15.962C13.894 16.014 13.842 16.17 13.842 16.222C13.738 17.1059 14.3619 17.9898 15.2458 18.1978C16.2337 18.4577 17.1176 17.8858 17.4816 17.0539C17.5336 16.9499 17.6375 16.482 17.6375 16.378C17.7935 15.7541 17.8455 15.1301 17.8455 14.5062C17.8455 14.5062 17.8455 14.5062 17.8455 14.4542V0.363955H17.7935Z" fill="#00839B"/>
<path d="M67.1368 19.3936C66.8248 19.3936 66.5648 19.4456 66.3049 19.5496L66.2009 19.6016C65.8889 19.7576 65.525 19.7576 65.109 19.7056C64.1211 19.5496 63.4452 18.6657 63.4452 17.6778V9.41085H68.2286C68.4366 9.41085 68.5926 9.25487 68.5926 9.04689V6.44721C68.5926 6.23924 68.4366 6.08326 68.2286 6.08326H63.4452V0.363955C63.4452 0.155981 63.2892 0 63.0813 0H60.0656C59.8577 0 59.7017 0.155981 59.7017 0.363955V6.03126H57.154C56.946 6.03126 56.79 6.18724 56.79 6.39522V8.9949C56.79 9.20287 56.946 9.35886 57.154 9.35886H59.7017V17.4699C59.7017 20.6415 62.1974 23.3971 65.421 23.3971C66.2009 23.3971 66.9288 23.2932 67.6047 22.9812C67.6047 22.9812 67.6567 22.9812 67.6567 22.9292C67.7607 22.8772 67.8647 22.8252 67.9167 22.8252L68.0207 22.7732C68.6446 22.4093 69.0605 21.6294 68.9046 20.7975C68.8006 20.0695 68.0207 19.4456 67.1368 19.3936Z" fill="#00839B"/>
</svg>
