<svg width="296" height="388" viewBox="0 0 296 388" fill="none" xmlns="http://www.w3.org/2000/svg">
<path opacity="0.0344828" d="M120.617 -44.9035C123.818 -45.1835 127.133 -44.066 130.544 -41.5452C133.96 -39.0201 137.425 -35.1184 140.882 -29.9343C147.796 -19.5667 154.575 -4.22458 160.833 14.9938C173.344 53.4169 183.712 107.147 188.955 167.069C194.197 226.991 193.317 281.705 187.668 321.717C184.842 341.73 180.83 358.016 175.822 369.426C173.317 375.132 170.582 379.576 167.656 382.656C164.736 385.731 161.665 387.407 158.464 387.687C155.264 387.967 151.948 386.85 148.538 384.329C145.122 381.804 141.656 377.902 138.199 372.718C131.286 362.35 124.506 347.008 118.248 327.79C105.737 289.367 95.369 235.637 90.1265 175.715C84.884 115.793 85.7645 61.0791 91.4137 21.0672C94.2393 1.05409 98.2515 -15.2321 103.26 -26.6427C105.764 -32.3484 108.499 -36.7926 111.425 -39.8726C114.346 -42.9472 117.417 -44.6235 120.617 -44.9035Z" stroke="#005F71" stroke-opacity="0.05" stroke-width="1.74045"/>
<path opacity="0.0689655" d="M140.77 -46.9589C143.983 -46.9589 147.188 -45.5567 150.366 -42.7483C153.549 -39.9351 156.661 -35.7462 159.653 -30.2804C165.637 -19.3497 171.053 -3.47519 175.612 16.2154C184.727 55.5827 190.373 110.012 190.373 170.163C190.373 230.313 184.727 284.742 175.612 324.11C171.053 343.8 165.637 359.675 159.653 370.606C156.661 376.071 153.549 380.26 150.366 383.073C147.188 385.882 143.983 387.284 140.77 387.284C137.557 387.284 134.352 385.882 131.174 383.073C127.991 380.26 124.879 376.071 121.887 370.606C115.903 359.675 110.487 343.8 105.928 324.11C96.8129 284.742 91.1671 230.313 91.1671 170.163C91.1671 110.012 96.8129 55.5827 105.928 16.2154C110.487 -3.47519 115.903 -19.3497 121.887 -30.2804C124.879 -35.7462 127.991 -39.9351 131.174 -42.7483C134.352 -45.5567 137.557 -46.9589 140.77 -46.9589Z" stroke="#005F71" stroke-opacity="0.05" stroke-width="1.74045"/>
<path opacity="0.103448" d="M160.925 -47.3623C164.126 -47.0823 167.197 -45.406 170.118 -42.3314C173.044 -39.2514 175.779 -34.8072 178.283 -29.1015C183.291 -17.6909 187.303 -1.4047 190.129 18.6084C195.778 58.6203 196.659 113.334 191.416 173.256C186.174 233.178 175.806 286.908 163.294 325.331C157.036 344.549 150.257 359.892 143.343 370.259C139.886 375.443 136.421 379.345 133.005 381.87C129.595 384.391 126.279 385.508 123.079 385.228C119.878 384.948 116.807 383.272 113.886 380.197C110.96 377.117 108.225 372.673 105.721 366.968C100.713 355.557 96.7007 339.271 93.8751 319.258C88.2259 279.246 87.3453 224.532 92.5878 164.61C97.8303 104.688 108.198 50.9581 120.71 12.535C126.968 -6.68337 133.747 -22.0254 140.661 -32.393C144.118 -37.5772 147.583 -41.4789 150.999 -44.004C154.409 -46.5248 157.725 -47.6423 160.925 -47.3623Z" stroke="#005F71" stroke-opacity="0.05" stroke-width="1.74045"/>
<path opacity="0.137931" d="M180.936 -46.1221C184.1 -45.5643 187.013 -43.6267 189.655 -40.3092C192.301 -36.9859 194.638 -32.3203 196.636 -26.418C200.63 -14.6143 203.208 1.95956 204.278 22.1427C206.419 62.4948 202.527 117.077 192.082 176.314C181.637 235.551 166.626 288.173 150.813 325.359C142.904 343.959 134.814 358.652 127.023 368.378C123.127 373.241 119.335 376.826 115.712 379.043C112.094 381.257 108.694 382.082 105.53 381.524C102.366 380.966 99.4532 379.028 96.8114 375.711C94.1652 372.388 91.8278 367.722 89.8303 361.82C85.8357 350.016 83.2583 333.442 82.1876 313.259C80.0472 272.907 83.9386 218.324 94.3837 159.087C104.829 99.8503 119.84 47.2286 135.653 10.0422C143.562 -8.55761 151.653 -23.2505 159.443 -32.976C163.339 -37.8392 167.131 -41.424 170.755 -43.6418C174.372 -45.8557 177.772 -46.68 180.936 -46.1221Z" stroke="#005F71" stroke-opacity="0.05" stroke-width="1.74045"/>
<path opacity="0.172414" d="M200.658 -43.2531C203.761 -42.4216 206.495 -40.2375 208.837 -36.7024C211.184 -33.1611 213.106 -28.3095 214.581 -22.2556C217.532 -10.1487 218.655 6.58679 217.962 26.7865C216.578 67.1715 207.944 121.207 192.376 179.308C176.807 237.41 157.267 288.523 138.273 324.19C128.773 342.029 119.433 355.961 110.824 364.971C106.519 369.476 102.429 372.716 98.6263 374.61C94.83 376.5 91.3708 377.025 88.2676 376.194C85.1644 375.362 82.4311 373.178 80.0886 369.643C77.742 366.102 75.8201 361.25 74.3447 355.196C71.394 343.089 70.2709 326.354 70.9635 306.154C72.3481 265.769 80.9819 211.733 96.5501 153.632C112.118 95.5308 131.659 44.4176 150.652 8.75087C160.152 -9.08885 169.493 -23.0206 178.102 -32.0302C182.406 -36.5353 186.497 -39.776 190.299 -41.6695C194.096 -43.5598 197.555 -44.0846 200.658 -43.2531Z" stroke="#005F71" stroke-opacity="0.05" stroke-width="1.74045"/>
<path opacity="0.206897" d="M219.954 -38.7886C222.973 -37.6898 225.505 -35.2758 227.531 -31.55C229.56 -27.8177 231.052 -22.817 231.994 -16.6576C233.878 -4.33954 233.538 12.4301 231.088 32.4926C226.189 72.6033 212.878 125.681 192.305 182.204C171.733 238.727 147.811 287.943 125.782 321.819C114.763 338.762 104.244 351.827 94.8826 360.052C90.2016 364.165 85.8445 367.037 81.8912 368.592C77.9446 370.144 74.4529 370.365 71.4339 369.266C68.415 368.168 65.8824 365.754 63.8569 362.028C61.8279 358.295 60.3362 353.295 59.394 347.135C57.5097 334.817 57.8495 318.048 60.2999 297.985C65.1991 257.874 78.5095 204.797 99.0824 148.274C119.655 91.7503 143.576 42.5348 165.606 8.65918C176.625 -8.28467 187.144 -21.3494 196.505 -29.5744C201.186 -33.6871 205.543 -36.559 209.497 -38.1139C213.443 -39.6661 216.935 -39.8874 219.954 -38.7886Z" stroke="#005F71" stroke-opacity="0.05" stroke-width="1.74045"/>
<path opacity="0.241379" d="M238.686 -32.7706C241.597 -31.4128 243.91 -28.7873 245.603 -24.8991C247.299 -21.0041 248.349 -15.8925 248.751 -9.67436C249.554 2.761 247.754 19.4372 243.565 39.2098C235.188 78.7408 217.303 130.456 191.882 184.971C166.461 239.487 138.341 286.43 113.443 318.257C100.989 334.176 89.3717 346.274 79.3292 353.652C74.3076 357.341 69.7168 359.822 65.6429 361.027C61.5761 362.229 58.0784 362.145 55.1667 360.787C52.255 359.43 49.9425 356.804 48.2494 352.916C46.5534 349.021 45.5032 343.909 45.1014 337.691C44.2979 325.256 46.098 308.579 50.2876 288.807C58.664 249.276 76.5498 197.56 101.971 143.045C127.392 88.5301 155.511 41.5867 180.409 9.75997C192.863 -6.15906 204.481 -18.2573 214.523 -25.635C219.545 -29.3242 224.136 -31.8054 228.209 -33.0098C232.276 -34.2121 235.774 -34.1283 238.686 -32.7706Z" stroke="#005F71" stroke-opacity="0.05" stroke-width="1.74045"/>
<path opacity="0.275862" d="M256.716 -25.2535C259.498 -23.6472 261.573 -20.83 262.921 -16.8091C264.271 -12.7812 264.872 -7.59746 264.73 -1.36795C264.447 11.0901 261.2 27.546 255.303 46.8782C243.513 85.5288 221.188 135.489 191.113 187.581C161.037 239.673 128.933 283.987 101.356 313.522C87.5621 328.295 74.9342 339.335 64.2869 345.81C58.9628 349.047 54.1732 351.119 50.0099 351.963C45.8538 352.807 42.3767 352.418 39.5944 350.812C36.8121 349.206 34.7372 346.389 33.3895 342.368C32.0394 338.34 31.4387 333.156 31.5804 326.926C31.8638 314.468 35.1104 298.012 41.0074 278.68C52.7973 240.03 75.1223 190.07 105.198 137.978C135.273 85.8856 167.377 41.5717 194.955 12.0361C208.748 -2.73698 221.376 -13.7766 232.023 -20.251C237.347 -23.4885 242.137 -25.5601 246.3 -26.4049C250.457 -27.2482 253.934 -26.8599 256.716 -25.2535Z" stroke="#005F71" stroke-opacity="0.05" stroke-width="1.74045"/>
<path opacity="0.310345" d="M273.921 -16.3067C276.552 -14.464 278.374 -11.4768 279.366 -7.35366C280.36 -3.22341 280.507 1.99293 279.823 8.18638C278.454 20.5724 273.786 36.6827 266.226 55.4273C251.113 92.9032 224.518 140.727 190.017 190C155.516 239.273 119.672 280.62 89.6255 307.64C74.5968 321.154 61.0548 331.051 49.8837 336.573C44.2978 339.334 39.3459 340.98 35.1248 341.459C30.9109 341.937 27.4809 341.247 24.8492 339.404C22.2175 337.562 20.3961 334.574 19.4039 330.451C18.41 326.321 18.2634 321.105 18.9475 314.911C20.3156 302.525 24.9841 286.415 32.5436 267.67C47.6572 230.194 74.2515 182.37 108.753 133.098C143.254 83.825 179.098 42.4777 209.144 15.4581C224.173 1.94343 237.715 -7.95358 248.886 -13.4754C254.472 -16.2365 259.424 -17.8828 263.645 -18.3615C267.859 -18.8394 271.289 -18.1495 273.921 -16.3067Z" stroke="#005F71" stroke-opacity="0.05" stroke-width="1.74045"/>
<path opacity="0.344828" d="M290.179 -6.00638C292.64 -3.9413 294.194 -0.806701 294.823 3.38722C295.454 7.58838 295.145 12.7976 293.924 18.9079C291.481 31.1275 285.427 46.7696 276.262 64.7841C257.94 100.8 227.278 146.124 188.614 192.202C149.95 238.281 110.639 276.347 78.3515 300.645C62.2021 312.798 47.849 321.477 36.2392 326.004C30.4338 328.268 25.3573 329.477 21.1105 329.586C16.8711 329.694 13.5142 328.708 11.0531 326.643C8.59208 324.578 7.03793 321.443 6.40888 317.249C5.77876 313.048 6.08731 307.839 7.3086 301.729C9.751 289.509 15.8058 273.867 24.9703 255.853C43.2926 219.837 73.9539 174.512 112.618 128.434C151.282 82.356 190.594 44.29 222.881 19.9919C239.03 7.83855 253.383 -0.840535 264.993 -5.36773C270.799 -7.6315 275.875 -8.83995 280.122 -8.94892C284.361 -9.05769 287.718 -8.07147 290.179 -6.00638Z" stroke="#005F71" stroke-opacity="0.05" stroke-width="1.74045"/>
<path opacity="0.37931" d="M305.376 5.55839C307.648 7.83012 308.923 11.0882 309.184 15.321C309.446 19.5611 308.684 24.7237 306.935 30.7042C303.437 42.6645 296.042 57.7193 285.342 74.8665C263.951 109.149 229.456 151.628 186.923 194.161C144.389 236.694 101.91 271.189 67.628 292.581C50.4809 303.28 35.426 310.675 23.4657 314.173C17.4852 315.923 12.3226 316.684 8.08254 316.422C3.84974 316.161 0.591616 314.886 -1.68011 312.615C-3.95183 310.343 -5.22686 307.085 -5.48799 302.852C-5.74956 298.612 -4.98816 293.449 -3.23898 287.469C0.259134 275.509 7.65424 260.454 18.3538 243.306C39.7455 209.024 74.2403 166.545 116.773 124.012C159.307 81.4788 201.786 46.984 236.068 25.5923C253.215 14.8927 268.27 7.49762 280.23 3.99951C286.211 2.25033 291.373 1.48892 295.613 1.7505C299.846 2.01163 303.104 3.28667 305.376 5.55839Z" stroke="#005F71" stroke-opacity="0.05" stroke-width="1.74045"/>
<path opacity="0.413793" d="M319.403 18.2917C321.468 20.7528 322.454 24.1097 322.346 28.3491C322.237 32.5959 321.028 37.6724 318.765 43.4778C314.237 55.0876 305.558 69.4407 293.405 85.59C269.107 117.877 231.041 157.189 184.963 195.853C138.884 234.517 93.5603 265.178 57.5442 283.501C39.5297 292.665 23.8876 298.72 11.668 301.162C5.55775 302.384 0.348481 302.692 -3.85268 302.062C-8.04661 301.433 -11.1812 299.879 -13.2463 297.418C-15.3114 294.957 -16.2976 291.6 -16.1888 287.36C-16.0798 283.114 -14.8714 278.037 -12.6076 272.232C-8.08043 260.622 0.598655 246.269 12.752 230.119C37.0501 197.832 75.1161 158.521 121.194 119.857C167.273 81.1925 212.597 50.5312 248.613 32.2088C266.627 23.0444 282.269 16.9896 294.489 14.5472C300.599 13.3259 305.808 13.0173 310.01 13.6475C314.203 14.2765 317.338 15.8307 319.403 18.2917Z" stroke="#005F71" stroke-opacity="0.05" stroke-width="1.74045"/>
<path opacity="0.448276" d="M332.164 32.0899C334.007 34.7216 334.697 38.1516 334.219 42.3654C333.74 46.5865 332.094 51.5384 329.333 57.1244C323.811 68.2955 313.914 81.8375 300.399 96.8662C273.38 126.913 232.032 162.757 182.76 197.258C133.487 231.759 85.6631 258.354 48.1871 273.467C29.4425 281.027 13.3322 285.695 0.946224 287.063C-5.24722 287.747 -10.4636 287.601 -14.5938 286.607C-18.717 285.615 -21.7042 283.793 -23.5469 281.161C-25.3896 278.53 -26.0795 275.1 -25.6017 270.886C-25.123 266.665 -23.4767 261.713 -20.7156 256.127C-15.1937 244.956 -5.29671 231.414 8.2179 216.385C35.2376 186.338 76.5849 150.494 125.858 115.993C175.13 81.4922 222.954 54.8978 260.43 39.7842C279.175 32.2247 295.285 27.5562 307.671 26.1882C313.865 25.5041 319.081 25.6507 323.211 26.6446C327.334 27.6368 330.321 29.4582 332.164 32.0899Z" stroke="#005F71" stroke-opacity="0.05" stroke-width="1.74045"/>
<path opacity="0.482759" d="M343.572 46.8341C345.179 49.6164 345.567 53.0935 344.724 57.2496C343.879 61.4129 341.807 66.2025 338.57 71.5266C332.095 82.1739 321.056 94.8018 306.283 108.595C276.747 136.173 232.433 168.277 180.341 198.352C128.249 228.428 78.2891 250.753 39.6385 262.543C20.3064 268.44 3.85046 271.686 -8.60763 271.97C-14.8371 272.111 -20.0208 271.511 -24.0487 270.16C-28.0697 268.813 -30.8868 266.738 -32.4932 263.956C-34.0995 261.173 -34.4879 257.696 -33.6446 253.54C-32.7998 249.377 -30.7282 244.587 -27.4907 239.263C-21.0163 228.616 -9.97665 215.988 4.79638 202.194C34.332 174.617 78.6459 142.513 130.738 112.437C182.83 82.362 232.79 60.037 271.441 48.2471C290.773 42.3501 307.229 39.1035 319.687 38.8201C325.916 38.6784 331.1 39.2791 335.128 40.6292C339.149 41.9769 341.966 44.0518 343.572 46.8341Z" stroke="#005F71" stroke-opacity="0.05" stroke-width="1.74045"/>
<path opacity="0.517241" d="M353.549 62.4023C354.906 65.314 354.99 68.8117 353.788 72.8786C352.583 76.9524 350.102 81.5432 346.413 86.5648C339.035 96.6074 326.937 108.225 311.018 120.679C279.191 145.577 232.248 173.696 177.733 199.117C123.217 224.538 71.5021 242.424 31.971 250.8C12.1985 254.99 -4.47776 256.79 -16.9131 255.987C-23.1313 255.585 -28.2429 254.535 -32.1378 252.839C-36.026 251.146 -38.6516 248.833 -40.0093 245.921C-41.3671 243.01 -41.4509 239.512 -40.2486 235.445C-39.0442 231.371 -36.563 226.78 -32.8738 221.759C-25.496 211.716 -13.3978 200.099 2.52118 187.645C34.3479 162.747 81.2913 134.627 135.806 109.206C190.322 83.7855 242.037 65.8996 281.568 57.5233C301.341 53.3336 318.017 51.5336 330.452 52.3371C336.67 52.7388 341.782 53.789 345.677 55.485C349.565 57.1781 352.191 59.4906 353.549 62.4023Z" stroke="#005F71" stroke-opacity="0.05" stroke-width="1.74045"/>
<path opacity="0.551724" d="M362.029 78.6733C363.128 81.6922 362.907 85.1839 361.354 89.1305C359.8 93.0839 356.928 97.4409 352.815 102.122C344.59 111.483 331.525 122.002 314.581 133.021C280.706 155.051 231.49 178.972 174.967 199.545C118.443 220.118 65.366 233.428 25.2553 238.327C5.19289 240.778 -11.5768 241.117 -23.8948 239.233C-30.0543 238.291 -35.0549 236.799 -38.7872 234.77C-42.513 232.745 -44.9271 230.212 -46.0259 227.193C-47.1247 224.174 -46.9033 220.682 -45.3511 216.736C-43.7962 212.783 -40.9244 208.425 -36.8116 203.744C-28.5866 194.383 -15.5219 183.864 1.42192 172.845C35.2976 150.816 84.5131 126.895 141.036 106.322C197.56 85.7489 250.637 72.4384 290.748 67.5393C310.81 65.0889 327.58 64.7491 339.898 66.6333C346.058 67.5755 351.058 69.0673 354.79 71.0963C358.516 73.1218 360.93 75.6543 362.029 78.6733Z" stroke="#005F71" stroke-opacity="0.05" stroke-width="1.74045"/>
<path opacity="0.586207" d="M368.954 95.5068C369.786 98.6101 369.261 102.069 367.371 105.865C365.477 109.668 362.236 113.758 357.731 118.063C348.722 126.672 334.79 136.012 316.95 145.512C281.283 164.506 230.17 184.047 172.069 199.615C113.968 215.183 59.9321 223.817 19.5471 225.201C-0.652587 225.894 -17.3881 224.771 -29.495 221.82C-35.5489 220.345 -40.4005 218.423 -43.9417 216.076C-47.4769 213.734 -49.661 211 -50.4925 207.897C-51.324 204.794 -50.7992 201.335 -48.9089 197.539C-47.0154 193.736 -43.7747 189.646 -39.2696 185.341C-30.26 176.732 -16.3282 167.392 1.51148 157.892C37.1783 138.898 88.2914 119.357 146.393 103.789C204.494 88.2211 258.53 79.5873 298.915 78.2027C319.114 77.5101 335.85 78.6332 347.957 81.5839C354.011 83.0593 358.862 84.9812 362.403 87.3278C365.939 89.6703 368.123 92.4036 368.954 95.5068Z" stroke="#005F71" stroke-opacity="0.05" stroke-width="1.74045"/>
<path opacity="0.62069" d="M374.286 112.769C374.844 115.933 374.02 119.333 371.806 122.95C369.588 126.573 366.003 130.366 361.14 134.261C351.414 142.052 336.722 150.143 318.122 158.052C280.935 173.864 228.314 188.876 169.077 199.321C109.84 209.766 55.2571 213.657 14.905 211.517C-5.27814 210.446 -21.852 207.869 -33.6557 203.874C-39.558 201.877 -44.2236 199.54 -47.5469 196.893C-50.8644 194.251 -52.802 191.338 -53.3599 188.174C-53.9177 185.01 -53.0934 181.61 -50.8795 177.993C-48.6617 174.37 -45.0769 170.578 -40.2138 166.682C-30.4882 158.891 -15.7953 150.801 2.80447 142.891C39.9909 127.079 92.6126 112.067 151.85 101.622C211.087 91.1772 265.669 87.2857 306.021 89.4262C326.204 90.4968 342.778 93.0742 354.582 97.0688C360.484 99.0663 365.15 101.404 368.473 104.05C371.791 106.692 373.728 109.605 374.286 112.769Z" stroke="#005F71" stroke-opacity="0.05" stroke-width="1.74045"/>
<path opacity="0.655172" d="M377.988 130.317C378.268 133.518 377.151 136.833 374.63 140.244C372.105 143.66 368.203 147.125 363.019 150.582C352.652 157.496 337.31 164.275 318.091 170.533C279.668 183.044 225.938 193.413 166.016 198.655C106.094 203.898 51.3804 203.017 11.3685 197.368C-8.64459 194.542 -24.9308 190.53 -36.3414 185.522C-42.0471 183.018 -46.4913 180.282 -49.5713 177.357C-52.6459 174.436 -54.3222 171.365 -54.6022 168.164C-54.8822 164.964 -53.7647 161.648 -51.2439 158.238C-48.7188 154.822 -44.8171 151.356 -39.6329 147.899C-29.2653 140.986 -13.9233 134.207 5.29508 127.949C43.7182 115.437 97.448 105.069 157.37 99.8267C217.292 94.5842 272.006 95.4647 312.018 101.114C332.031 103.94 348.317 107.952 359.728 112.96C365.433 115.464 369.878 118.199 372.958 121.125C376.032 124.046 377.708 127.117 377.988 130.317Z" stroke="#005F71" stroke-opacity="0.05" stroke-width="1.74045"/>
<path opacity="0.689655" d="M380.046 148.01C380.046 151.223 378.644 154.428 375.835 157.606C373.022 160.789 368.833 163.901 363.367 166.893C352.437 172.877 336.562 178.293 316.871 182.852C277.504 191.967 223.075 197.613 162.924 197.613C102.773 197.613 48.3445 191.967 8.97721 182.852C-10.7134 178.293 -26.5879 172.877 -37.5187 166.893C-42.9844 163.901 -47.1733 160.789 -49.9865 157.606C-52.7949 154.428 -54.1972 151.223 -54.1972 148.01C-54.1972 144.798 -52.7949 141.592 -49.9865 138.414C-47.1733 135.231 -42.9844 132.119 -37.5187 129.127C-26.5879 123.144 -10.7134 117.727 8.97721 113.168C48.3445 104.053 102.773 98.4073 162.924 98.4073C223.075 98.4073 277.504 104.053 316.871 113.168C336.562 117.727 352.437 123.144 363.367 129.127C368.833 132.119 373.022 135.231 375.835 138.414C378.644 141.592 380.046 144.798 380.046 148.01Z" stroke="#005F71" stroke-opacity="0.05" stroke-width="1.74045"/>
<path opacity="0.724138" d="M380.449 165.703C380.169 168.903 378.493 171.974 375.418 174.895C372.338 177.821 367.894 180.556 362.188 183.06C350.778 188.069 334.492 192.081 314.479 194.906C274.467 200.555 219.753 201.436 159.831 196.194C99.9087 190.951 46.1789 180.583 7.75582 168.071C-11.4625 161.814 -26.8046 155.034 -37.1722 148.121C-42.3564 144.664 -46.2581 141.198 -48.7832 137.782C-51.3039 134.372 -52.4215 131.056 -52.1415 127.856C-51.8615 124.655 -50.1852 121.584 -47.1105 118.664C-44.0306 115.738 -39.5864 113.003 -33.8807 110.498C-22.47 105.49 -6.18385 101.478 13.8292 98.6524C53.8411 93.0032 108.555 92.1227 168.477 97.3652C228.399 102.608 282.129 112.976 320.552 125.487C339.77 131.745 355.112 138.524 365.48 145.438C370.664 148.895 374.566 152.36 377.091 155.776C379.612 159.187 380.729 162.502 380.449 165.703Z" stroke="#005F71" stroke-opacity="0.05" stroke-width="1.74045"/>
<path opacity="0.758621" d="M379.208 183.252C378.65 186.416 376.713 189.329 373.395 191.971C370.072 194.617 365.406 196.955 359.504 198.952C347.7 202.947 331.126 205.524 310.943 206.595C270.591 208.735 216.009 204.844 156.772 194.399C97.5346 183.954 44.9129 168.942 7.72651 153.13C-10.8733 145.221 -25.5661 137.13 -35.2917 129.339C-40.1549 125.443 -43.7397 121.651 -45.9574 118.028C-48.1714 114.411 -48.9957 111.011 -48.4378 107.847C-47.88 104.683 -45.9424 101.77 -42.6249 99.1279C-39.3016 96.4816 -34.636 94.1442 -28.7337 92.1467C-16.93 88.1521 -0.356108 85.5747 19.827 84.5041C60.1791 82.3636 114.762 86.255 173.999 96.7001C233.236 107.145 285.857 122.157 323.044 137.969C341.644 145.878 356.336 153.969 366.062 161.76C370.925 165.656 374.51 169.448 376.728 173.071C378.942 176.688 379.766 180.088 379.208 183.252Z" stroke="#005F71" stroke-opacity="0.05" stroke-width="1.74045"/>
<path opacity="0.793103" d="M376.339 200.513C375.508 203.617 373.323 206.35 369.788 208.693C366.247 211.039 361.395 212.961 355.342 214.436C343.235 217.387 326.499 218.51 306.299 217.818C265.914 216.433 211.879 207.799 153.778 192.231C95.6763 176.663 44.5631 157.122 8.89637 138.129C-8.94333 128.629 -22.8751 119.288 -31.8847 110.679C-36.3898 106.375 -39.6305 102.285 -41.524 98.4817C-43.4143 94.6855 -43.9391 91.2263 -43.1076 88.1231C-42.2761 85.0199 -40.092 82.2866 -36.5568 79.944C-33.0156 77.5975 -28.164 75.6756 -22.1101 74.2001C-10.0032 71.2495 6.73231 70.1264 26.932 70.8189C67.317 72.2035 121.353 80.8373 179.454 96.4055C237.555 111.974 288.668 131.514 324.335 150.508C342.175 160.008 356.107 169.348 365.116 177.957C369.621 182.262 372.862 186.352 374.755 190.155C376.646 193.951 377.171 197.41 376.339 200.513Z" stroke="#005F71" stroke-opacity="0.05" stroke-width="1.74045"/>
<path opacity="0.827586" d="M371.875 217.347C370.776 220.366 368.362 222.899 364.636 224.924C360.904 226.953 355.903 228.445 349.743 229.387C337.425 231.272 320.656 230.932 300.593 228.481C260.483 223.582 207.405 210.272 150.882 189.699C94.3585 169.126 45.143 145.205 11.2674 123.175C-5.67647 112.156 -18.7412 101.637 -26.9662 92.2761C-31.079 87.5952 -33.9508 83.2381 -35.5057 79.2847C-37.0579 75.3381 -37.2792 71.8464 -36.1804 68.8275C-35.0816 65.8085 -32.6676 63.276 -28.9418 61.2505C-25.2095 59.2215 -20.2088 57.7297 -14.0494 56.7876C-1.73134 54.9033 15.0383 55.2431 35.1008 57.6935C75.2114 62.5926 128.289 75.9031 184.812 96.4759C241.336 117.049 290.551 140.97 324.427 163C341.371 174.018 354.435 184.537 362.66 193.899C366.773 198.58 369.645 202.937 371.2 206.89C372.752 210.837 372.973 214.328 371.875 217.347Z" stroke="#005F71" stroke-opacity="0.05" stroke-width="1.74045"/>
<path opacity="0.862069" d="M365.856 233.616C364.498 236.528 361.872 238.841 357.984 240.534C354.089 242.23 348.977 243.28 342.759 243.682C330.324 244.485 313.648 242.685 293.875 238.495C254.344 230.119 202.629 212.233 148.113 186.812C93.5983 161.392 46.6549 133.272 14.8282 108.374C-1.09081 95.9201 -13.189 84.3024 -20.5668 74.2599C-24.256 69.2382 -26.7372 64.6474 -27.9416 60.5736C-29.1439 56.5067 -29.0601 53.009 -27.7023 50.0973C-26.3446 47.1856 -23.719 44.8731 -19.8308 43.1801C-15.9359 41.4841 -10.8243 40.4339 -4.60613 40.0321C7.82924 39.2286 24.5055 41.0286 44.278 45.2183C83.8091 53.5947 135.524 71.4805 190.04 96.9013C244.555 122.322 291.498 150.442 323.325 175.34C339.244 187.794 351.342 199.411 358.72 209.454C362.409 214.475 364.89 219.066 366.095 223.14C367.297 227.207 367.213 230.705 365.856 233.616Z" stroke="#005F71" stroke-opacity="0.05" stroke-width="1.74045"/>
<path opacity="0.896552" d="M358.34 249.187C356.734 251.969 353.917 254.044 349.896 255.392C345.868 256.742 340.684 257.342 334.455 257.201C321.997 256.917 305.541 253.671 286.209 247.774C247.558 235.984 197.598 213.659 145.506 183.583C93.414 153.508 49.1 121.404 19.5644 93.8264C4.79142 80.0328 -6.2482 67.4049 -12.7227 56.7576C-15.9601 51.4335 -18.0317 46.6439 -18.8765 42.4806C-19.7198 38.3245 -19.3315 34.8474 -17.7251 32.0651C-16.1188 29.2828 -13.3017 27.208 -9.28068 25.8602C-5.25277 24.5101 -0.0690629 23.9094 6.16044 24.0511C18.6185 24.3345 35.0744 27.5811 54.4065 33.4781C93.0571 45.268 143.017 67.593 195.109 97.6685C247.201 127.744 291.515 159.848 321.051 187.425C335.824 201.219 346.864 213.847 353.338 224.494C356.575 229.818 358.647 234.608 359.492 238.771C360.335 242.927 359.947 246.404 358.34 249.187Z" stroke="#005F71" stroke-opacity="0.05" stroke-width="1.74045"/>
<path opacity="0.931035" d="M349.395 263.933C347.552 266.564 344.565 268.386 340.442 269.378C336.311 270.372 331.095 270.518 324.902 269.834C312.516 268.466 296.405 263.798 277.661 256.238C240.185 241.125 192.361 214.53 143.088 180.029C93.8153 145.528 52.468 109.684 25.4483 79.6372C11.9337 64.6086 2.03672 51.0665 -3.48512 39.8954C-6.24624 34.3095 -7.89254 29.3576 -8.37123 25.1365C-8.84909 20.9226 -8.15919 17.4926 -6.31646 14.8609C-4.47373 12.2292 -1.48651 10.4078 2.63664 9.41563C6.76689 8.42174 11.9832 8.27511 18.1767 8.9592C30.5627 10.3273 46.673 14.9958 65.4176 22.5553C102.894 37.6689 150.717 64.2633 199.99 98.7644C249.263 133.266 290.61 169.109 317.63 199.156C331.144 214.185 341.041 227.727 346.563 238.898C349.324 244.484 350.971 249.436 351.449 253.657C351.927 257.871 351.237 261.301 349.395 263.933Z" stroke="#005F71" stroke-opacity="0.05" stroke-width="1.74045"/>
<path opacity="0.965517" d="M339.094 277.728C337.029 280.189 333.895 281.743 329.701 282.372C325.5 283.002 320.29 282.694 314.18 281.473C301.96 279.03 286.318 272.975 268.304 263.811C232.288 245.489 186.964 214.827 140.885 176.163C94.8071 137.499 56.7412 98.1876 32.4431 65.9003C20.2897 49.7509 11.6107 35.3979 7.08346 23.788C4.81969 17.9827 3.61124 12.9061 3.50228 8.65935C3.39349 4.4199 4.37971 1.06305 6.4448 -1.39802C8.50988 -3.8591 11.6445 -5.41324 15.8384 -6.04229C20.0396 -6.67241 25.2488 -6.36386 31.3591 -5.14257C43.5787 -2.70017 59.2208 3.35467 77.2353 12.5191C113.251 30.8414 158.575 61.5027 204.654 100.167C250.732 138.831 288.798 178.142 313.096 210.43C325.249 226.579 333.928 240.932 338.456 252.542C340.719 258.347 341.928 263.424 342.037 267.671C342.146 271.91 341.159 275.267 339.094 277.728Z" stroke="#005F71" stroke-opacity="0.05" stroke-width="1.74045"/>
<path d="M327.529 290.462C325.257 292.734 321.999 294.009 317.766 294.27C313.526 294.532 308.363 293.77 302.383 292.021C290.422 288.523 275.368 281.128 258.22 270.428C223.938 249.036 181.459 214.542 138.926 172.008C96.3928 129.475 61.8979 86.9961 40.5063 52.7139C29.8067 35.5668 22.4116 20.5119 18.9134 8.55168C17.1643 2.57112 16.4029 -2.59143 16.6644 -6.83152C16.9256 -11.0643 18.2006 -14.3224 20.4723 -16.5942C22.744 -18.8659 26.0022 -20.1409 30.235 -20.4021C34.4751 -20.6636 39.6376 -19.9022 45.6182 -18.153C57.5784 -14.6549 72.6333 -7.25982 89.7804 3.43977C124.063 24.8314 166.542 59.3263 209.075 101.859C251.608 144.392 286.103 186.872 307.495 221.154C318.194 238.301 325.589 253.356 329.087 265.316C330.837 271.297 331.598 276.459 331.336 280.699C331.075 284.932 329.8 288.19 327.529 290.462Z" stroke="#005F71" stroke-opacity="0.05" stroke-width="1.74045"/>
</svg>
