<svg width="1056" height="1346" viewBox="0 0 1056 1346" fill="none" xmlns="http://www.w3.org/2000/svg">
<path opacity="0.0344828" d="M607.45 244.055C614.174 243.467 621.14 245.815 628.305 251.111C635.483 256.416 642.763 264.614 650.027 275.506C664.552 297.288 678.795 329.522 691.943 369.901C718.23 450.628 740.014 563.515 751.028 689.413C762.043 815.31 760.193 930.265 748.324 1014.33C742.387 1056.38 733.957 1090.6 723.435 1114.57C718.174 1126.56 712.427 1135.89 706.28 1142.37C700.143 1148.83 693.691 1152.35 686.966 1152.94C680.242 1153.52 673.276 1151.18 666.111 1145.88C658.934 1140.58 651.653 1132.38 644.39 1121.49C629.864 1099.7 615.621 1067.47 602.473 1027.09C576.186 946.363 554.403 833.476 543.388 707.579C532.373 581.682 534.224 466.727 546.093 382.661C552.029 340.613 560.459 306.395 570.981 282.422C576.243 270.434 581.989 261.096 588.137 254.625C594.273 248.165 600.725 244.644 607.45 244.055Z" stroke="#005F71" stroke-opacity="0.05" stroke-width="3.65672"/>
<path opacity="0.0689655" d="M649.795 239.735C656.545 239.735 663.28 242.681 669.956 248.582C676.644 254.492 683.182 263.293 689.469 274.777C702.04 297.742 713.42 331.095 722.999 372.466C742.15 455.177 754.012 569.533 754.012 695.911C754.012 822.289 742.15 936.646 722.999 1019.36C713.42 1060.73 702.04 1094.08 689.469 1117.05C683.182 1128.53 676.644 1137.33 669.956 1143.24C663.28 1149.14 656.545 1152.09 649.795 1152.09C643.045 1152.09 636.31 1149.14 629.634 1143.24C622.946 1137.33 616.408 1128.53 610.121 1117.05C597.55 1094.08 586.17 1060.73 576.591 1019.36C557.44 936.646 545.578 822.289 545.578 695.911C545.578 569.533 557.44 455.177 576.591 372.466C586.17 331.095 597.55 297.742 610.121 274.777C616.408 263.293 622.946 254.492 629.634 248.582C636.31 242.681 643.045 239.735 649.795 239.735Z" stroke="#005F71" stroke-opacity="0.05" stroke-width="3.65672"/>
<path opacity="0.103448" d="M692.142 238.888C698.866 239.476 705.318 242.998 711.455 249.458C717.602 255.929 723.349 265.266 728.61 277.254C739.133 301.228 747.562 335.446 753.499 377.493C765.368 461.559 767.218 576.514 756.203 702.411C745.189 828.308 723.405 941.196 697.119 1021.92C683.971 1062.3 669.727 1094.54 655.202 1116.32C647.939 1127.21 640.658 1135.41 633.48 1140.71C626.315 1146.01 619.349 1148.36 612.625 1147.77C605.901 1147.18 599.449 1143.66 593.312 1137.2C587.165 1130.73 581.418 1121.39 576.156 1109.4C565.634 1085.43 557.205 1051.21 551.268 1009.16C539.399 925.097 537.549 810.142 548.563 684.245C559.578 558.348 581.362 445.461 607.648 364.733C620.796 324.355 635.039 292.121 649.565 270.339C656.828 259.446 664.109 251.249 671.287 245.944C678.452 240.647 685.418 238.299 692.142 238.888Z" stroke="#005F71" stroke-opacity="0.05" stroke-width="3.65672"/>
<path opacity="0.137931" d="M734.18 241.495C740.827 242.667 746.948 246.738 752.498 253.708C758.058 260.69 762.969 270.493 767.166 282.894C775.559 307.694 780.974 342.516 783.223 384.921C787.72 469.701 779.544 584.38 757.599 708.838C735.654 833.296 704.114 943.855 670.892 1021.98C654.274 1061.06 637.276 1091.93 620.907 1112.37C612.722 1122.58 604.755 1130.12 597.142 1134.78C589.543 1139.43 582.399 1141.16 575.751 1139.99C569.104 1138.81 562.983 1134.74 557.433 1127.77C551.873 1120.79 546.962 1110.99 542.765 1098.59C534.373 1073.79 528.957 1038.97 526.708 996.561C522.211 911.781 530.387 797.102 552.332 672.644C574.278 548.186 605.817 437.627 639.04 359.497C655.657 320.419 672.655 289.549 689.024 269.115C697.209 258.898 705.176 251.366 712.789 246.706C720.388 242.055 727.532 240.323 734.18 241.495Z" stroke="#005F71" stroke-opacity="0.05" stroke-width="3.65672"/>
<path opacity="0.172414" d="M775.617 247.523C782.137 249.27 787.88 253.859 792.802 261.286C797.732 268.726 801.77 278.92 804.87 291.639C811.069 317.076 813.429 352.237 811.974 394.677C809.064 479.527 790.925 593.057 758.216 715.129C725.507 837.2 684.451 944.59 644.546 1019.53C624.586 1057.01 604.962 1086.28 586.874 1105.21C577.83 1114.67 569.236 1121.48 561.247 1125.46C553.271 1129.43 546.003 1130.53 539.483 1128.79C532.963 1127.04 527.22 1122.45 522.299 1115.02C517.368 1107.58 513.331 1097.39 510.231 1084.67C504.031 1059.23 501.672 1024.07 503.127 981.633C506.036 896.784 524.175 783.254 556.885 661.182C589.594 539.11 630.649 431.721 670.554 356.784C690.514 319.303 710.139 290.032 728.226 271.102C737.27 261.637 745.864 254.828 753.853 250.85C761.83 246.879 769.097 245.776 775.617 247.523Z" stroke="#005F71" stroke-opacity="0.05" stroke-width="3.65672"/>
<path opacity="0.206897" d="M816.158 256.904C822.501 259.213 827.822 264.284 832.077 272.113C836.34 279.954 839.474 290.461 841.454 303.402C845.413 329.282 844.699 364.516 839.551 406.667C829.257 490.94 801.292 602.457 758.068 721.214C714.844 839.97 664.585 943.373 618.301 1014.55C595.15 1050.15 573.049 1077.59 553.381 1094.88C543.546 1103.52 534.392 1109.55 526.086 1112.82C517.794 1116.08 510.458 1116.54 504.115 1114.24C497.772 1111.93 492.451 1106.85 488.196 1099.03C483.933 1091.18 480.798 1080.68 478.819 1067.74C474.86 1041.86 475.574 1006.62 480.722 964.472C491.015 880.199 518.981 768.682 562.205 649.925C605.429 531.169 655.687 427.766 701.972 356.593C725.123 320.993 747.224 293.544 766.892 276.263C776.727 267.622 785.881 261.588 794.187 258.322C802.479 255.06 809.815 254.595 816.158 256.904Z" stroke="#005F71" stroke-opacity="0.05" stroke-width="3.65672"/>
<path opacity="0.241379" d="M855.514 269.547C861.631 272.4 866.49 277.916 870.047 286.085C873.61 294.268 875.817 305.008 876.661 318.073C878.349 344.199 874.567 379.237 865.765 420.779C848.166 503.834 810.587 612.489 757.178 727.027C703.768 841.564 644.688 940.193 592.376 1007.06C566.211 1040.51 541.802 1065.93 520.703 1081.43C510.152 1089.18 500.507 1094.39 491.948 1096.92C483.403 1099.45 476.054 1099.27 469.937 1096.42C463.819 1093.57 458.961 1088.05 455.404 1079.88C451.84 1071.7 449.634 1060.96 448.79 1047.89C447.101 1021.77 450.883 986.73 459.686 945.187C477.285 862.132 514.863 753.477 568.273 638.939C621.683 524.402 680.762 425.773 733.074 358.904C759.239 325.458 783.648 300.04 804.748 284.539C815.298 276.788 824.944 271.575 833.503 269.044C842.047 266.518 849.396 266.694 855.514 269.547Z" stroke="#005F71" stroke-opacity="0.05" stroke-width="3.65672"/>
<path opacity="0.275862" d="M893.397 285.34C899.243 288.715 903.602 294.634 906.434 303.082C909.27 311.545 910.532 322.436 910.234 335.524C909.639 361.699 902.818 396.273 890.428 436.89C865.657 518.095 818.752 623.062 755.563 732.509C692.374 841.955 624.923 935.06 566.982 997.115C538.002 1028.15 511.47 1051.35 489.1 1064.95C477.914 1071.75 467.851 1076.1 459.104 1077.88C450.372 1079.65 443.066 1078.84 437.221 1075.46C431.375 1072.09 427.016 1066.17 424.184 1057.72C421.347 1049.26 420.085 1038.36 420.383 1025.28C420.978 999.102 427.8 964.528 440.189 923.911C464.96 842.705 511.865 737.739 575.055 628.292C638.244 518.845 705.694 425.741 763.635 363.686C792.616 332.648 819.147 309.453 841.518 295.85C852.703 289.048 862.766 284.696 871.514 282.921C880.246 281.149 887.551 281.965 893.397 285.34Z" stroke="#005F71" stroke-opacity="0.05" stroke-width="3.65672"/>
<path opacity="0.310345" d="M929.544 304.136C935.073 308.007 938.9 314.284 940.985 322.946C943.073 331.624 943.381 342.584 941.944 355.596C939.069 381.619 929.261 415.467 913.378 454.85C881.624 533.588 825.749 634.067 753.261 737.59C680.774 841.113 605.465 927.984 542.336 984.753C510.761 1013.15 482.309 1033.94 458.838 1045.54C447.102 1051.34 436.698 1054.8 427.829 1055.81C418.976 1056.81 411.769 1055.36 406.24 1051.49C400.711 1047.62 396.884 1041.34 394.799 1032.68C392.711 1024 392.403 1013.04 393.84 1000.03C396.715 974.008 406.523 940.16 422.406 900.777C454.16 822.039 510.035 721.56 582.523 618.037C655.01 514.514 730.319 427.643 793.448 370.874C825.023 342.48 853.475 321.686 876.946 310.084C888.682 304.283 899.086 300.824 907.955 299.819C916.808 298.815 924.015 300.264 929.544 304.136Z" stroke="#005F71" stroke-opacity="0.05" stroke-width="3.65672"/>
<path opacity="0.344828" d="M963.703 325.777C968.874 330.116 972.139 336.702 973.461 345.513C974.785 354.34 974.136 365.285 971.571 378.123C966.439 403.796 953.718 436.661 934.463 474.509C895.968 550.18 831.548 645.406 750.313 742.218C669.079 839.029 586.485 919.006 518.649 970.057C484.719 995.591 454.563 1013.83 430.17 1023.34C417.973 1028.09 407.307 1030.63 398.385 1030.86C389.478 1031.09 382.425 1029.02 377.254 1024.68C372.083 1020.34 368.818 1013.76 367.497 1004.94C366.173 996.117 366.821 985.172 369.387 972.334C374.518 946.661 387.24 913.796 406.494 875.948C444.99 800.277 509.41 705.051 590.644 608.239C671.878 511.428 754.472 431.451 822.308 380.4C856.238 354.866 886.394 336.631 910.787 327.119C922.984 322.363 933.65 319.824 942.572 319.595C951.48 319.366 958.532 321.438 963.703 325.777Z" stroke="#005F71" stroke-opacity="0.05" stroke-width="3.65672"/>
<path opacity="0.37931" d="M995.631 350.077C1000.4 354.85 1003.08 361.695 1003.63 370.589C1004.18 379.497 1002.58 390.344 998.907 402.909C991.557 428.038 976.02 459.668 953.54 495.695C908.596 567.722 836.121 656.972 746.758 746.335C657.396 835.698 568.146 908.172 496.118 953.116C460.092 975.596 428.461 991.134 403.333 998.483C390.767 1002.16 379.921 1003.76 371.012 1003.21C362.119 1002.66 355.274 999.981 350.501 995.208C345.728 990.435 343.049 983.59 342.5 974.696C341.951 965.788 343.55 954.941 347.225 942.376C354.575 917.247 370.112 885.617 392.592 849.59C437.537 777.563 510.011 688.313 599.374 598.95C688.737 509.587 777.986 437.113 850.014 392.169C886.04 369.689 917.671 354.152 942.799 346.802C955.365 343.127 966.211 341.527 975.12 342.077C984.013 342.625 990.858 345.304 995.631 350.077Z" stroke="#005F71" stroke-opacity="0.05" stroke-width="3.65672"/>
<path opacity="0.413793" d="M1025.1 376.83C1029.44 382 1031.52 389.053 1031.29 397.96C1031.06 406.883 1028.52 417.549 1023.76 429.746C1014.25 454.138 996.016 484.295 970.482 518.225C919.431 586.061 839.454 668.654 742.642 749.889C645.831 831.123 550.604 895.543 474.934 934.039C437.085 953.293 404.221 966.015 378.547 971.146C365.709 973.712 354.765 974.36 345.938 973.036C337.126 971.715 330.541 968.449 326.202 963.279C321.863 958.108 319.791 951.055 320.019 942.148C320.248 933.225 322.787 922.56 327.544 910.362C337.055 885.97 355.29 855.814 380.825 821.884C431.875 754.047 511.853 671.454 608.664 590.22C705.475 508.985 800.702 444.565 876.372 406.07C914.221 386.815 947.085 374.094 972.759 368.962C985.597 366.396 996.542 365.748 1005.37 367.072C1014.18 368.394 1020.77 371.659 1025.1 376.83Z" stroke="#005F71" stroke-opacity="0.05" stroke-width="3.65672"/>
<path opacity="0.448276" d="M1051.92 405.815C1055.79 411.344 1057.24 418.551 1056.23 427.404C1055.23 436.273 1051.77 446.677 1045.97 458.413C1034.37 481.884 1013.57 510.336 985.178 541.911C928.409 605.04 841.538 680.349 738.015 752.836C634.492 825.324 534.013 881.199 455.275 912.953C415.893 928.836 382.045 938.644 356.021 941.519C343.009 942.956 332.049 942.648 323.372 940.56C314.709 938.475 308.433 934.648 304.561 929.119C300.689 923.59 299.24 916.383 300.244 907.53C301.25 898.661 304.708 888.257 310.51 876.521C322.111 853.05 342.905 824.598 371.299 793.023C428.068 729.894 514.94 654.585 618.462 582.098C721.985 509.61 822.464 453.735 901.202 421.981C940.585 406.098 974.433 396.29 1000.46 393.415C1013.47 391.978 1024.43 392.286 1033.11 394.374C1041.77 396.459 1048.04 400.286 1051.92 405.815Z" stroke="#005F71" stroke-opacity="0.05" stroke-width="3.65672"/>
<path opacity="0.482759" d="M1075.88 436.794C1079.26 442.64 1080.07 449.945 1078.3 458.677C1076.53 467.424 1072.17 477.487 1065.37 488.673C1051.77 511.044 1028.58 537.575 997.537 566.556C935.482 624.496 842.377 691.947 732.931 755.136C623.484 818.325 518.518 865.231 437.312 890.002C396.695 902.391 362.121 909.213 335.946 909.808C322.858 910.106 311.967 908.843 303.504 906.007C295.056 903.175 289.137 898.816 285.762 892.97C282.387 887.125 281.571 879.819 283.343 871.087C285.118 862.34 289.47 852.277 296.272 841.091C309.875 818.721 333.07 792.189 364.108 763.209C426.163 705.268 519.268 637.817 628.714 574.628C738.161 511.439 843.127 464.534 924.333 439.763C964.95 427.373 999.524 420.552 1025.7 419.957C1038.79 419.659 1049.68 420.921 1058.14 423.757C1066.59 426.589 1072.51 430.948 1075.88 436.794Z" stroke="#005F71" stroke-opacity="0.05" stroke-width="3.65672"/>
<path opacity="0.517241" d="M1096.85 469.508C1099.7 475.625 1099.87 482.974 1097.35 491.519C1094.82 500.078 1089.61 509.723 1081.85 520.274C1066.35 541.373 1040.93 565.782 1007.49 591.947C940.62 644.259 841.991 703.339 727.454 756.749C612.916 810.158 504.261 847.737 421.206 865.336C379.663 874.138 344.626 877.92 318.499 876.232C305.435 875.388 294.695 873.181 286.512 869.618C278.343 866.061 272.826 861.202 269.974 855.085C267.121 848.967 266.945 841.618 269.471 833.074C272.001 824.515 277.214 814.869 284.965 804.319C300.466 783.219 325.885 758.81 359.331 732.645C426.2 680.333 524.828 621.254 639.366 567.844C753.903 514.434 862.558 476.856 945.614 459.257C987.156 450.454 1022.19 446.672 1048.32 448.361C1061.38 449.205 1072.12 451.411 1080.31 454.975C1088.48 458.532 1093.99 463.39 1096.85 469.508Z" stroke="#005F71" stroke-opacity="0.05" stroke-width="3.65672"/>
<path opacity="0.551724" d="M1114.66 503.692C1116.97 510.035 1116.51 517.371 1113.24 525.663C1109.98 533.969 1103.94 543.124 1095.3 552.958C1078.02 572.627 1050.57 594.727 1014.97 617.878C943.8 664.163 840.398 714.422 721.641 757.645C602.885 800.869 491.368 828.835 407.094 839.128C364.943 844.276 329.71 844.99 303.829 841.031C290.888 839.052 280.382 835.918 272.54 831.655C264.712 827.399 259.64 822.078 257.331 815.735C255.023 809.392 255.488 802.056 258.749 793.764C262.016 785.458 268.05 776.304 276.691 766.469C293.972 746.801 321.421 724.7 357.02 701.55C428.193 655.265 531.596 605.006 650.353 561.782C769.109 518.558 880.626 490.593 964.899 480.3C1007.05 475.151 1042.28 474.437 1068.16 478.396C1081.11 480.376 1091.61 483.51 1099.45 487.773C1107.28 492.029 1112.35 497.349 1114.66 503.692Z" stroke="#005F71" stroke-opacity="0.05" stroke-width="3.65672"/>
<path opacity="0.586207" d="M1129.21 539.059C1130.96 545.578 1129.86 552.846 1125.88 560.822C1121.91 568.812 1115.1 577.406 1105.63 586.45C1086.7 604.537 1057.43 624.161 1019.95 644.121C945.014 684.027 837.625 725.082 715.553 757.791C593.481 790.5 479.951 808.64 395.101 811.549C352.661 813.004 317.5 810.645 292.063 804.445C279.344 801.345 269.15 797.307 261.71 792.377C254.283 787.455 249.694 781.713 247.947 775.193C246.2 768.673 247.303 761.405 251.274 753.429C255.252 745.439 262.061 736.846 271.526 727.801C290.456 709.714 319.727 690.09 357.208 670.13C432.145 630.225 539.534 589.169 661.606 556.46C783.678 523.751 897.208 505.611 982.057 502.702C1024.5 501.247 1059.66 503.607 1085.1 509.806C1097.82 512.906 1108.01 516.944 1115.45 521.874C1122.88 526.796 1127.46 532.539 1129.21 539.059Z" stroke="#005F71" stroke-opacity="0.05" stroke-width="3.65672"/>
<path opacity="0.62069" d="M1140.41 575.329C1141.59 581.976 1139.85 589.12 1135.2 596.72C1130.54 604.332 1123.01 612.3 1112.79 620.485C1092.36 636.853 1061.49 653.852 1022.41 670.469C944.282 703.691 833.723 735.231 709.265 757.176C584.807 779.122 470.128 787.298 385.348 782.8C342.943 780.551 308.121 775.136 283.321 766.743C270.92 762.546 261.118 757.635 254.135 752.076C247.165 746.525 243.094 740.404 241.922 733.757C240.75 727.11 242.482 719.966 247.133 712.366C251.793 704.754 259.325 696.786 269.542 688.601C289.976 672.232 320.846 655.234 359.924 638.617C438.054 605.394 548.613 573.855 673.071 551.91C797.529 529.964 912.208 521.788 996.988 526.285C1039.39 528.535 1074.22 533.95 1099.02 542.343C1111.42 546.539 1121.22 551.45 1128.2 557.01C1135.17 562.561 1139.24 568.681 1140.41 575.329Z" stroke="#005F71" stroke-opacity="0.05" stroke-width="3.65672"/>
<path opacity="0.655172" d="M1148.19 612.198C1148.78 618.922 1146.44 625.888 1141.14 633.053C1135.83 640.231 1127.64 647.511 1116.74 654.775C1094.96 669.3 1062.73 683.543 1022.35 696.691C941.622 722.978 828.735 744.762 702.837 755.776C576.94 766.791 461.985 764.941 377.919 753.072C335.872 747.135 301.654 738.705 277.68 728.183C265.692 722.922 256.355 717.175 249.884 711.028C243.424 704.891 239.902 698.439 239.314 691.715C238.726 684.99 241.074 678.024 246.37 670.859C251.675 663.682 259.872 656.401 270.765 649.138C292.547 634.612 324.781 620.369 365.159 607.221C445.887 580.934 558.774 559.151 684.671 548.136C810.568 537.122 925.523 538.972 1009.59 550.841C1051.64 556.777 1085.85 565.207 1109.83 575.729C1121.82 580.991 1131.15 586.737 1137.62 592.885C1144.08 599.021 1147.61 605.474 1148.19 612.198Z" stroke="#005F71" stroke-opacity="0.05" stroke-width="3.65672"/>
<path opacity="0.689655" d="M1152.51 649.371C1152.51 656.121 1149.57 662.856 1143.67 669.532C1137.76 676.22 1128.95 682.759 1117.47 689.045C1094.51 701.617 1061.15 712.996 1019.78 722.575C937.071 741.726 822.715 753.588 696.337 753.588C569.959 753.588 455.602 741.726 372.891 722.575C331.521 712.996 298.168 701.617 275.202 689.045C263.719 682.759 254.918 676.22 249.007 669.532C243.107 662.856 240.16 656.121 240.16 649.371C240.16 642.621 243.107 635.887 249.007 629.21C254.918 622.522 263.719 615.984 275.202 609.697C298.168 597.126 331.521 585.746 372.891 576.167C455.602 557.017 569.959 545.155 696.337 545.155C822.715 545.155 937.071 557.017 1019.78 576.167C1061.15 585.746 1094.51 597.126 1117.47 609.697C1128.95 615.984 1137.76 622.522 1143.67 629.21C1149.57 635.887 1152.51 642.621 1152.51 649.371Z" stroke="#005F71" stroke-opacity="0.05" stroke-width="3.65672"/>
<path opacity="0.724138" d="M1153.37 686.544C1152.78 693.268 1149.26 699.721 1142.8 705.857C1136.32 712.005 1126.99 717.751 1115 723.013C1091.03 733.535 1056.81 741.965 1014.76 747.901C930.695 759.77 815.74 761.62 689.843 750.606C563.945 739.591 451.058 717.808 370.331 691.521C329.952 678.373 297.718 664.13 275.936 649.604C265.044 642.341 256.846 635.06 251.541 627.883C246.245 620.717 243.897 613.752 244.485 607.027C245.074 600.303 248.595 593.851 255.055 587.714C261.526 581.567 270.864 575.82 282.852 570.559C306.825 560.036 341.043 551.607 383.091 545.67C467.157 533.801 582.112 531.951 708.009 542.966C833.906 553.98 946.793 575.764 1027.52 602.051C1067.9 615.199 1100.13 629.442 1121.92 643.967C1132.81 651.231 1141 658.511 1146.31 665.689C1151.61 672.854 1153.95 679.82 1153.37 686.544Z" stroke="#005F71" stroke-opacity="0.05" stroke-width="3.65672"/>
<path opacity="0.758621" d="M1150.76 723.414C1149.58 730.062 1145.51 736.182 1138.54 741.733C1131.56 747.293 1121.76 752.204 1109.36 756.4C1084.56 764.793 1049.74 770.208 1007.33 772.458C922.551 776.955 807.872 768.779 683.414 746.833C558.956 724.888 448.397 693.348 370.267 660.126C331.189 643.509 300.319 626.51 279.885 610.142C269.668 601.957 262.136 593.989 257.476 586.377C252.825 578.777 251.093 571.633 252.265 564.986C253.437 558.338 257.508 552.218 264.478 546.667C271.46 541.107 281.263 536.196 293.664 532C318.464 523.607 353.286 518.192 395.691 515.942C480.471 511.445 595.15 519.621 719.608 541.567C844.066 563.512 954.625 595.052 1032.75 628.274C1071.83 644.891 1102.7 661.89 1123.14 678.258C1133.35 686.443 1140.89 694.411 1145.55 702.023C1150.2 709.623 1151.93 716.767 1150.76 723.414Z" stroke="#005F71" stroke-opacity="0.05" stroke-width="3.65672"/>
<path opacity="0.793103" d="M1144.73 759.68C1142.98 766.2 1138.39 771.942 1130.97 776.864C1123.53 781.794 1113.33 785.832 1100.61 788.932C1075.18 795.131 1040.01 797.491 997.575 796.036C912.725 793.127 799.195 774.987 677.123 742.278C555.052 709.569 447.662 668.514 372.725 628.608C335.244 608.648 305.973 589.024 287.044 570.937C277.578 561.893 270.77 553.299 266.791 545.309C262.82 537.333 261.717 530.065 263.464 523.545C265.211 517.026 269.8 511.283 277.227 506.361C284.668 501.431 294.861 497.393 307.58 494.293C333.017 488.094 368.179 485.734 410.619 487.189C495.468 490.098 608.998 508.238 731.07 540.947C853.142 573.656 960.531 614.711 1035.47 654.617C1072.95 674.577 1102.22 694.201 1121.15 712.288C1130.61 721.333 1137.42 729.926 1141.4 737.916C1145.37 745.892 1146.48 753.16 1144.73 759.68Z" stroke="#005F71" stroke-opacity="0.05" stroke-width="3.65672"/>
<path opacity="0.827586" d="M1135.35 795.049C1133.04 801.391 1127.97 806.712 1120.14 810.968C1112.3 815.231 1101.79 818.365 1088.85 820.345C1062.97 824.303 1027.73 823.59 985.583 818.441C901.31 808.148 789.793 780.182 671.036 736.959C552.28 693.735 448.877 643.476 377.704 597.191C342.104 574.041 314.655 551.94 297.374 532.272C288.733 522.437 282.699 513.282 279.433 504.976C276.171 496.685 275.706 489.348 278.015 483.006C280.324 476.663 285.395 471.342 293.224 467.086C301.065 462.823 311.572 459.689 324.513 457.709C350.393 453.751 385.627 454.464 427.778 459.613C512.051 469.906 623.568 497.872 742.325 541.095C861.081 584.319 964.484 634.578 1035.66 680.863C1071.26 704.013 1098.71 726.114 1115.99 745.782C1124.63 755.617 1130.66 764.772 1133.93 773.078C1137.19 781.369 1137.65 788.706 1135.35 795.049Z" stroke="#005F71" stroke-opacity="0.05" stroke-width="3.65672"/>
<path opacity="0.862069" d="M1122.7 829.23C1119.85 835.348 1114.33 840.207 1106.16 843.764C1097.98 847.327 1087.24 849.534 1074.18 850.378C1048.05 852.066 1013.01 848.284 971.469 839.481C888.414 821.883 779.759 784.304 665.221 730.894C550.684 677.485 452.055 618.405 385.186 566.093C351.74 539.928 326.322 515.519 310.821 494.42C303.07 483.869 297.857 474.224 295.326 465.664C292.8 457.12 292.976 449.771 295.829 443.654C298.681 437.536 304.198 432.677 312.367 429.12C320.55 425.557 331.29 423.35 344.354 422.506C370.481 420.818 405.518 424.6 447.061 433.403C530.116 451.002 638.771 488.58 753.309 541.99C867.846 595.399 966.475 654.479 1033.34 706.791C1066.79 732.956 1092.21 757.365 1107.71 778.465C1115.46 789.015 1120.67 798.66 1123.2 807.22C1125.73 815.764 1125.55 823.113 1122.7 829.23Z" stroke="#005F71" stroke-opacity="0.05" stroke-width="3.65672"/>
<path opacity="0.896552" d="M1106.91 861.944C1103.54 867.789 1097.62 872.149 1089.17 874.98C1080.71 877.817 1069.82 879.079 1056.73 878.781C1030.55 878.186 995.979 871.365 955.362 858.975C874.156 834.204 769.19 787.299 659.743 724.11C550.297 660.921 457.192 593.47 395.137 535.529C364.099 506.549 340.905 480.017 327.302 457.647C320.5 446.461 316.147 436.398 314.372 427.651C312.601 418.919 313.416 411.613 316.791 405.767C320.166 399.922 326.085 395.563 334.533 392.731C342.996 389.894 353.887 388.632 366.975 388.93C393.15 389.525 427.724 396.347 468.341 408.736C549.547 433.507 654.513 480.412 763.96 543.601C873.407 606.79 966.511 674.241 1028.57 732.182C1059.6 761.163 1082.8 787.694 1096.4 810.064C1103.2 821.25 1107.56 831.313 1109.33 840.061C1111.1 848.793 1110.29 856.098 1106.91 861.944Z" stroke="#005F71" stroke-opacity="0.05" stroke-width="3.65672"/>
<path opacity="0.931035" d="M1088.12 892.923C1084.25 898.452 1077.97 902.279 1069.31 904.363C1060.63 906.452 1049.67 906.76 1036.66 905.322C1010.63 902.448 976.786 892.639 937.404 876.757C858.666 845.003 758.187 789.128 654.664 716.64C551.141 644.153 464.27 568.844 407.501 505.715C379.107 474.14 358.313 445.687 346.711 422.217C340.91 410.481 337.451 400.077 336.446 391.208C335.442 382.355 336.891 375.148 340.763 369.619C344.634 364.09 350.91 360.263 359.573 358.178C368.251 356.09 379.211 355.782 392.223 357.219C418.246 360.094 452.094 369.902 491.477 385.785C570.215 417.539 670.694 473.414 774.217 545.902C877.74 618.389 964.611 693.698 1021.38 756.827C1049.77 788.402 1070.57 816.854 1082.17 840.325C1087.97 852.061 1091.43 862.465 1092.44 871.334C1093.44 880.187 1091.99 887.394 1088.12 892.923Z" stroke="#005F71" stroke-opacity="0.05" stroke-width="3.65672"/>
<path opacity="0.965517" d="M1066.47 921.91C1062.14 927.081 1055.55 930.346 1046.74 931.668C1037.91 932.992 1026.97 932.344 1014.13 929.778C988.456 924.646 955.591 911.925 917.743 892.67C842.072 854.175 746.846 789.755 650.034 708.52C553.223 627.286 473.246 544.692 422.195 476.856C396.661 442.926 378.426 412.77 368.914 388.378C364.158 376.18 361.619 365.514 361.39 356.592C361.161 347.685 363.233 340.632 367.572 335.461C371.911 330.29 378.497 327.025 387.308 325.704C396.135 324.38 407.08 325.028 419.918 327.594C445.591 332.725 478.456 345.447 516.304 364.701C591.975 403.197 687.201 467.617 784.013 548.851C880.824 630.085 960.801 712.679 1011.85 780.515C1037.39 814.445 1055.62 844.601 1065.13 868.994C1069.89 881.191 1072.43 891.857 1072.66 900.779C1072.89 909.687 1070.81 916.739 1066.47 921.91Z" stroke="#005F71" stroke-opacity="0.05" stroke-width="3.65672"/>
<path d="M1042.18 948.665C1037.4 953.438 1030.56 956.116 1021.67 956.665C1012.76 957.215 1001.91 955.615 989.345 951.94C964.216 944.59 932.586 929.053 896.559 906.573C824.532 861.629 735.282 789.154 645.919 699.792C556.556 610.429 484.082 521.179 439.138 449.151C416.658 413.125 401.12 381.494 393.771 356.366C390.096 343.8 388.496 332.954 389.046 324.045C389.594 315.152 392.273 308.307 397.046 303.534C401.819 298.761 408.664 296.082 417.557 295.533C426.466 294.984 437.313 296.584 449.878 300.259C475.007 307.608 506.637 323.145 542.664 345.626C614.691 390.57 703.941 463.044 793.304 552.407C882.666 641.77 955.141 731.02 1000.09 803.047C1022.57 839.073 1038.1 870.704 1045.45 895.833C1049.13 908.398 1050.73 919.245 1050.18 928.153C1049.63 937.046 1046.95 943.892 1042.18 948.665Z" stroke="#005F71" stroke-opacity="0.05" stroke-width="3.65672"/>
</svg>
