<svg width="25" height="25" viewBox="0 0 25 25" fill="none" xmlns="http://www.w3.org/2000/svg">
<path fill-rule="evenodd" clip-rule="evenodd" d="M13.2212 2.30859C15.6512 2.30859 16.0052 2.32159 17.0292 2.36859C18.0932 2.41759 18.8202 2.58659 19.4562 2.83359C20.1237 3.08447 20.7285 3.47795 21.2283 3.98659C21.7369 4.48637 22.1304 5.0911 22.3813 5.75859C22.6283 6.39459 22.7973 7.12159 22.8463 8.18559C22.8943 9.25259 22.9062 9.59259 22.9062 12.3086V12.3886C22.9062 15.0316 22.8943 15.3756 22.8463 16.4316C22.7973 17.4956 22.6283 18.2226 22.3813 18.8586C22.1304 19.5261 21.7369 20.1308 21.2283 20.6306C20.7285 21.1392 20.1237 21.5327 19.4562 21.7836C18.8202 22.0306 18.0932 22.1996 17.0292 22.2486C15.9622 22.2966 15.6222 22.3086 12.9062 22.3086H12.8263C10.1833 22.3086 9.83925 22.2966 8.78325 22.2486C7.71925 22.1996 6.99225 22.0306 6.35625 21.7836C5.68875 21.5327 5.08402 21.1392 4.58425 20.6306C4.07561 20.1308 3.68212 19.5261 3.43125 18.8586C3.18425 18.2226 3.01525 17.4956 2.96625 16.4316C2.91925 15.4076 2.90625 15.0526 2.90625 12.6236V11.9936C2.90625 9.56359 2.91925 9.20959 2.96625 8.18559C3.01525 7.12159 3.18425 6.39459 3.43125 5.75859C3.68212 5.0911 4.07561 4.48637 4.58425 3.98659C5.08402 3.47795 5.68875 3.08447 6.35625 2.83359C6.99225 2.58659 7.71925 2.41759 8.78325 2.36859C9.80725 2.32159 10.1623 2.30859 12.5913 2.30859H13.2212ZM13.1403 4.11059H12.6722C10.2162 4.11059 9.88825 4.12159 8.86525 4.16859C7.89025 4.21359 7.36125 4.37559 7.00825 4.51259C6.54125 4.69459 6.20825 4.91059 5.85825 5.26059C5.50825 5.61059 5.29225 5.94359 5.11025 6.41059C4.97325 6.76359 4.81025 7.29259 4.76625 8.26759C4.71925 9.29059 4.70825 9.61859 4.70825 12.0746V12.5426C4.70825 14.9986 4.71925 15.3266 4.76625 16.3496C4.81125 17.3246 4.97325 17.8536 5.11025 18.2066C5.29225 18.6726 5.50925 19.0066 5.85825 19.3566C6.20825 19.7066 6.54125 19.9226 7.00825 20.1046C7.36125 20.2416 7.89025 20.4046 8.86525 20.4486C9.91925 20.4966 10.2352 20.5066 12.9062 20.5066H12.9862C15.5833 20.5066 15.9033 20.4966 16.9463 20.4486C17.9223 20.4036 18.4513 20.2416 18.8043 20.1046C19.2703 19.9226 19.6042 19.7066 19.9543 19.3566C20.3043 19.0066 20.5203 18.6736 20.7022 18.2066C20.8392 17.8536 21.0022 17.3246 21.0462 16.3496C21.0942 15.2946 21.1042 14.9796 21.1042 12.3086V12.2286C21.1042 9.63159 21.0942 9.31159 21.0462 8.26859C21.0012 7.29259 20.8392 6.76359 20.7022 6.41059C20.542 5.97616 20.2864 5.58319 19.9543 5.26059C19.6316 4.92845 19.2387 4.67285 18.8043 4.51259C18.4513 4.37559 17.9223 4.21259 16.9473 4.16859C15.9243 4.12159 15.5963 4.11059 13.1403 4.11059ZM12.9062 7.17359C13.5806 7.17359 14.2483 7.30641 14.8713 7.56447C15.4943 7.82253 16.0604 8.20077 16.5372 8.6776C17.0141 9.15443 17.3923 9.72051 17.6504 10.3435C17.9084 10.9665 18.0413 11.6343 18.0413 12.3086C18.0413 12.9829 17.9084 13.6507 17.6504 14.2737C17.3923 14.8967 17.0141 15.4628 16.5372 15.9396C16.0604 16.4164 15.4943 16.7947 14.8713 17.0527C14.2483 17.3108 13.5806 17.4436 12.9062 17.4436C11.5444 17.4436 10.2383 16.9026 9.27526 15.9396C8.31226 14.9766 7.77125 13.6705 7.77125 12.3086C7.77125 10.9467 8.31226 9.6406 9.27526 8.6776C10.2383 7.7146 11.5444 7.17359 12.9062 7.17359ZM12.9062 8.97559C12.0223 8.97559 11.1745 9.32675 10.5495 9.95181C9.9244 10.5769 9.57325 11.4246 9.57325 12.3086C9.57325 13.1926 9.9244 14.0403 10.5495 14.6654C11.1745 15.2904 12.0223 15.6416 12.9062 15.6416C13.7902 15.6416 14.638 15.2904 15.263 14.6654C15.8881 14.0403 16.2393 13.1926 16.2393 12.3086C16.2393 11.4246 15.8881 10.5769 15.263 9.95181C14.638 9.32675 13.7902 8.97559 12.9062 8.97559ZM18.2442 5.77059C18.5625 5.77059 18.8677 5.89702 19.0928 6.12207C19.3178 6.34711 19.4443 6.65233 19.4443 6.97059C19.4443 7.28885 19.3178 7.59408 19.0928 7.81912C18.8677 8.04417 18.5625 8.17059 18.2442 8.17059C17.926 8.17059 17.6208 8.04417 17.3957 7.81912C17.1707 7.59408 17.0443 7.28885 17.0443 6.97059C17.0443 6.65233 17.1707 6.34711 17.3957 6.12207C17.6208 5.89702 17.926 5.77059 18.2442 5.77059Z" fill="white"/>
</svg>
