<svg width="25" height="25" viewBox="0 0 25 25" fill="none" xmlns="http://www.w3.org/2000/svg">
<path d="M0.90625 22.8098V1.65408C0.932445 1.59891 0.953974 1.54167 0.97073 1.48294C1.0127 1.17385 1.15492 0.887047 1.37551 0.666482C1.5961 0.445918 1.88295 0.303761 2.19208 0.261795C2.25081 0.245025 2.30807 0.223443 2.36325 0.197266L23.5214 0.197266C23.5603 0.221232 23.6017 0.240983 23.6449 0.256183C24.0121 0.312718 24.3448 0.504573 24.5777 0.794022C24.8106 1.08347 24.9267 1.44956 24.9033 1.82031C24.9033 8.7455 24.9015 15.6723 24.8978 22.6008C24.8969 22.858 24.8401 23.1119 24.7315 23.345C24.6033 23.6208 24.3929 23.8502 24.1292 24.0016C23.8654 24.1531 23.5612 24.2192 23.2583 24.1909H2.47543C2.11283 24.2017 1.75875 24.0799 1.47963 23.8482C1.20052 23.6165 1.01557 23.2909 0.959512 22.9326C0.948664 22.889 0.930699 22.8475 0.90625 22.8098ZM13.6922 18.9752V13.2707C13.6895 13.036 13.7057 12.8014 13.7407 12.5693C13.7632 12.329 13.863 12.1024 14.0253 11.9237C14.1876 11.745 14.4036 11.6238 14.6406 11.5782C14.9214 11.5266 15.2078 11.5123 15.4923 11.5354C15.737 11.5473 15.9713 11.6375 16.1607 11.7927C16.3502 11.9479 16.4848 12.16 16.5445 12.3975C16.6088 12.6386 16.6411 12.8872 16.6406 13.1368C16.6462 14.9842 16.6461 16.8268 16.6461 18.6778V18.9829H19.6779C19.6828 18.8974 19.6942 18.8328 19.6942 18.7634C19.6942 16.7293 19.7158 14.6953 19.6779 12.6612C19.6566 11.976 19.5595 11.2952 19.3883 10.6313C19.2921 10.0988 19.0317 9.60962 18.6437 9.23232C18.2557 8.85502 17.7594 8.60846 17.2243 8.52713C16.7075 8.4413 16.1819 8.41963 15.6598 8.4626C14.818 8.52713 14.0261 8.73545 13.6726 9.65499V8.4626H10.6562V18.9836C11.667 18.9752 12.6638 18.9752 13.6922 18.9752ZM9.16549 18.9752V8.45418H6.15549V18.9752H9.16549ZM7.67133 4.68063C7.26798 4.6803 6.88045 4.83745 6.59127 5.1186C6.30209 5.39976 6.13418 5.78269 6.12321 6.18585C6.13532 6.58771 6.29797 6.97034 6.57902 7.25785C6.86007 7.54537 7.23897 7.71677 7.6405 7.73805C8.04736 7.73346 8.43654 7.57124 8.72621 7.28553C9.01588 6.99982 9.18343 6.6129 9.19358 6.20619C9.19611 6.00541 9.15849 5.80615 9.08295 5.62011C9.0074 5.43407 8.89541 5.26499 8.75361 5.12282C8.61181 4.98064 8.44306 4.86822 8.25721 4.79217C8.07136 4.71611 7.87213 4.67796 7.67133 4.67993V4.68063Z" fill="white"/>
</svg>
