<?xml version="1.0" encoding="UTF-8"?>
<svg xmlns="http://www.w3.org/2000/svg" xmlns:xlink="http://www.w3.org/1999/xlink" width="3872.98" height="3872.98" viewBox="0 0 3872.98 3872.98">
<defs>
<clipPath id="clip-0">
<path clip-rule="evenodd" d="M 859.644531 0 L 3013.339844 0 C 3486.128906 0 3872.980469 386.851562 3872.980469 859.640625 L 3872.980469 3013.339844 C 3872.980469 3486.128906 3486.128906 3872.980469 3013.339844 3872.980469 L 859.644531 3872.980469 C 386.847656 3872.980469 0 3486.128906 0 3013.339844 L 0 859.640625 C 0 386.851562 386.847656 0 859.644531 0 "/>
</clipPath>
<linearGradient id="linear-pattern-0" gradientUnits="userSpaceOnUse" x1="0" y1="0" x2="1" y2="0" gradientTransform="matrix(3872.98, 0, 0, 3872.98, 0, 1936.49)">
<stop offset="0" stop-color="rgb(0%, 16.470337%, 22.3526%)" stop-opacity="1"/>
<stop offset="0.0078125" stop-color="rgb(0%, 16.610718%, 22.494507%)" stop-opacity="1"/>
<stop offset="0.015625" stop-color="rgb(0%, 16.891479%, 22.77832%)" stop-opacity="1"/>
<stop offset="0.0234375" stop-color="rgb(0%, 17.173767%, 23.06366%)" stop-opacity="1"/>
<stop offset="0.03125" stop-color="rgb(0%, 17.456055%, 23.348999%)" stop-opacity="1"/>
<stop offset="0.0390625" stop-color="rgb(0%, 17.738342%, 23.634338%)" stop-opacity="1"/>
<stop offset="0.046875" stop-color="rgb(0%, 18.019104%, 23.918152%)" stop-opacity="1"/>
<stop offset="0.0546875" stop-color="rgb(0%, 18.301392%, 24.203491%)" stop-opacity="1"/>
<stop offset="0.0625" stop-color="rgb(0%, 18.583679%, 24.488831%)" stop-opacity="1"/>
<stop offset="0.0703125" stop-color="rgb(0%, 18.864441%, 24.77417%)" stop-opacity="1"/>
<stop offset="0.078125" stop-color="rgb(0%, 19.146729%, 25.057983%)" stop-opacity="1"/>
<stop offset="0.0859375" stop-color="rgb(0%, 19.429016%, 25.343323%)" stop-opacity="1"/>
<stop offset="0.09375" stop-color="rgb(0%, 19.711304%, 25.628662%)" stop-opacity="1"/>
<stop offset="0.101562" stop-color="rgb(0%, 19.992065%, 25.912476%)" stop-opacity="1"/>
<stop offset="0.109375" stop-color="rgb(0%, 20.274353%, 26.197815%)" stop-opacity="1"/>
<stop offset="0.117188" stop-color="rgb(0%, 20.556641%, 26.483154%)" stop-opacity="1"/>
<stop offset="0.125" stop-color="rgb(0%, 20.837402%, 26.768494%)" stop-opacity="1"/>
<stop offset="0.132812" stop-color="rgb(0%, 21.11969%, 27.052307%)" stop-opacity="1"/>
<stop offset="0.140625" stop-color="rgb(0%, 21.401978%, 27.337646%)" stop-opacity="1"/>
<stop offset="0.148438" stop-color="rgb(0%, 21.684265%, 27.622986%)" stop-opacity="1"/>
<stop offset="0.15625" stop-color="rgb(0%, 21.965027%, 27.908325%)" stop-opacity="1"/>
<stop offset="0.164062" stop-color="rgb(0%, 22.247314%, 28.192139%)" stop-opacity="1"/>
<stop offset="0.171875" stop-color="rgb(0%, 22.529602%, 28.477478%)" stop-opacity="1"/>
<stop offset="0.179688" stop-color="rgb(0%, 22.81189%, 28.762817%)" stop-opacity="1"/>
<stop offset="0.1875" stop-color="rgb(0%, 23.092651%, 29.046631%)" stop-opacity="1"/>
<stop offset="0.195312" stop-color="rgb(0%, 23.374939%, 29.33197%)" stop-opacity="1"/>
<stop offset="0.203125" stop-color="rgb(0%, 23.657227%, 29.61731%)" stop-opacity="1"/>
<stop offset="0.210938" stop-color="rgb(0%, 23.937988%, 29.902649%)" stop-opacity="1"/>
<stop offset="0.21875" stop-color="rgb(0%, 24.220276%, 30.186462%)" stop-opacity="1"/>
<stop offset="0.226562" stop-color="rgb(0%, 24.502563%, 30.471802%)" stop-opacity="1"/>
<stop offset="0.234375" stop-color="rgb(0%, 24.784851%, 30.757141%)" stop-opacity="1"/>
<stop offset="0.242188" stop-color="rgb(0%, 25.065613%, 31.04248%)" stop-opacity="1"/>
<stop offset="0.25" stop-color="rgb(0%, 25.3479%, 31.326294%)" stop-opacity="1"/>
<stop offset="0.257812" stop-color="rgb(0%, 25.630188%, 31.611633%)" stop-opacity="1"/>
<stop offset="0.265625" stop-color="rgb(0%, 25.91095%, 31.896973%)" stop-opacity="1"/>
<stop offset="0.273438" stop-color="rgb(0%, 26.193237%, 32.180786%)" stop-opacity="1"/>
<stop offset="0.28125" stop-color="rgb(0%, 26.475525%, 32.466125%)" stop-opacity="1"/>
<stop offset="0.289062" stop-color="rgb(0%, 26.757812%, 32.751465%)" stop-opacity="1"/>
<stop offset="0.296875" stop-color="rgb(0%, 27.038574%, 33.036804%)" stop-opacity="1"/>
<stop offset="0.304688" stop-color="rgb(0%, 27.320862%, 33.320618%)" stop-opacity="1"/>
<stop offset="0.3125" stop-color="rgb(0%, 27.603149%, 33.605957%)" stop-opacity="1"/>
<stop offset="0.320312" stop-color="rgb(0%, 27.885437%, 33.891296%)" stop-opacity="1"/>
<stop offset="0.328125" stop-color="rgb(0%, 28.166199%, 34.176636%)" stop-opacity="1"/>
<stop offset="0.335938" stop-color="rgb(0%, 28.448486%, 34.460449%)" stop-opacity="1"/>
<stop offset="0.34375" stop-color="rgb(0%, 28.730774%, 34.745789%)" stop-opacity="1"/>
<stop offset="0.351562" stop-color="rgb(0%, 29.011536%, 35.031128%)" stop-opacity="1"/>
<stop offset="0.359375" stop-color="rgb(0%, 29.293823%, 35.316467%)" stop-opacity="1"/>
<stop offset="0.367188" stop-color="rgb(0%, 29.576111%, 35.600281%)" stop-opacity="1"/>
<stop offset="0.375" stop-color="rgb(0%, 29.858398%, 35.88562%)" stop-opacity="1"/>
<stop offset="0.382812" stop-color="rgb(0%, 30.13916%, 36.170959%)" stop-opacity="1"/>
<stop offset="0.390625" stop-color="rgb(0%, 30.421448%, 36.454773%)" stop-opacity="1"/>
<stop offset="0.398438" stop-color="rgb(0%, 30.703735%, 36.740112%)" stop-opacity="1"/>
<stop offset="0.40625" stop-color="rgb(0%, 30.984497%, 37.025452%)" stop-opacity="1"/>
<stop offset="0.414062" stop-color="rgb(0%, 31.266785%, 37.310791%)" stop-opacity="1"/>
<stop offset="0.421875" stop-color="rgb(0%, 31.549072%, 37.594604%)" stop-opacity="1"/>
<stop offset="0.429688" stop-color="rgb(0%, 31.83136%, 37.879944%)" stop-opacity="1"/>
<stop offset="0.4375" stop-color="rgb(0%, 32.112122%, 38.165283%)" stop-opacity="1"/>
<stop offset="0.445312" stop-color="rgb(0%, 32.394409%, 38.450623%)" stop-opacity="1"/>
<stop offset="0.453125" stop-color="rgb(0%, 32.676697%, 38.734436%)" stop-opacity="1"/>
<stop offset="0.460938" stop-color="rgb(0%, 32.958984%, 39.019775%)" stop-opacity="1"/>
<stop offset="0.46875" stop-color="rgb(0%, 33.239746%, 39.305115%)" stop-opacity="1"/>
<stop offset="0.476562" stop-color="rgb(0%, 33.522034%, 39.588928%)" stop-opacity="1"/>
<stop offset="0.484375" stop-color="rgb(0%, 33.804321%, 39.874268%)" stop-opacity="1"/>
<stop offset="0.492188" stop-color="rgb(0%, 34.085083%, 40.159607%)" stop-opacity="1"/>
<stop offset="0.5" stop-color="rgb(0%, 34.367371%, 40.444946%)" stop-opacity="1"/>
<stop offset="0.507812" stop-color="rgb(0%, 34.649658%, 40.72876%)" stop-opacity="1"/>
<stop offset="0.515625" stop-color="rgb(0%, 34.931946%, 41.014099%)" stop-opacity="1"/>
<stop offset="0.523438" stop-color="rgb(0%, 35.212708%, 41.299438%)" stop-opacity="1"/>
<stop offset="0.53125" stop-color="rgb(0%, 35.494995%, 41.584778%)" stop-opacity="1"/>
<stop offset="0.539062" stop-color="rgb(0%, 35.777283%, 41.868591%)" stop-opacity="1"/>
<stop offset="0.546875" stop-color="rgb(0%, 36.058044%, 42.153931%)" stop-opacity="1"/>
<stop offset="0.554688" stop-color="rgb(0%, 36.340332%, 42.43927%)" stop-opacity="1"/>
<stop offset="0.5625" stop-color="rgb(0%, 36.62262%, 42.723083%)" stop-opacity="1"/>
<stop offset="0.570312" stop-color="rgb(0%, 36.904907%, 43.008423%)" stop-opacity="1"/>
<stop offset="0.578125" stop-color="rgb(0%, 37.185669%, 43.293762%)" stop-opacity="1"/>
<stop offset="0.585938" stop-color="rgb(0%, 37.467957%, 43.579102%)" stop-opacity="1"/>
<stop offset="0.59375" stop-color="rgb(0%, 37.750244%, 43.862915%)" stop-opacity="1"/>
<stop offset="0.601562" stop-color="rgb(0%, 38.031006%, 44.148254%)" stop-opacity="1"/>
<stop offset="0.609375" stop-color="rgb(0%, 38.313293%, 44.433594%)" stop-opacity="1"/>
<stop offset="0.617188" stop-color="rgb(0%, 38.595581%, 44.718933%)" stop-opacity="1"/>
<stop offset="0.625" stop-color="rgb(0%, 38.877869%, 45.002747%)" stop-opacity="1"/>
<stop offset="0.632812" stop-color="rgb(0%, 39.15863%, 45.288086%)" stop-opacity="1"/>
<stop offset="0.640625" stop-color="rgb(0%, 39.440918%, 45.573425%)" stop-opacity="1"/>
<stop offset="0.648438" stop-color="rgb(0%, 39.723206%, 45.858765%)" stop-opacity="1"/>
<stop offset="0.65625" stop-color="rgb(0%, 40.005493%, 46.142578%)" stop-opacity="1"/>
<stop offset="0.664062" stop-color="rgb(0%, 40.286255%, 46.427917%)" stop-opacity="1"/>
<stop offset="0.671875" stop-color="rgb(0%, 40.568542%, 46.713257%)" stop-opacity="1"/>
<stop offset="0.679688" stop-color="rgb(0%, 40.85083%, 46.99707%)" stop-opacity="1"/>
<stop offset="0.6875" stop-color="rgb(0%, 41.131592%, 47.28241%)" stop-opacity="1"/>
<stop offset="0.695312" stop-color="rgb(0%, 41.413879%, 47.567749%)" stop-opacity="1"/>
<stop offset="0.703125" stop-color="rgb(0%, 41.696167%, 47.853088%)" stop-opacity="1"/>
<stop offset="0.710938" stop-color="rgb(0%, 41.978455%, 48.136902%)" stop-opacity="1"/>
<stop offset="0.71875" stop-color="rgb(0%, 42.259216%, 48.422241%)" stop-opacity="1"/>
<stop offset="0.726562" stop-color="rgb(0%, 42.541504%, 48.707581%)" stop-opacity="1"/>
<stop offset="0.734375" stop-color="rgb(0%, 42.823792%, 48.99292%)" stop-opacity="1"/>
<stop offset="0.742188" stop-color="rgb(0%, 43.104553%, 49.276733%)" stop-opacity="1"/>
<stop offset="0.75" stop-color="rgb(0%, 43.386841%, 49.562073%)" stop-opacity="1"/>
<stop offset="0.757812" stop-color="rgb(0%, 43.669128%, 49.847412%)" stop-opacity="1"/>
<stop offset="0.765625" stop-color="rgb(0%, 43.951416%, 50.131226%)" stop-opacity="1"/>
<stop offset="0.773438" stop-color="rgb(0%, 44.232178%, 50.416565%)" stop-opacity="1"/>
<stop offset="0.78125" stop-color="rgb(0%, 44.514465%, 50.701904%)" stop-opacity="1"/>
<stop offset="0.789062" stop-color="rgb(0%, 44.796753%, 50.987244%)" stop-opacity="1"/>
<stop offset="0.796875" stop-color="rgb(0%, 45.079041%, 51.271057%)" stop-opacity="1"/>
<stop offset="0.804688" stop-color="rgb(0%, 45.359802%, 51.556396%)" stop-opacity="1"/>
<stop offset="0.8125" stop-color="rgb(0%, 45.64209%, 51.841736%)" stop-opacity="1"/>
<stop offset="0.820312" stop-color="rgb(0%, 45.924377%, 52.127075%)" stop-opacity="1"/>
<stop offset="0.828125" stop-color="rgb(0%, 46.205139%, 52.410889%)" stop-opacity="1"/>
<stop offset="0.835938" stop-color="rgb(0%, 46.487427%, 52.696228%)" stop-opacity="1"/>
<stop offset="0.84375" stop-color="rgb(0%, 46.769714%, 52.981567%)" stop-opacity="1"/>
<stop offset="0.851562" stop-color="rgb(0%, 47.052002%, 53.265381%)" stop-opacity="1"/>
<stop offset="0.859375" stop-color="rgb(0%, 47.332764%, 53.55072%)" stop-opacity="1"/>
<stop offset="0.867188" stop-color="rgb(0%, 47.615051%, 53.83606%)" stop-opacity="1"/>
<stop offset="0.875" stop-color="rgb(0%, 47.897339%, 54.121399%)" stop-opacity="1"/>
<stop offset="0.882812" stop-color="rgb(0%, 48.178101%, 54.405212%)" stop-opacity="1"/>
<stop offset="0.890625" stop-color="rgb(0%, 48.460388%, 54.690552%)" stop-opacity="1"/>
<stop offset="0.898438" stop-color="rgb(0%, 48.742676%, 54.975891%)" stop-opacity="1"/>
<stop offset="0.90625" stop-color="rgb(0%, 49.024963%, 55.26123%)" stop-opacity="1"/>
<stop offset="0.914062" stop-color="rgb(0%, 49.305725%, 55.545044%)" stop-opacity="1"/>
<stop offset="0.921875" stop-color="rgb(0%, 49.588013%, 55.830383%)" stop-opacity="1"/>
<stop offset="0.929688" stop-color="rgb(0%, 49.8703%, 56.115723%)" stop-opacity="1"/>
<stop offset="0.9375" stop-color="rgb(0%, 50.152588%, 56.401062%)" stop-opacity="1"/>
<stop offset="0.945312" stop-color="rgb(0%, 50.43335%, 56.684875%)" stop-opacity="1"/>
<stop offset="0.953125" stop-color="rgb(0%, 50.715637%, 56.970215%)" stop-opacity="1"/>
<stop offset="0.960938" stop-color="rgb(0%, 50.997925%, 57.255554%)" stop-opacity="1"/>
<stop offset="0.96875" stop-color="rgb(0%, 51.278687%, 57.539368%)" stop-opacity="1"/>
<stop offset="0.976562" stop-color="rgb(0%, 51.560974%, 57.824707%)" stop-opacity="1"/>
<stop offset="0.984375" stop-color="rgb(0%, 51.843262%, 58.110046%)" stop-opacity="1"/>
<stop offset="0.992188" stop-color="rgb(0%, 52.125549%, 58.395386%)" stop-opacity="1"/>
<stop offset="1" stop-color="rgb(0%, 52.406311%, 58.679199%)" stop-opacity="1"/>
</linearGradient>
<clipPath id="clip-1">
<path clip-rule="nonzero" d="M 697 784 L 3176 784 L 3176 3089 L 697 3089 Z M 697 784 "/>
</clipPath>
<clipPath id="clip-2">
<path clip-rule="evenodd" d="M 2596.511719 851.058594 C 2628.460938 851.058594 2654.441406 877.039062 2654.441406 908.980469 L 2654.441406 1250.371094 C 2654.441406 1282.308594 2628.460938 1308.289062 2596.511719 1308.289062 C 2589.019531 1308.289062 2581.871094 1306.871094 2575.289062 1304.28125 L 2575.289062 1304.269531 C 2572.671875 1303.238281 2570.128906 1302.019531 2567.710938 1300.621094 C 2566.898438 1300.140625 2566.089844 1299.671875 2565.320312 1299.171875 L 2565.320312 1299.160156 C 2563.75 1298.148438 2562.230469 1297.078125 2560.769531 1295.941406 L 2560.769531 1295.929688 C 2560.039062 1295.359375 2559.339844 1294.769531 2558.628906 1294.171875 L 2558.628906 1294.160156 C 2557.921875 1293.558594 2557.25 1292.941406 2556.578125 1292.289062 L 2556.578125 1292.28125 L 2555.570312 1291.320312 L 2554.609375 1290.320312 L 2553.660156 1289.308594 L 2553.660156 1289.300781 L 2552.738281 1288.269531 C 2552.128906 1287.570312 2551.53125 1286.851562 2550.960938 1286.128906 L 2550.960938 1286.121094 L 2550.121094 1285.019531 L 2549.289062 1283.890625 L 2549.289062 1283.878906 C 2548.210938 1282.378906 2547.199219 1280.808594 2546.269531 1279.191406 L 2545.589844 1277.96875 L 2545.589844 1277.960938 L 2544.941406 1276.730469 L 2544.941406 1276.71875 L 2544.308594 1275.46875 L 2544.308594 1275.460938 L 2543.710938 1274.199219 L 2543.710938 1274.191406 L 2543.140625 1272.910156 L 2543.140625 1272.898438 L 2542.609375 1271.601562 L 2542.609375 1271.589844 L 2542.121094 1270.28125 L 2542.121094 1270.269531 L 2541.628906 1268.941406 L 2541.191406 1267.589844 L 2541.191406 1267.578125 L 2540.78125 1266.21875 L 2540.78125 1266.210938 L 2540.421875 1264.839844 L 2540.421875 1264.828125 L 2540.070312 1263.449219 L 2540.070312 1263.441406 L 2539.75 1262.039062 L 2539.5 1260.621094 L 2539.261719 1259.191406 L 2539.261719 1259.179688 L 2539.058594 1257.738281 L 2538.890625 1256.289062 L 2538.890625 1256.28125 L 2538.75 1254.828125 L 2538.648438 1253.351562 L 2538.609375 1251.859375 L 2538.589844 1250.378906 L 2538.589844 908.980469 C 2538.589844 877.03125 2564.570312 851.058594 2596.511719 851.058594 Z M 2440.898438 2521.789062 L 2512.078125 2521.789062 L 2512.078125 2368.25 C 2512.078125 2349.988281 2526.890625 2335.199219 2545.128906 2335.199219 L 2698.671875 2335.199219 L 2698.671875 2264.03125 L 2545.128906 2264.03125 C 2526.890625 2264.03125 2512.078125 2249.230469 2512.078125 2230.96875 L 2512.078125 2077.460938 L 2440.898438 2077.460938 L 2440.898438 2230.96875 C 2440.898438 2249.230469 2426.109375 2264.03125 2407.851562 2264.03125 L 2254.320312 2264.03125 L 2254.320312 2335.199219 L 2407.851562 2335.199219 C 2426.109375 2335.199219 2440.898438 2349.988281 2440.898438 2368.25 Z M 2545.128906 2587.898438 C 2563.390625 2587.898438 2578.191406 2573.101562 2578.191406 2554.820312 L 2578.191406 2401.289062 L 2731.71875 2401.289062 C 2749.980469 2401.289062 2764.78125 2386.5 2764.78125 2368.230469 L 2764.78125 2230.949219 C 2764.78125 2212.691406 2749.980469 2197.898438 2731.71875 2197.898438 L 2578.191406 2197.898438 L 2578.191406 2044.359375 C 2578.191406 2026.101562 2563.390625 2011.308594 2545.128906 2011.308594 L 2407.851562 2011.308594 C 2389.589844 2011.308594 2374.789062 2026.101562 2374.789062 2044.359375 L 2374.789062 2197.898438 L 2221.261719 2197.898438 C 2203 2197.898438 2188.210938 2212.691406 2188.210938 2230.949219 L 2188.210938 2368.230469 C 2188.210938 2386.5 2203 2401.289062 2221.261719 2401.289062 L 2374.789062 2401.289062 L 2374.789062 2554.820312 C 2374.789062 2573.089844 2389.589844 2587.898438 2407.851562 2587.898438 Z M 1934.691406 851.058594 C 1966.628906 851.058594 1992.628906 877.039062 1992.609375 908.980469 L 1992.609375 1250.371094 C 1992.609375 1282.308594 1966.628906 1308.289062 1934.691406 1308.289062 C 1927.191406 1308.289062 1920.039062 1306.871094 1913.46875 1304.28125 L 1913.46875 1304.269531 C 1910.851562 1303.238281 1908.308594 1302.019531 1905.890625 1300.621094 C 1905.078125 1300.140625 1904.28125 1299.671875 1903.5 1299.171875 L 1903.5 1299.160156 C 1901.929688 1298.148438 1900.410156 1297.078125 1898.960938 1295.941406 L 1898.960938 1295.929688 C 1898.230469 1295.359375 1897.511719 1294.769531 1896.808594 1294.171875 L 1896.808594 1294.160156 C 1896.101562 1293.558594 1895.421875 1292.941406 1894.75 1292.289062 L 1894.75 1292.28125 L 1893.75 1291.320312 L 1892.789062 1290.320312 L 1891.828125 1289.308594 L 1891.828125 1289.300781 L 1890.921875 1288.269531 C 1890.308594 1287.570312 1889.71875 1286.851562 1889.148438 1286.128906 L 1889.148438 1286.121094 L 1888.300781 1285.019531 L 1887.46875 1283.890625 L 1887.46875 1283.878906 C 1886.398438 1282.390625 1885.390625 1280.808594 1884.460938 1279.191406 L 1883.78125 1277.96875 L 1883.78125 1277.960938 L 1883.121094 1276.730469 L 1883.121094 1276.71875 L 1882.5 1275.46875 L 1882.5 1275.460938 L 1881.898438 1274.199219 L 1881.898438 1274.191406 L 1881.328125 1272.910156 L 1881.328125 1272.898438 L 1880.800781 1271.601562 L 1880.800781 1271.589844 L 1880.300781 1270.28125 L 1880.300781 1270.269531 L 1879.828125 1268.941406 L 1879.378906 1267.589844 L 1879.378906 1267.578125 L 1878.980469 1266.21875 L 1878.980469 1266.210938 L 1878.601562 1264.839844 L 1878.601562 1264.828125 L 1878.261719 1263.449219 L 1878.261719 1263.441406 L 1877.960938 1262.039062 L 1877.679688 1260.621094 L 1877.441406 1259.191406 L 1877.441406 1259.179688 L 1877.25 1257.738281 L 1877.070312 1256.289062 L 1877.070312 1256.28125 L 1876.941406 1254.828125 L 1876.851562 1253.351562 L 1876.789062 1251.859375 L 1876.769531 1250.378906 L 1876.769531 908.980469 C 1876.769531 877.03125 1902.761719 851.058594 1934.691406 851.058594 Z M 1556.578125 2454.101562 C 1553.980469 2454.101562 1551.699219 2456.390625 1551.699219 2459.011719 L 1551.699219 2675.601562 C 1551.699219 2678.21875 1553.980469 2680.5 1556.578125 2680.5 L 1776.449219 2680.480469 C 1779.050781 2680.480469 1781.320312 2678.199219 1781.320312 2675.601562 L 1781.320312 2459.011719 C 1781.320312 2456.390625 1779.050781 2454.101562 1776.449219 2454.101562 Z M 1776.449219 2746.570312 C 1815.601562 2746.570312 1847.460938 2714.738281 1847.429688 2675.601562 L 1847.429688 2459.011719 C 1847.429688 2419.851562 1815.601562 2388.011719 1776.449219 2388.011719 L 1556.578125 2388.011719 C 1517.429688 2388.011719 1485.578125 2419.851562 1485.578125 2459.011719 L 1485.578125 2675.601562 C 1485.578125 2714.738281 1517.421875 2746.570312 1556.578125 2746.570312 Z M 1016.589844 2454.101562 C 1013.988281 2454.101562 1011.699219 2456.390625 1011.699219 2459.011719 L 1011.699219 2675.601562 C 1011.699219 2678.21875 1013.988281 2680.5 1016.589844 2680.5 L 1236.480469 2680.480469 C 1239.070312 2680.480469 1241.351562 2678.199219 1241.351562 2675.601562 L 1241.351562 2459.011719 C 1241.351562 2456.390625 1239.070312 2454.101562 1236.480469 2454.101562 Z M 1236.449219 2746.570312 C 1275.609375 2746.570312 1307.441406 2714.738281 1307.460938 2675.601562 L 1307.460938 2459.011719 C 1307.460938 2419.851562 1275.609375 2388.011719 1236.480469 2388.011719 L 1016.589844 2388.011719 C 977.445312 2388.011719 945.59375 2419.851562 945.59375 2459.011719 L 945.59375 2675.601562 C 945.59375 2714.738281 977.4375 2746.570312 1016.589844 2746.570312 Z M 2142.230469 1919.460938 C 2114.351562 1919.460938 2091.699219 1942.140625 2091.699219 1970 L 2091.699219 2629.25 C 2091.699219 2657.140625 2114.351562 2679.789062 2142.230469 2679.789062 L 2810.75 2679.789062 C 2838.628906 2679.789062 2861.300781 2657.121094 2861.300781 2629.25 L 2861.300781 1970 C 2861.300781 1942.121094 2838.628906 1919.460938 2810.75 1919.460938 Z M 2810.75 2745.898438 C 2875.070312 2745.898438 2927.410156 2693.578125 2927.410156 2629.25 L 2927.410156 1970 C 2927.410156 1905.671875 2875.109375 1853.328125 2810.75 1853.328125 L 2142.230469 1853.328125 C 2077.890625 1853.328125 2025.570312 1905.671875 2025.570312 1970 L 2025.570312 2629.25 C 2025.570312 2693.578125 2077.890625 2745.898438 2142.230469 2745.898438 Z M 1556.898438 1919.460938 C 1554.070312 1919.460938 1551.671875 1921.851562 1551.671875 1924.679688 L 1551.671875 2140.570312 C 1551.671875 2143.371094 1554.109375 2145.808594 1556.898438 2145.808594 L 1776.078125 2145.808594 C 1778.878906 2145.808594 1781.320312 2143.371094 1781.320312 2140.570312 L 1781.320312 1924.679688 C 1781.320312 1921.878906 1778.878906 1919.460938 1776.078125 1919.460938 Z M 1776.109375 2211.921875 C 1815.441406 2211.921875 1847.460938 2179.929688 1847.429688 2140.570312 L 1847.429688 1924.679688 C 1847.429688 1885.339844 1815.421875 1853.351562 1776.078125 1853.351562 L 1556.898438 1853.351562 C 1517.570312 1853.351562 1485.550781 1885.339844 1485.550781 1924.679688 L 1485.550781 2140.570312 C 1485.550781 2179.929688 1517.570312 2211.921875 1556.898438 2211.921875 Z M 1016.589844 1919.460938 C 1013.988281 1919.460938 1011.699219 1921.761719 1011.699219 1924.351562 L 1011.699219 2140.929688 C 1011.699219 2143.550781 1013.988281 2145.828125 1016.589844 2145.828125 L 1236.480469 2145.808594 C 1239.070312 2145.808594 1241.351562 2143.550781 1241.351562 2140.929688 L 1241.351562 1924.351562 C 1241.351562 1921.761719 1239.070312 1919.460938 1236.480469 1919.460938 Z M 1236.449219 2211.921875 C 1275.609375 2211.921875 1307.441406 2180.089844 1307.460938 2140.929688 L 1307.460938 1924.351562 C 1307.460938 1885.21875 1275.609375 1853.351562 1236.480469 1853.351562 L 1016.578125 1853.351562 C 977.445312 1853.351562 945.582031 1885.199219 945.582031 1924.351562 L 945.59375 2140.929688 C 945.59375 2180.089844 977.4375 2211.921875 1016.589844 2211.921875 Z M 765.257812 1577.96875 L 765.257812 2790.558594 C 765.257812 2918.148438 869.050781 3021.96875 996.632812 3021.96875 L 2872.769531 3021.96875 C 3000.320312 3021.96875 3104.128906 2918.171875 3104.128906 2790.558594 L 3104.128906 1577.96875 Z M 1214.929688 1078.828125 L 1214.929688 908.980469 C 1214.929688 877.03125 1240.898438 851.058594 1272.851562 851.058594 C 1304.808594 851.058594 1330.808594 877.039062 1330.78125 908.980469 L 1330.78125 1250.371094 C 1330.78125 1282.308594 1304.800781 1308.289062 1272.851562 1308.289062 C 1265.871094 1308.289062 1259.171875 1307.070312 1252.980469 1304.78125 L 1252.960938 1304.769531 L 1251.648438 1304.28125 L 1251.640625 1304.269531 L 1250.339844 1303.75 L 1250.328125 1303.738281 L 1249.050781 1303.179688 L 1249.039062 1303.171875 L 1247.769531 1302.589844 L 1247.769531 1302.578125 L 1246.511719 1301.96875 L 1246.5 1301.949219 L 1245.269531 1301.308594 L 1245.261719 1301.300781 L 1244.050781 1300.621094 L 1244.039062 1300.621094 L 1242.851562 1299.910156 L 1242.839844 1299.898438 L 1241.671875 1299.171875 L 1241.648438 1299.160156 L 1240.5 1298.398438 L 1240.488281 1298.390625 L 1239.351562 1297.601562 L 1239.328125 1297.589844 L 1238.230469 1296.789062 L 1238.210938 1296.78125 L 1237.121094 1295.941406 L 1237.109375 1295.929688 L 1236.039062 1295.058594 L 1236.019531 1295.050781 L 1234.980469 1294.171875 L 1234.960938 1294.160156 L 1233.941406 1293.238281 L 1233.929688 1293.230469 L 1232.921875 1292.289062 L 1232.898438 1292.28125 L 1231.929688 1291.320312 L 1231.910156 1291.320312 L 1230.949219 1290.320312 L 1230.941406 1290.320312 L 1230 1289.308594 L 1229.988281 1289.300781 L 1229.078125 1288.269531 L 1229.070312 1288.269531 L 1228.179688 1287.210938 L 1228.171875 1287.199219 L 1227.308594 1286.128906 L 1227.300781 1286.121094 L 1226.460938 1285.019531 C 1225.898438 1284.28125 1225.371094 1283.519531 1224.851562 1282.75 L 1224.839844 1282.738281 L 1224.078125 1281.589844 L 1224.070312 1281.570312 L 1223.339844 1280.398438 L 1223.328125 1280.390625 C 1222.351562 1278.800781 1221.46875 1277.160156 1220.660156 1275.46875 L 1220.648438 1275.460938 L 1220.070312 1274.199219 C 1216.78125 1266.929688 1214.941406 1258.871094 1214.941406 1250.378906 L 1214.941406 1079.671875 Z M 1148.808594 1046.621094 L 1148.808594 908.980469 C 1148.808594 840.589844 1204.460938 784.949219 1272.851562 784.949219 C 1341.25 784.949219 1396.921875 840.589844 1396.921875 908.980469 L 1396.921875 1046.621094 L 1810.640625 1046.621094 L 1810.640625 908.980469 C 1810.640625 840.589844 1866.28125 784.949219 1934.679688 784.949219 C 2003.070312 784.949219 2058.71875 840.589844 2058.71875 908.980469 L 2058.71875 1046.621094 L 2472.480469 1046.621094 L 2472.480469 908.980469 C 2472.480469 840.589844 2528.109375 784.949219 2596.511719 784.949219 C 2664.921875 784.949219 2720.550781 840.589844 2720.550781 908.980469 L 2720.550781 1046.621094 L 2872.769531 1046.621094 C 3036.78125 1046.621094 3170.238281 1180.070312 3170.238281 1344.109375 L 3170.238281 1526.488281 C 3173.769531 1531.75 3175.839844 1538.089844 3175.839844 1544.910156 C 3175.839844 1551.730469 3173.769531 1558.058594 3170.238281 1563.328125 L 3170.238281 2790.558594 C 3170.238281 2954.601562 3036.78125 3088.058594 2872.769531 3088.058594 L 996.632812 3088.058594 C 832.597656 3088.058594 699.136719 2954.601562 699.136719 2790.558594 L 699.136719 1556.230469 C 697.847656 1552.710938 697.148438 1548.878906 697.148438 1544.910156 C 697.148438 1540.949219 697.847656 1537.121094 699.136719 1533.601562 L 699.136719 1344.121094 C 699.136719 1180.089844 832.609375 1046.628906 996.632812 1046.628906 Z M 1152.730469 1281.339844 L 1151.988281 1278.378906 L 1151.988281 1278.359375 L 1151.339844 1275.371094 L 1151.339844 1275.339844 L 1150.75 1272.328125 L 1150.75 1272.300781 L 1150.25 1269.261719 L 1150.25 1269.238281 L 1149.808594 1266.171875 L 1149.808594 1266.148438 L 1149.460938 1263.058594 L 1149.460938 1263.039062 C 1149.351562 1262.011719 1149.25 1260.96875 1149.171875 1259.929688 L 1149.171875 1259.910156 L 1148.96875 1256.78125 L 1148.96875 1256.75 L 1148.859375 1253.601562 L 1148.859375 1253.578125 L 1148.808594 1250.398438 L 1148.808594 1112.761719 L 996.632812 1112.761719 C 869.042969 1112.761719 765.257812 1216.53125 765.257812 1344.121094 L 765.257812 1511.859375 L 3104.128906 1511.859375 L 3104.128906 1344.121094 C 3104.128906 1216.53125 3000.339844 1112.761719 2872.769531 1112.761719 L 2720.570312 1112.761719 L 2720.570312 1250.398438 C 2720.570312 1318.800781 2664.941406 1374.460938 2596.511719 1374.460938 C 2538.789062 1374.460938 2490.171875 1334.808594 2476.378906 1281.339844 L 2475.648438 1278.378906 L 2475.648438 1278.359375 L 2475 1275.371094 L 2475 1275.339844 L 2474.410156 1272.328125 L 2474.410156 1272.300781 L 2473.898438 1269.261719 L 2473.898438 1269.238281 L 2473.46875 1266.171875 L 2473.46875 1266.148438 L 2473.109375 1263.058594 L 2473.109375 1263.039062 C 2473.011719 1262.011719 2472.921875 1260.96875 2472.839844 1259.929688 L 2472.839844 1259.910156 L 2472.640625 1256.78125 L 2472.640625 1256.75 L 2472.519531 1253.601562 L 2472.519531 1253.578125 L 2472.480469 1250.398438 L 2472.480469 1112.761719 L 2058.738281 1112.761719 L 2058.738281 1250.398438 C 2058.738281 1318.800781 2003.109375 1374.460938 1934.691406 1374.460938 C 1876.96875 1374.460938 1828.328125 1334.808594 1814.550781 1281.339844 L 1813.828125 1278.378906 L 1813.828125 1278.359375 L 1813.171875 1275.371094 L 1813.171875 1275.339844 L 1812.578125 1272.328125 L 1812.578125 1272.300781 L 1812.070312 1269.261719 L 1812.070312 1269.238281 L 1811.648438 1266.171875 L 1811.648438 1266.148438 L 1811.28125 1263.058594 L 1811.28125 1263.039062 C 1811.191406 1262.011719 1811.078125 1260.96875 1811.011719 1259.929688 L 1811.011719 1259.910156 L 1810.808594 1256.78125 L 1810.808594 1256.75 L 1810.679688 1253.601562 L 1810.679688 1253.578125 L 1810.640625 1250.398438 L 1810.640625 1112.761719 L 1396.921875 1112.761719 L 1396.921875 1250.398438 L 1396.878906 1253.578125 L 1396.878906 1253.601562 L 1396.761719 1256.75 L 1396.761719 1256.78125 L 1396.550781 1259.910156 L 1396.550781 1259.929688 L 1396.28125 1263.039062 L 1396.28125 1263.058594 C 1396.171875 1264.101562 1396.050781 1265.128906 1395.910156 1266.148438 L 1395.910156 1266.171875 L 1395.488281 1269.238281 L 1395.488281 1269.261719 L 1394.980469 1272.300781 L 1394.980469 1272.328125 L 1394.390625 1275.339844 L 1394.378906 1275.371094 L 1393.730469 1278.359375 L 1393.730469 1278.378906 L 1393.011719 1281.339844 L 1392.210938 1284.300781 L 1392.199219 1284.320312 C 1391.359375 1287.25 1390.429688 1290.148438 1389.378906 1292.980469 L 1389.371094 1293 L 1388.300781 1295.808594 L 1388.300781 1295.839844 L 1387.160156 1298.621094 L 1387.148438 1298.640625 L 1385.941406 1301.378906 L 1385.929688 1301.410156 L 1384.660156 1304.101562 L 1384.660156 1304.128906 L 1383.320312 1306.800781 L 1383.308594 1306.820312 L 1381.929688 1309.460938 C 1379.058594 1314.730469 1375.820312 1319.769531 1372.238281 1324.550781 L 1372.230469 1324.578125 C 1349.589844 1354.839844 1313.46875 1374.460938 1272.851562 1374.460938 C 1215.140625 1374.460938 1166.511719 1334.808594 1152.730469 1281.339844 "/>
</clipPath>
<linearGradient id="linear-pattern-1" gradientUnits="userSpaceOnUse" x1="-0.000000000000000056" y1="0" x2="1.000001" y2="0" gradientTransform="matrix(2478.69, 0, 0, 2478.69, 697.148, 1936.5)">
<stop offset="0" stop-color="rgb(0%, 16.470337%, 22.3526%)" stop-opacity="1"/>
<stop offset="0.0078125" stop-color="rgb(0%, 16.610718%, 22.494507%)" stop-opacity="1"/>
<stop offset="0.015625" stop-color="rgb(0%, 16.891479%, 22.77832%)" stop-opacity="1"/>
<stop offset="0.0234375" stop-color="rgb(0%, 17.173767%, 23.06366%)" stop-opacity="1"/>
<stop offset="0.03125" stop-color="rgb(0%, 17.456055%, 23.348999%)" stop-opacity="1"/>
<stop offset="0.0390625" stop-color="rgb(0%, 17.738342%, 23.634338%)" stop-opacity="1"/>
<stop offset="0.046875" stop-color="rgb(0%, 18.019104%, 23.918152%)" stop-opacity="1"/>
<stop offset="0.0546875" stop-color="rgb(0%, 18.301392%, 24.203491%)" stop-opacity="1"/>
<stop offset="0.0625" stop-color="rgb(0%, 18.583679%, 24.488831%)" stop-opacity="1"/>
<stop offset="0.0703125" stop-color="rgb(0%, 18.864441%, 24.77417%)" stop-opacity="1"/>
<stop offset="0.078125" stop-color="rgb(0%, 19.146729%, 25.057983%)" stop-opacity="1"/>
<stop offset="0.0859375" stop-color="rgb(0%, 19.429016%, 25.343323%)" stop-opacity="1"/>
<stop offset="0.09375" stop-color="rgb(0%, 19.711304%, 25.628662%)" stop-opacity="1"/>
<stop offset="0.101562" stop-color="rgb(0%, 19.992065%, 25.912476%)" stop-opacity="1"/>
<stop offset="0.109375" stop-color="rgb(0%, 20.274353%, 26.197815%)" stop-opacity="1"/>
<stop offset="0.117188" stop-color="rgb(0%, 20.556641%, 26.483154%)" stop-opacity="1"/>
<stop offset="0.125" stop-color="rgb(0%, 20.837402%, 26.768494%)" stop-opacity="1"/>
<stop offset="0.132812" stop-color="rgb(0%, 21.11969%, 27.052307%)" stop-opacity="1"/>
<stop offset="0.140625" stop-color="rgb(0%, 21.401978%, 27.337646%)" stop-opacity="1"/>
<stop offset="0.148438" stop-color="rgb(0%, 21.684265%, 27.622986%)" stop-opacity="1"/>
<stop offset="0.15625" stop-color="rgb(0%, 21.965027%, 27.908325%)" stop-opacity="1"/>
<stop offset="0.164062" stop-color="rgb(0%, 22.247314%, 28.192139%)" stop-opacity="1"/>
<stop offset="0.171875" stop-color="rgb(0%, 22.529602%, 28.477478%)" stop-opacity="1"/>
<stop offset="0.179687" stop-color="rgb(0%, 22.81189%, 28.762817%)" stop-opacity="1"/>
<stop offset="0.1875" stop-color="rgb(0%, 23.092651%, 29.046631%)" stop-opacity="1"/>
<stop offset="0.195312" stop-color="rgb(0%, 23.374939%, 29.33197%)" stop-opacity="1"/>
<stop offset="0.203125" stop-color="rgb(0%, 23.657227%, 29.61731%)" stop-opacity="1"/>
<stop offset="0.210937" stop-color="rgb(0%, 23.937988%, 29.902649%)" stop-opacity="1"/>
<stop offset="0.21875" stop-color="rgb(0%, 24.220276%, 30.186462%)" stop-opacity="1"/>
<stop offset="0.226562" stop-color="rgb(0%, 24.502563%, 30.471802%)" stop-opacity="1"/>
<stop offset="0.234375" stop-color="rgb(0%, 24.784851%, 30.757141%)" stop-opacity="1"/>
<stop offset="0.242187" stop-color="rgb(0%, 25.065613%, 31.04248%)" stop-opacity="1"/>
<stop offset="0.25" stop-color="rgb(0%, 25.3479%, 31.326294%)" stop-opacity="1"/>
<stop offset="0.257812" stop-color="rgb(0%, 25.630188%, 31.611633%)" stop-opacity="1"/>
<stop offset="0.265625" stop-color="rgb(0%, 25.91095%, 31.896973%)" stop-opacity="1"/>
<stop offset="0.273438" stop-color="rgb(0%, 26.193237%, 32.182312%)" stop-opacity="1"/>
<stop offset="0.28125" stop-color="rgb(0%, 26.475525%, 32.466125%)" stop-opacity="1"/>
<stop offset="0.289062" stop-color="rgb(0%, 26.757812%, 32.751465%)" stop-opacity="1"/>
<stop offset="0.296875" stop-color="rgb(0%, 27.038574%, 33.036804%)" stop-opacity="1"/>
<stop offset="0.304688" stop-color="rgb(0%, 27.320862%, 33.320618%)" stop-opacity="1"/>
<stop offset="0.3125" stop-color="rgb(0%, 27.603149%, 33.605957%)" stop-opacity="1"/>
<stop offset="0.320313" stop-color="rgb(0%, 27.885437%, 33.891296%)" stop-opacity="1"/>
<stop offset="0.328125" stop-color="rgb(0%, 28.166199%, 34.176636%)" stop-opacity="1"/>
<stop offset="0.335938" stop-color="rgb(0%, 28.448486%, 34.460449%)" stop-opacity="1"/>
<stop offset="0.34375" stop-color="rgb(0%, 28.730774%, 34.745789%)" stop-opacity="1"/>
<stop offset="0.351563" stop-color="rgb(0%, 29.011536%, 35.031128%)" stop-opacity="1"/>
<stop offset="0.359375" stop-color="rgb(0%, 29.293823%, 35.316467%)" stop-opacity="1"/>
<stop offset="0.367188" stop-color="rgb(0%, 29.576111%, 35.600281%)" stop-opacity="1"/>
<stop offset="0.375" stop-color="rgb(0%, 29.858398%, 35.88562%)" stop-opacity="1"/>
<stop offset="0.382813" stop-color="rgb(0%, 30.13916%, 36.170959%)" stop-opacity="1"/>
<stop offset="0.390625" stop-color="rgb(0%, 30.421448%, 36.454773%)" stop-opacity="1"/>
<stop offset="0.398438" stop-color="rgb(0%, 30.703735%, 36.740112%)" stop-opacity="1"/>
<stop offset="0.40625" stop-color="rgb(0%, 30.984497%, 37.025452%)" stop-opacity="1"/>
<stop offset="0.414063" stop-color="rgb(0%, 31.266785%, 37.310791%)" stop-opacity="1"/>
<stop offset="0.421875" stop-color="rgb(0%, 31.549072%, 37.594604%)" stop-opacity="1"/>
<stop offset="0.429688" stop-color="rgb(0%, 31.83136%, 37.879944%)" stop-opacity="1"/>
<stop offset="0.4375" stop-color="rgb(0%, 32.112122%, 38.165283%)" stop-opacity="1"/>
<stop offset="0.445313" stop-color="rgb(0%, 32.394409%, 38.450623%)" stop-opacity="1"/>
<stop offset="0.453125" stop-color="rgb(0%, 32.676697%, 38.734436%)" stop-opacity="1"/>
<stop offset="0.460938" stop-color="rgb(0%, 32.958984%, 39.019775%)" stop-opacity="1"/>
<stop offset="0.46875" stop-color="rgb(0%, 33.239746%, 39.305115%)" stop-opacity="1"/>
<stop offset="0.476563" stop-color="rgb(0%, 33.522034%, 39.588928%)" stop-opacity="1"/>
<stop offset="0.484375" stop-color="rgb(0%, 33.804321%, 39.874268%)" stop-opacity="1"/>
<stop offset="0.492188" stop-color="rgb(0%, 34.085083%, 40.159607%)" stop-opacity="1"/>
<stop offset="0.5" stop-color="rgb(0%, 34.367371%, 40.444946%)" stop-opacity="1"/>
<stop offset="0.507812" stop-color="rgb(0%, 34.649658%, 40.72876%)" stop-opacity="1"/>
<stop offset="0.515625" stop-color="rgb(0%, 34.931946%, 41.014099%)" stop-opacity="1"/>
<stop offset="0.523438" stop-color="rgb(0%, 35.212708%, 41.299438%)" stop-opacity="1"/>
<stop offset="0.53125" stop-color="rgb(0%, 35.494995%, 41.584778%)" stop-opacity="1"/>
<stop offset="0.539062" stop-color="rgb(0%, 35.777283%, 41.868591%)" stop-opacity="1"/>
<stop offset="0.546875" stop-color="rgb(0%, 36.058044%, 42.153931%)" stop-opacity="1"/>
<stop offset="0.554687" stop-color="rgb(0%, 36.340332%, 42.43927%)" stop-opacity="1"/>
<stop offset="0.5625" stop-color="rgb(0%, 36.62262%, 42.723083%)" stop-opacity="1"/>
<stop offset="0.570313" stop-color="rgb(0%, 36.904907%, 43.008423%)" stop-opacity="1"/>
<stop offset="0.578125" stop-color="rgb(0%, 37.185669%, 43.293762%)" stop-opacity="1"/>
<stop offset="0.585938" stop-color="rgb(0%, 37.467957%, 43.579102%)" stop-opacity="1"/>
<stop offset="0.59375" stop-color="rgb(0%, 37.750244%, 43.862915%)" stop-opacity="1"/>
<stop offset="0.601562" stop-color="rgb(0%, 38.032532%, 44.148254%)" stop-opacity="1"/>
<stop offset="0.609375" stop-color="rgb(0%, 38.313293%, 44.433594%)" stop-opacity="1"/>
<stop offset="0.617188" stop-color="rgb(0%, 38.595581%, 44.718933%)" stop-opacity="1"/>
<stop offset="0.625" stop-color="rgb(0%, 38.877869%, 45.002747%)" stop-opacity="1"/>
<stop offset="0.632812" stop-color="rgb(0%, 39.15863%, 45.288086%)" stop-opacity="1"/>
<stop offset="0.640625" stop-color="rgb(0%, 39.440918%, 45.573425%)" stop-opacity="1"/>
<stop offset="0.648437" stop-color="rgb(0%, 39.723206%, 45.858765%)" stop-opacity="1"/>
<stop offset="0.65625" stop-color="rgb(0%, 40.005493%, 46.142578%)" stop-opacity="1"/>
<stop offset="0.664062" stop-color="rgb(0%, 40.286255%, 46.427917%)" stop-opacity="1"/>
<stop offset="0.671875" stop-color="rgb(0%, 40.568542%, 46.713257%)" stop-opacity="1"/>
<stop offset="0.679688" stop-color="rgb(0%, 40.85083%, 46.99707%)" stop-opacity="1"/>
<stop offset="0.6875" stop-color="rgb(0%, 41.131592%, 47.28241%)" stop-opacity="1"/>
<stop offset="0.695312" stop-color="rgb(0%, 41.413879%, 47.567749%)" stop-opacity="1"/>
<stop offset="0.703125" stop-color="rgb(0%, 41.696167%, 47.853088%)" stop-opacity="1"/>
<stop offset="0.710938" stop-color="rgb(0%, 41.978455%, 48.136902%)" stop-opacity="1"/>
<stop offset="0.71875" stop-color="rgb(0%, 42.259216%, 48.422241%)" stop-opacity="1"/>
<stop offset="0.726562" stop-color="rgb(0%, 42.541504%, 48.707581%)" stop-opacity="1"/>
<stop offset="0.734375" stop-color="rgb(0%, 42.823792%, 48.99292%)" stop-opacity="1"/>
<stop offset="0.742187" stop-color="rgb(0%, 43.104553%, 49.276733%)" stop-opacity="1"/>
<stop offset="0.75" stop-color="rgb(0%, 43.386841%, 49.562073%)" stop-opacity="1"/>
<stop offset="0.757812" stop-color="rgb(0%, 43.669128%, 49.847412%)" stop-opacity="1"/>
<stop offset="0.765625" stop-color="rgb(0%, 43.951416%, 50.131226%)" stop-opacity="1"/>
<stop offset="0.773437" stop-color="rgb(0%, 44.232178%, 50.416565%)" stop-opacity="1"/>
<stop offset="0.78125" stop-color="rgb(0%, 44.514465%, 50.701904%)" stop-opacity="1"/>
<stop offset="0.789063" stop-color="rgb(0%, 44.796753%, 50.987244%)" stop-opacity="1"/>
<stop offset="0.796875" stop-color="rgb(0%, 45.079041%, 51.271057%)" stop-opacity="1"/>
<stop offset="0.804688" stop-color="rgb(0%, 45.359802%, 51.556396%)" stop-opacity="1"/>
<stop offset="0.8125" stop-color="rgb(0%, 45.64209%, 51.841736%)" stop-opacity="1"/>
<stop offset="0.820312" stop-color="rgb(0%, 45.924377%, 52.127075%)" stop-opacity="1"/>
<stop offset="0.828125" stop-color="rgb(0%, 46.205139%, 52.410889%)" stop-opacity="1"/>
<stop offset="0.835938" stop-color="rgb(0%, 46.487427%, 52.696228%)" stop-opacity="1"/>
<stop offset="0.84375" stop-color="rgb(0%, 46.769714%, 52.981567%)" stop-opacity="1"/>
<stop offset="0.851562" stop-color="rgb(0%, 47.052002%, 53.265381%)" stop-opacity="1"/>
<stop offset="0.859375" stop-color="rgb(0%, 47.332764%, 53.55072%)" stop-opacity="1"/>
<stop offset="0.867187" stop-color="rgb(0%, 47.615051%, 53.83606%)" stop-opacity="1"/>
<stop offset="0.875" stop-color="rgb(0%, 47.897339%, 54.121399%)" stop-opacity="1"/>
<stop offset="0.882812" stop-color="rgb(0%, 48.178101%, 54.405212%)" stop-opacity="1"/>
<stop offset="0.890625" stop-color="rgb(0%, 48.460388%, 54.690552%)" stop-opacity="1"/>
<stop offset="0.898438" stop-color="rgb(0%, 48.742676%, 54.975891%)" stop-opacity="1"/>
<stop offset="0.90625" stop-color="rgb(0%, 49.024963%, 55.26123%)" stop-opacity="1"/>
<stop offset="0.914063" stop-color="rgb(0%, 49.305725%, 55.545044%)" stop-opacity="1"/>
<stop offset="0.921875" stop-color="rgb(0%, 49.588013%, 55.830383%)" stop-opacity="1"/>
<stop offset="0.929688" stop-color="rgb(0%, 49.8703%, 56.115723%)" stop-opacity="1"/>
<stop offset="0.9375" stop-color="rgb(0%, 50.152588%, 56.401062%)" stop-opacity="1"/>
<stop offset="0.945312" stop-color="rgb(0%, 50.43335%, 56.684875%)" stop-opacity="1"/>
<stop offset="0.953125" stop-color="rgb(0%, 50.715637%, 56.970215%)" stop-opacity="1"/>
<stop offset="0.960938" stop-color="rgb(0%, 50.997925%, 57.255554%)" stop-opacity="1"/>
<stop offset="0.96875" stop-color="rgb(0%, 51.278687%, 57.539368%)" stop-opacity="1"/>
<stop offset="0.976562" stop-color="rgb(0%, 51.560974%, 57.824707%)" stop-opacity="1"/>
<stop offset="0.984375" stop-color="rgb(0%, 51.843262%, 58.110046%)" stop-opacity="1"/>
<stop offset="0.992187" stop-color="rgb(0%, 52.125549%, 58.395386%)" stop-opacity="1"/>
<stop offset="1" stop-color="rgb(0%, 52.406311%, 58.679199%)" stop-opacity="1"/>
</linearGradient>
</defs>
<g clip-path="url(#clip-0)">
<path fill-rule="nonzero" fill="url(#linear-pattern-0)" d="M 0 0 L 0 3872.980469 L 3872.980469 3872.980469 L 3872.980469 0 Z M 0 0 "/>
</g>
<path fill-rule="evenodd" fill="rgb(100%, 100%, 100%)" fill-opacity="1" d="M 1033.101562 311.921875 L 2839.890625 311.921875 C 3236.550781 311.921875 3561.070312 636.449219 3561.070312 1033.101562 L 3561.070312 2839.890625 C 3561.070312 3236.550781 3236.550781 3561.070312 2839.890625 3561.070312 L 1033.101562 3561.070312 C 636.445312 3561.070312 311.925781 3236.550781 311.925781 2839.890625 L 311.925781 1033.101562 C 311.925781 636.449219 636.445312 311.921875 1033.101562 311.921875 "/>
<g clip-path="url(#clip-1)">
<g clip-path="url(#clip-2)">
<path fill-rule="nonzero" fill="url(#linear-pattern-1)" d="M 697.148438 784.949219 L 697.148438 3088.058594 L 3175.839844 3088.058594 L 3175.839844 784.949219 Z M 697.148438 784.949219 "/>
</g>
</g>
</svg>
