<svg width="25" height="25" viewBox="0 0 25 25" fill="none" xmlns="http://www.w3.org/2000/svg">
<path d="M9.19625 20.4507C16.7432 20.4507 20.8713 14.1977 20.8713 8.77566C20.8713 8.59766 20.8712 8.42066 20.8592 8.24566C21.6624 7.66419 22.3556 6.94428 22.9062 6.11966C22.1573 6.45167 21.3628 6.66943 20.5492 6.76566C21.4059 6.25272 22.047 5.44601 22.3533 4.49566C21.548 4.97355 20.667 5.31039 19.7482 5.49166C19.1296 4.83343 18.3113 4.3975 17.4199 4.25137C16.5285 4.10524 15.6138 4.25706 14.8174 4.68333C14.021 5.1096 13.3873 5.78654 13.0145 6.60932C12.6418 7.43211 12.5506 8.35485 12.7552 9.23466C11.1238 9.15291 9.52785 8.72899 8.0709 7.99043C6.61394 7.25188 5.32858 6.21519 4.29825 4.94766C3.77357 5.85087 3.61284 6.92008 3.84879 7.93763C4.08473 8.95517 4.69962 9.84454 5.56825 10.4247C4.91551 10.4058 4.27688 10.2302 3.70625 9.91266V9.96466C3.70664 10.912 4.03465 11.83 4.63465 12.563C5.23465 13.2961 6.06972 13.7991 6.99825 13.9867C6.39406 14.1514 5.76014 14.1753 5.14525 14.0567C5.40741 14.8721 5.91793 15.5853 6.60538 16.0963C7.29283 16.6073 8.12282 16.8906 8.97925 16.9067C8.12837 17.5752 7.15404 18.0695 6.11198 18.3612C5.06992 18.6529 3.98057 18.7363 2.90625 18.6067C4.78285 19.811 6.96644 20.4498 9.19625 20.4467" fill="white"/>
</svg>
